<?xml version="1.0" encoding="UTF-8"?><svg id="a" xmlns="http://www.w3.org/2000/svg" viewBox="0 0 500 500"><defs><style>.b{fill:none;stroke:#14a2ad;stroke-linecap:round;stroke-linejoin:round;stroke-width:8px;}</style></defs><path class="b" d="M356.78,228.71h-2.39v7.37h-2.32v3.97c0,8.44-3.42,16.08-8.95,21.61s-13.17,8.95-21.61,8.95c-16.87,0-30.56-13.68-30.56-30.56v-3.97h-2.32v-7.37h-2.38c-19.63,0-36.57,11.52-44.44,28.16-3.01,6.37-4.7,13.48-4.7,20.98v80.26h168.81v-80.26c0-27.14-22-49.14-49.14-49.14Z"/><path class="b" d="M229.55,249.22v14.59c0,22.06-17.88,39.95-39.95,39.95h-21.7c-22.06,0-39.95-17.88-39.95-39.95v-14.14c-20.06,9.85-33.88,30.48-33.88,54.33v54.1H237.1v-80.26c0-7.5,1.69-14.61,4.7-20.98-3.74-3.01-7.85-5.58-12.25-7.65Z"/><path class="b" d="M178.76,168.79c11.66,0,22.08,5.77,28.93,14.8,1.41-3.66,2.2-7.65,2.2-11.83,0-17.72-13.94-32.08-31.13-32.08s-31.14,14.36-31.14,32.08c0,4.18,.79,8.17,2.2,11.83,6.85-9.03,17.27-14.8,28.94-14.8Z"/><path class="b" d="M167.91,303.76h21.7c22.06,0,39.95-17.88,39.95-39.95v-14.59c-7.79-3.66-16.48-5.71-25.65-5.71h-4.85v13.72c0,11.25-9.12,20.37-20.37,20.37-8.44,0-15.68-5.13-18.77-12.44-1.03-2.44-1.6-5.12-1.6-7.93v-13.72h-3.73c-9.55,0-18.59,2.22-26.62,6.17v14.14c0,22.06,17.88,39.95,39.95,39.95Z"/><path class="b" d="M178.76,249.34c7.1,0,13.73-2.13,19.37-5.83,.32-.21,.62-.42,.93-.64,10.27-7.18,17.06-19.63,17.06-33.8,0-.84-.03-1.67-.08-2.49-.21-3.82-.92-7.49-2.05-10.95-1.45-4.42-3.6-8.48-6.3-12.04-6.85-9.03-17.27-14.8-28.93-14.8s-22.09,5.77-28.94,14.8c-4.81,6.34-7.85,14.29-8.35,22.99-.04,.82-.08,1.65-.08,2.49,0,14.11,6.74,26.51,16.93,33.7,.35,.25,.7,.5,1.07,.74,5.65,3.7,12.28,5.83,19.37,5.83Zm-33.95-53.6h0Z"/><path class="b" d="M199.05,243.51h0v-.64c-.31,.22-.61,.43-.93,.64h.93Z"/><path class="b" d="M158.32,242.77v.74h1.07c-.37-.24-.72-.49-1.07-.74Z"/><path class="b" d="M178.68,277.6c11.25,0,20.37-9.12,20.37-20.37v-13.72h-.93c-5.64,3.7-12.27,5.83-19.37,5.83s-13.72-2.13-19.37-5.83h-1.07v13.72c0,2.81,.57,5.49,1.6,7.93,3.09,7.31,10.33,12.44,18.77,12.44Z"/><path class="b" d="M178.69,277.6c11.25,0,20.37-9.12,20.37-20.37v-13.72h0v13.72c0,11.25-9.12,20.37-20.37,20.37-8.44,0-15.68-5.13-18.77-12.44,3.09,7.31,10.33,12.44,18.77,12.44Z"/><path class="b" d="M290.95,215.35c2.31-3.27,6.11-5.42,10.42-5.42h40.29c4.31,0,8.11,2.15,10.41,5.42,1.46,2.07,2.32,4.59,2.32,7.32v1.09c3.52-6.12,5.55-13.31,5.55-20.99,0-22.39-17.2-40.54-38.43-40.54s-38.42,18.15-38.42,40.54c0,7.68,2.02,14.87,5.54,20.99v-1.09c0-2.73,.87-5.25,2.32-7.32Z"/><path class="b" d="M322.45,228.71c-.6-1.44-.94-3.01-.94-4.67,0,1.66-.33,3.23-.94,4.67-1.82,4.33-6.11,7.37-11.1,7.37h-18.52v3.97c0,16.88,13.69,30.56,30.56,30.56,8.44,0,16.08-3.42,21.61-8.95s8.95-13.17,8.95-21.61v-3.97h-18.51c-5,0-9.28-3.04-11.11-7.37Z"/><path class="b" d="M290.95,236.08h18.52c4.99,0,9.28-3.04,11.1-7.37,.61-1.44,.94-3.01,.94-4.67v-14.11h-20.14c-4.31,0-8.11,2.15-10.42,5.42-1.45,2.07-2.32,4.59-2.32,7.32v13.41h2.32Z"/><path class="b" d="M352.07,215.35c-2.3-3.27-6.1-5.42-10.41-5.42h-20.15v14.11c0,1.66,.34,3.23,.94,4.67,1.83,4.33,6.11,7.37,11.11,7.37h20.83v-13.41c0-2.73-.86-5.25-2.32-7.32Z"/></svg>