<?xml version="1.0" encoding="UTF-8"?><svg id="a" xmlns="http://www.w3.org/2000/svg" viewBox="0 0 500 500"><defs><style>.b{fill:none;stroke:#14a2ad;stroke-linecap:round;stroke-linejoin:round;stroke-width:8px;}</style></defs><g><path class="b" d="M358.6,307.08H202.01l-54.69-52.09c-7.64-7.28-20.28-1.86-20.28,8.69v11.58c0,9.38,3.9,18.35,10.76,24.75l45.18,42.13,.99,.92h158.23c10.3,0,20.12-4.36,27.04-11.99,2.59-2.85,3.74-6.24,3.74-9.55,0-7.4-5.78-14.44-14.37-14.44Z"/><path class="b" d="M219.94,348.62c0,6.62,5.37,11.98,11.98,11.98h45.86c6.62,0,11.98-5.37,11.98-11.98v-5.56h-69.83v5.56Z"/><rect class="b" x="236.56" y="360.6" width="36.58" height="25.39"/><path class="b" d="M223.66,386c-9.74,0-17.63,7.89-17.63,17.63,0,1.95,1.58,3.53,3.53,3.53h91.48c1.95,0,3.53-1.58,3.53-3.53,0-9.74-7.89-17.63-17.63-17.63h-63.3Z"/></g><g><path class="b" d="M372.51,269.84c-2.01,2.66-5.8,3.19-8.45,1.18l-86.62-65.4c-1.99-1.51-2.79-4.01-2.22-6.29,.19-.77,.54-1.49,1.04-2.16,2.01-2.66,5.8-3.19,8.45-1.18l5.73,4.32,37.59,28.38,37.58,28.37,5.73,4.33c2.66,2.01,3.19,5.8,1.18,8.45Z"/><path class="b" d="M365.61,257.05l-37.58-28.37-37.59-28.38c15.18-8.48,34.14-8.73,49.78,.25,1.83,1.05,3.62,2.22,5.35,3.52l1.32,1c1.73,1.3,3.34,2.7,4.86,4.17,12.92,12.59,17.87,30.88,13.86,47.8Z"/><path class="b" d="M396.2,127.97c-.06-.01-.12-.04-.19-.06-5.04-1.27-10.13-.09-14,2.8-2.96,2.2-5.22,5.4-6.19,9.26-1.03,4.08-.43,8.18,1.35,11.64,2.11,4.11,5.89,7.32,10.72,8.54,.27,.07,.54,.11,.81,.16,8.63,1.73,17.19-3.59,19.36-12.22,2.23-8.83-3.08-17.79-11.87-20.12Zm-3.68,13.8c1.25,.32,2.01,1.58,1.69,2.83s-1.58,2.01-2.83,1.69-2.02-1.58-1.7-2.83,1.59-2,2.84-1.69Z"/><path class="b" d="M394.2,144.6c-.32,1.25-1.58,2.01-2.83,1.69s-2.02-1.58-1.7-2.83,1.59-2,2.84-1.69,2.01,1.58,1.69,2.83Z"/><path class="b" d="M388.7,160.31l-36.95,48.94c-1.52-1.47-3.12-2.87-4.86-4.17l-1.32-1c-1.73-1.3-3.52-2.48-5.35-3.52l36.94-48.94c2.11,4.11,5.89,7.32,10.72,8.54,.27,.07,.54,.11,.81,.16Z"/><path class="b" d="M396.2,127.97c-.06-.01-.12-.04-.19-.06-5.04-1.27-10.13-.09-14,2.8l-4.14-29.6c-.13-.95-.07-1.88,.15-2.76,.7-2.76,3-4.97,6.01-5.39,3.94-.55,7.59,2.2,8.15,6.15l4.02,28.86Z"/></g><g><path class="b" d="M238.44,188.3c-.2,2.34-1.77,4.45-4.15,5.23l-103.2,33.61c-3.17,1.04-6.57-.7-7.6-3.87-1.04-3.17,.7-6.57,3.87-7.61l6.82-2.23,44.77-14.57,44.78-14.59,6.83-2.22c3.16-1.03,6.57,.7,7.6,3.87,.26,.79,.35,1.6,.28,2.38Z"/><path class="b" d="M223.73,184.27l-44.78,14.59-44.77,14.57c1.49-14.88,9.58-28.55,22.2-36.99,2.04-1.36,4.2-2.61,6.48-3.69,1.91-.9,3.89-1.69,5.95-2.36l1.57-.52c.73-.23,1.47-.43,2.2-.63,1.34-.37,2.67-.7,4.01-.96,17.71-3.38,35.55,3.03,47.14,15.99Z"/><path class="b" d="M123.32,130.96c-2.72-3.98-7.14-6.76-12.33-7.2-.07-.01-.14,0-.2-.01-9.06-.66-16.99,6.08-17.77,15.16-.75,8.87,5.6,16.68,14.33,17.86,.27,.04,.54,.09,.82,.11,3.85,.33,7.49-.7,10.49-2.67,.86-.56,1.68-1.2,2.43-1.91,2.78-2.67,4.66-6.31,5.05-10.45,0-.04,0-.08,0-.12,.34-3.96-.75-7.72-2.83-10.77Zm-13.94,11.68c-1.28-.11-2.23-1.23-2.12-2.52,.11-1.28,1.23-2.23,2.52-2.12,1.29,.11,2.24,1.23,2.13,2.52-.11,1.28-1.24,2.23-2.53,2.12Z"/><path class="b" d="M111.91,140.52c-.11,1.28-1.24,2.23-2.53,2.12-1.28-.11-2.23-1.23-2.12-2.52,.11-1.28,1.23-2.23,2.52-2.12,1.29,.11,2.24,1.23,2.13,2.52Z"/><path class="b" d="M137.63,101.67c-.08,.9-.33,1.8-.76,2.66l-13.55,26.63c-2.72-3.98-7.14-6.76-12.33-7.2-.07-.01-.14,0-.2-.01l13.21-25.97c1.81-3.55,6.15-4.96,9.7-3.16,2.7,1.38,4.17,4.21,3.93,7.05Z"/><path class="b" d="M172.58,169.24c-.73,.2-1.47,.4-2.2,.63l-1.57,.52c-2.06,.67-4.04,1.46-5.95,2.36-2.28,1.08-4.44,2.33-6.48,3.69l-37.72-22.23c.86-.56,1.68-1.2,2.43-1.91,2.78-2.67,4.66-6.31,5.05-10.45l46.44,27.39Z"/></g></svg>