<?xml version="1.0" encoding="UTF-8"?><svg id="a" xmlns="http://www.w3.org/2000/svg" viewBox="0 0 500 500"><defs><style>.b{stroke-width:8px;}.b,.c{fill:none;stroke:#14a2ad;stroke-linecap:round;stroke-linejoin:round;}.c{stroke-width:8.51px;}</style></defs><polyline class="b" points="306.17 278.58 306.17 235.29 385.89 235.29 385.89 367.47 306.17 367.47 306.17 303.71"/><path class="b" d="M105.2,406.01v-113.77c0-10.82,8.77-19.59,19.59-19.59h118.4c10.82,0,19.59,8.77,19.59,19.59v113.77"/><rect class="b" x="105.2" y="348.41" width="157.58" height="29.02"/><line class="b" x1="253.61" y1="96.37" x2="253.61" y2="123.65"/><line class="b" x1="288.77" y1="95.47" x2="288.77" y2="364.87"/><circle class="b" cx="306.17" cy="395.51" r="9.52"/><circle class="b" cx="385.88" cy="395.51" r="9.52"/><polyline class="b" points="323.59 160.01 341.61 160.01 351.14 142.25 359.8 160.01 368.43 160.01"/><circle class="b" cx="368.43" cy="197.99" r="2.14"/><path class="b" d="M323.59,198.03v74.09c0,10.62-8.61,19.23-19.23,19.23h-41.58"/><path class="b" d="M349.96,198.03v74.09c0,10.62-8.61,19.23-19.23,19.23h-24.57"/><g><rect class="b" x="306.17" y="179.67" width="79.72" height="36.38"/><rect class="b" x="306.17" y="122.76" width="79.72" height="56.91"/></g><line class="b" x1="288.77" y1="105.3" x2="253.61" y2="105.3"/><path class="b" d="M235.93,123.65h35.26v37.23c0,9.73-7.9,17.63-17.63,17.63h0c-9.73,0-17.63-7.9-17.63-17.63v-37.23h0Z"/><line class="b" x1="184.52" y1="226.92" x2="184.52" y2="272.66"/><g><path class="b" d="M235.93,217.6v55.06h-104.38v-55.06c0-10.83,8.78-19.62,19.61-19.62h7.69c-.95,2.9-1.48,6-1.48,9.23,0,7.69,2.94,14.65,7.69,19.71,4.82,5.13,11.51,8.31,18.9,8.31,7.94,0,15.06-3.67,19.94-9.48,4.14-4.94,6.66-11.43,6.66-18.54,0-3.23-.53-6.33-1.49-9.23h7.25c10.83,0,19.61,8.79,19.61,19.62Z"/><path class="b" d="M210.56,207.21c0,7.11-2.52,13.6-6.66,18.54-1.05-10.97-9.33-19.51-19.38-19.51s-18.9,9.15-19.46,20.68c-4.75-5.06-7.69-12.02-7.69-19.71,0-3.23,.53-6.33,1.48-9.23,3.63-10.93,13.5-18.78,25.11-18.78s21.49,7.85,25.11,18.78c.96,2.9,1.49,6,1.49,9.23Z"/><path class="b" d="M203.9,225.75c-4.88,5.81-12,9.48-19.94,9.48-7.39,0-14.08-3.18-18.9-8.31,.56-11.53,9.06-20.68,19.46-20.68s18.33,8.54,19.38,19.51Z"/></g><path class="b" d="M262.78,258.73v-22.98c0-10.87-8.82-19.69-19.69-19.69h-7.16"/><line class="b" x1="306.16" y1="348.41" x2="385.88" y2="348.41"/><path class="c" d="M181.69,249.75h5.95c12.62,0,22.87,10.25,22.87,22.87h-51.69c0-12.62,10.25-22.87,22.87-22.87Z"/></svg>