<?xml version="1.0" encoding="UTF-8"?><svg id="a" xmlns="http://www.w3.org/2000/svg" viewBox="0 0 500 500"><defs><style>.b{fill:none;stroke:#14a2ad;stroke-linecap:round;stroke-linejoin:round;stroke-width:8px;}</style></defs><line class="b" x1="294.62" y1="171.55" x2="254.69" y2="171.55"/><g><path class="b" d="M169.78,171.55h84.91v-.36c0-34.02-25.28-62.12-58.07-66.57-2.99-.4-6.04-.63-9.14-.63-3.34,0-6.64,.25-9.86,.72-32.44,4.77-57.34,32.71-57.34,66.48v.36h49.5Z"/><path class="b" d="M196.62,104.62v-2.53c0-5.24-4.25-9.5-9.5-9.5s-9.5,4.26-9.5,9.5v2.62c3.22-.47,6.51-.72,9.86-.72,3.1,0,6.14,.23,9.14,.63Z"/><path class="b" d="M204.56,261.21c9.32-2.92,17.67-8.05,24.41-14.79,10.81-10.81,17.5-25.74,17.5-42.25v-12.39c-30.24-.94-54.7-9.9-67.33-15.58-.38-.16-.74-.33-1.09-.49-.35-.16-.7-.32-1.03-.47,0,0,0-.01-.01-.01-.33-.14-.65-.3-.96-.44,0,0,0-.01-.01-.01-.3-.14-.6-.29-.88-.42h-.01c-.29-.14-.56-.28-.82-.41h-.01c-.27-.14-.51-.27-.76-.38-.49-.26-.95-.48-1.34-.7l-.57-.29c-.16-.09-.32-.17-.46-.26l-.44-.24c-.11-.06-.23-.12-.32-.17l-.48-.27s-.03-.02-.04-.02c-.07-.05-.11-.07-.11-.07h-29.33c-.39,15.01-13.47,22.8-13.47,22.8v9.83c0,27.11,18.07,49.98,42.8,57.29,5.37,1.58,11.05,2.45,16.94,2.45,6.21,0,12.21-.95,17.84-2.71Z"/><path class="b" d="M140.45,171.55h-20.17l6.7,22.8s13.08-7.79,13.47-22.8Z"/><path class="b" d="M169.9,171.62s.02,.01,.04,.02l.48,.27c.09,.05,.21,.11,.32,.17l.44,.24c.14,.08,.3,.16,.46,.26l.57,.29c.39,.22,.84,.44,1.34,.7,.25,.11,.49,.24,.76,.37h.01c.27,.14,.54,.28,.82,.41h.01c.29,.14,.59,.29,.88,.43,.01,0,.01,.01,.01,.01,.31,.14,.63,.3,.96,.44,.01,0,.01,.01,.01,.01,.33,.15,.68,.31,1.03,.47,.35,.16,.71,.33,1.09,.49,12.64,5.68,37.09,14.64,67.33,15.58v-20.24h-76.69s.04,.02,.11,.07Z"/><path class="b" d="M274.44,362.63c-3.61-38.83-32.42-70.35-69.92-78.04-.23,4.45-2.1,8.47-5.05,11.42-3.15,3.15-7.5,5.09-12.3,5.09-9.36,0-16.98-7.41-17.35-16.67-37.93,7.37-67.17,39.06-70.81,78.19h37.52v49.14h101.22l.39-49.14h36.3Z"/><path class="b" d="M187.17,301.1c4.79,0,9.15-1.94,12.3-5.09,2.95-2.95,4.83-6.98,5.05-11.42,.01-.29,.04-.58,.04-.87v-22.5c-5.63,1.76-11.63,2.71-17.84,2.71-5.89,0-11.57-.86-16.94-2.45v22.25c0,.24,.03,.47,.04,.72,.37,9.26,7.98,16.67,17.35,16.67Z"/><path class="b" d="M99.01,362.63v0h0Z"/><path class="b" d="M99.01,362.63v.04l-.39,49.1h37.91v-49.14h-37.52Z"/><path class="b" d="M274.44,362.63h-36.3l-.39,49.14h37.07v-40.87c0-2.79-.14-5.55-.39-8.27Z"/></g><line class="b" x1="136.54" y1="340.29" x2="136.54" y2="362.63"/><line class="b" x1="237.75" y1="340.29" x2="237.75" y2="362.63"/><g><line class="b" x1="373.61" y1="250.16" x2="407.06" y2="282.79"/><g><path class="b" d="M377.65,290.27l-12.05-12.05-5.33-5.33c-5.27-5.27-13.81-5.27-19.08,0l-49.11,49.11c-4.93,4.93-5.24,12.72-.95,18.02l23.68,23.68c5.3,4.3,13.09,3.98,18.02-.95l4.89-4.89-10.21-10.21,10.21,10.21,31.35-31.35-10.21-10.21,10.21,10.21,12.87-12.87c5.27-5.27,5.27-13.81,0-19.08l-4.3-4.3Zm-34.45,41.72l10.21,10.21-10.21-10.21Z"/><polygon class="b" points="395.96 271.97 383.75 260.07 365.61 278.22 377.65 290.27 395.96 271.97"/><path class="b" d="M292.09,341.08c-.34-.34-.65-.69-.95-1.06l-2.41-2.41c-4.48,4.48-4.48,11.74,0,16.21l12.29,12.29c4.48,4.48,11.74,4.48,16.21,0l-2.41-2.41c-.36-.3-.72-.61-1.06-.95l-21.68-21.68Z"/><path class="b" d="M292.09,341.08l21.68,21.68c.34,.34,.69,.65,1.06,.95l-23.68-23.68c.3,.36,.61,.72,.95,1.06Z"/></g><line class="b" x1="294.47" y1="361.16" x2="261.05" y2="394.58"/></g></svg>