<?xml version="1.0" encoding="UTF-8"?><svg id="a" xmlns="http://www.w3.org/2000/svg" viewBox="0 0 500 500"><defs><style>.b{fill:none;stroke:#14a2ad;stroke-linecap:round;stroke-linejoin:round;stroke-width:8px;}</style></defs><g><g><path class="b" d="M292.33,194.91c-.13,3.92-.78,7.72-1.78,11.36-6.29,22.8-27,39.42-27.65,39.94h-.02c-.62-.55-20.11-18.39-24.98-41.47-.79-3.75-1.2-7.65-1.07-11.63,.19-5.98,1.58-11.68,3.64-16.97,7.89-20.21,25.8-34.34,25.8-34.34,0,0,15.12,13.59,22.34,32.52,2.42,6.36,3.96,13.33,3.73,20.59Z"/><path class="b" d="M326.93,197.12c-1.5,8.42-4.52,17.15-10.2,24.56-17.56,22.89-53.83,24.54-53.83,24.54h.01c.65-.53,21.36-17.15,27.65-39.95,1-3.64,1.65-7.44,1.78-11.36,.23-7.25-1.31-14.23-3.73-20.59,17.58-10.06,37.88-10.99,37.88-10.99,0,0,3.56,16.22,.44,33.79Z"/><path class="b" d="M359.44,206.31s-11,34.6-37.67,45.62c-26.66,11.02-58.88-5.71-58.88-5.71,0,0,36.27-1.65,53.83-24.54,5.68-7.42,8.7-16.14,10.2-24.56,17.78,1.54,32.52,9.19,32.52,9.19Z"/><path class="b" d="M262.89,246.22s-36.26-1.75-53.76-24.7c-6.46-8.47-9.46-18.65-10.66-28.12-2.07-16.16,1.07-30.26,1.07-30.26,0,0,22.77,1.11,40.94,13-2.06,5.29-3.45,10.99-3.64,16.97-.13,3.98,.29,7.87,1.07,11.63,4.87,23.08,24.37,40.92,24.98,41.47h0Z"/><path class="b" d="M262.89,246.22s-33.2,14.7-59.13,2.04c-25.92-12.67-34.76-47.87-34.76-47.87,0,0,13.21-5.84,29.47-6.98,1.21,9.47,4.21,19.64,10.66,28.12,17.5,22.94,53.76,24.7,53.76,24.7Z"/></g><path class="b" d="M269.64,334.56s-11.62,67.51-59.92,67.51-64.38,16.07-69.38-12.14c-2.55-14.39-5.94-20.98-8.64-23.98-1.85-2.05-1.77-5.18,.21-7.1l7-6.79-12.16-6.45c-2.76-1.47-4.07-4.71-3.06-7.67,1.34-3.92,2.87-10.63,3.44-21.51"/></g><path class="b" d="M353.56,409.87s-20.58-29.84-19.51-86.32c0,0,73.54-30.48,67.67-129.54-3.16-53.44-47.39-78.82-87.45-90.87-46.22-13.9-96.28-9.36-138.34,14.31-27.35,15.39-47.46,31.73-52.59,68.8-.96,10.6-.54,18.54,.36,24.92,3.57,25.2-1.47,50.96-15.2,72.4-3.2,5-6.87,9.95-11.06,14.56-15.09,16.08,42.54,18.3,42.54,18.3"/></svg>