<?xml version="1.0" encoding="UTF-8"?><svg id="a" xmlns="http://www.w3.org/2000/svg" viewBox="0 0 500 500"><defs><style>.b{fill:none;stroke:#14a2ad;stroke-linecap:round;stroke-linejoin:round;stroke-width:9.31px;}</style></defs><g><path class="b" d="M296.51,179.8c6.35,0,11.49-5.14,11.49-11.49h0c0-6.35-5.14-11.49-11.49-11.49h-64.11"/><path class="b" d="M182.23,96.15l26.03,19.99c4.39,3.37,9.76,5.19,15.3,5.19h50.81c6.66,0,13.05,2.65,17.76,7.36l60.14,60.14c4.49,4.48,4.49,11.76,0,16.25s-11.76,4.48-16.25,0l-30.13-30.14c-2.08,2.9-5.47,4.78-9.31,4.78h-48.05c-3.36,0-6.68,.74-9.71,2.18-31.22,14.82-55.25-5.6-60.1-10.45-5.06-5.06-34.34-31.92-34.34-31.92"/></g><g><path class="b" d="M203.49,320.2c-6.35,0-11.49,5.14-11.49,11.49h0c0,6.35,5.14,11.49,11.49,11.49h64.11"/><path class="b" d="M317.77,403.85l-26.03-19.99c-4.39-3.37-9.76-5.19-15.3-5.19h-50.81c-6.66,0-13.05-2.65-17.76-7.36l-60.14-60.14c-4.49-4.48-4.49-11.76,0-16.25s11.76-4.48,16.25,0l30.13,30.14c2.08-2.9,5.47-4.78,9.31-4.78h48.05c3.36,0,6.68-.74,9.71-2.18,31.22-14.82,55.25,5.6,60.1,10.45,5.06,5.06,34.34,31.92,34.34,31.92"/></g><path class="b" d="M290.24,215.65h0c-9.88-9.88-25.89-9.88-35.77,0l-4.47,4.47-4.47-4.47c-9.88-9.88-25.89-9.88-35.77,0h0c-9.88,9.88-9.88,25.89,0,35.77l4.47,4.47-.1,.1,35.77,35.77,.1-.1,.1,.1,35.77-35.77-.1-.1,4.47-4.47c9.88-9.88,9.88-25.89,0-35.77Z"/></svg>