<?xml version="1.0" encoding="UTF-8"?><svg xmlns="http://www.w3.org/2000/svg" viewBox="0 0 500 500"><defs><style>.c{fill:none;stroke:#14a2ad;stroke-linecap:round;stroke-linejoin:round;stroke-width:8px;}</style></defs><g id="a"><g><path class="c" d="M383.03,180.48c-.72,.36-1.44,.69-2.16,1.01,.73-.33,1.45-.66,2.16-1.01Z"/><path class="c" d="M380.08,181.84c-.34,.15-.69,.29-1.03,.43,.35-.14,.69-.28,1.03-.43Z"/><path class="c" d="M296.09,183.98c0-.44,.03-.88,.08-1.3-.06,.41-.08,.84-.08,1.28v.03Z"/><path class="c" d="M324.84,263.28c-.31-.11-.63-.23-.94-.35,.31,.12,.63,.24,.94,.35Z"/><path class="c" d="M322.22,262.25c-.19-.08-.38-.17-.56-.25,.19,.09,.38,.17,.56,.25Z"/><path class="c" d="M333.13,265.37c.38,.06,.76,.12,1.15,.17,.58,.07,1.17,.11,1.75,.16-.58-.05-1.17-.09-1.75-.16-.39-.05-.77-.11-1.16-.16Z"/><path class="c" d="M329.19,264.61c.15,.04,.31,.06,.46,.1-.35-.08-.69-.17-1.04-.26,.2,.05,.39,.11,.58,.16Z"/><path class="c" d="M327.49,264.14c-.47-.13-.93-.28-1.39-.42,.46,.15,.92,.29,1.39,.42Z"/><path class="c" d="M323.73,262.86s.09,.04,.14,.06h0s-.09-.04-.14-.06Z"/><path class="c" d="M157.72,289.9s0,0,0,0h0Z"/><path class="c" d="M213.79,289.99l.26-.26-.07,.07s-.12,.11-.2,.2Z"/><path class="c" d="M176.79,292.2s0,0,0,0l-2.28,.61,2.27-.6Z"/><path class="c" d="M165.73,293.37s.07,0,.1,.02c-.02,0-.05,0-.07-.02h-.03Z"/><path class="c" d="M383.55,289.28c-.05,.06-.11,.11-.17,.17-1.29,1.33-2.71,2.81-3.86,4.1-.06,.06-.11,.13-.16,.19-.11,.11-.2,.21-.27,.31-.04,.05-.09,.09-.12,.13-.02,.02-.04,.04-.05,.06-.04,.05-.08,.1-.11,.14-.08,.08-.15,.17-.21,.23-.16,.2-.31,.38-.44,.55-.11,.13-.2,.24-.28,.36l7.34,7.79-11.79,25.49-18.83,40.72,4.75-40.72,2.19-18.84,3.73-31.99c-2.03-.85-4.1-1.6-6.22-2.25v.77c0,10.86-8.81,19.66-19.67,19.66s-19.66-8.81-19.66-19.66v-.59c-1.94,.62-3.86,1.33-5.72,2.11l3.51,30.26,2.39,20.53,4.9,42.05-19.44-42.05-11.17-24.15,9.29-9.88,1.91-2.03-4.91-2.65-3.42-1.85c-14.75,12.25-24.15,30.72-24.15,51.4v32.11h133.56v-32.11c0-20.1-8.88-38.11-22.94-50.36Z"/><path class="c" d="M157.46,289.7s.07,.05,.1,.08c.03,.02,.05,.04,.08,.05-.04-.04-.09-.07-.13-.1-.02,0-.03-.02-.05-.03Z"/><path class="c" d="M182.89,288.18h0c.17-.16,.33-.33,.49-.49-.16,.17-.32,.33-.49,.5,0,0-.02,.02-.02,.03,.08-.08,.16-.15,.22-.22,.15-.14,.28-.28,.42-.43-.05,.04-.09,.08-.14,.13-.16,.18-.32,.34-.49,.5Z"/><path class="c" d="M167.87,293.63s.03,0,.05,0c0,0-.02,0-.03,0h-.02Z"/><path class="c" d="M182.1,288.91l.04-.04s-.03,.02-.04,.03h0Z"/><path class="c" d="M171.67,293.54l.06-.02s-.08,0-.12,.02h.06Z"/><path class="c" d="M184.99,285.84c.21-.28,.4-.57,.6-.87-.34,.52-.71,1.02-1.1,1.49,.17-.2,.34-.41,.51-.62Z"/><path class="c" d="M383.03,204.18v15.75c0,.44-.02,.88-.03,1.32h.03c6.87,0,12.45-5.57,12.45-12.45,0-2.17-.56-4.21-1.54-5.98-.56-1.02-1.27-1.94-2.08-2.76l-6.03-3.37-2.79,7.5Z"/><path class="c" d="M322.22,262.25c.5,.22,1,.42,1.51,.62,.05,.02,.09,.04,.14,.05h.02c.31,.13,.63,.25,.94,.36,.42,.15,.84,.29,1.26,.43,.46,.15,.92,.29,1.39,.42,.37,.11,.75,.21,1.12,.31,.35,.09,.69,.18,1.04,.26,.53,.12,1.06,.24,1.59,.34,.63,.12,1.26,.23,1.89,.33,.38,.06,.77,.12,1.16,.16,.58,.07,1.16,.11,1.75,.16,1.16,.09,2.33,.16,3.52,.16,7.01,0,13.64-1.68,19.51-4.63,13.83-6.97,23.44-21.1,23.93-37.53,0-.44,.03-.88,.03-1.32v-39.45c-.7,.35-1.43,.69-2.16,1.01-.26,.12-.53,.24-.79,.35-.34,.15-.69,.29-1.03,.43-26.19,10.87-53.67,1.74-69.51-5.86-5.84-2.8-12.55,.99-13.37,7.17-.05,.42-.08,.86-.08,1.3v35.04c0,16.87,9.61,31.48,23.65,38.69,.63,.32,1.28,.63,1.93,.92,.19,.08,.38,.17,.56,.25Z"/><path class="c" d="M339.4,296.14c10.87,0,19.67-8.81,19.67-19.66v-15.25c-5.87,2.95-12.5,4.63-19.51,4.63-1.19,0-2.36-.07-3.52-.16-.59-.05-1.17-.09-1.75-.16-.5-.06-1-.13-1.5-.21-.52-.08-1.03-.17-1.54-.27-.51-.1-1.02-.2-1.51-.32-.03,0-.05-.01-.08-.02-.15-.03-.31-.06-.46-.1-.2-.05-.39-.11-.58-.16-.12-.03-.25-.06-.37-.09-.25-.07-.5-.15-.75-.22-.47-.13-.93-.28-1.39-.42-.26-.08-.53-.17-.79-.26-.16-.06-.31-.12-.47-.17-.32-.11-.63-.23-.94-.35h0s0,0-.02,0h0s-.09-.05-.14-.06c-.3-.11-.6-.24-.9-.36-.17-.06-.33-.13-.49-.2-.04-.02-.08-.04-.13-.06-.19-.08-.38-.17-.56-.25-.19-.09-.38-.17-.57-.26-.46-.21-.91-.44-1.36-.66v15.41c0,10.86,8.81,19.66,19.66,19.66Z"/><path class="c" d="M322.35,262.3c.16,.08,.32,.15,.49,.2,.3,.12,.59,.24,.9,.36-.51-.2-1.01-.4-1.51-.62,.04,.02,.08,.04,.13,.06Z"/><path class="c" d="M321.66,261.99c-.65-.29-1.29-.6-1.93-.92,.45,.22,.9,.45,1.36,.66,.19,.09,.38,.17,.57,.26Z"/><path class="c" d="M339.56,265.86c-1.19,0-2.36-.07-3.52-.16,1.16,.1,2.33,.16,3.52,.16Z"/><path class="c" d="M323.87,262.93s0,0,.02,0h-.02Z"/><path class="c" d="M325.31,263.45c.26,.09,.53,.17,.79,.26-.42-.14-.84-.28-1.26-.43,.16,.06,.31,.12,.47,.17Z"/><path class="c" d="M328.24,264.35c.12,.03,.25,.06,.37,.09-.38-.1-.75-.2-1.12-.31,.25,.07,.5,.15,.75,.22Z"/><path class="c" d="M329.65,264.7s.05,.01,.08,.02c.5,.12,1.01,.22,1.51,.32,.51,.1,1.03,.19,1.54,.27-.52-.08-1.03-.18-1.54-.28-.53-.1-1.06-.22-1.59-.34Z"/><path class="c" d="M332.79,265.32c.5,.08,.99,.15,1.5,.21-.39-.05-.77-.11-1.15-.17-.11-.02-.23-.03-.35-.05Z"/><path class="c" d="M331.24,265.04c.51,.1,1.03,.19,1.54,.28,.11,.02,.23,.03,.35,.05-.63-.1-1.26-.2-1.89-.33Z"/><path class="c" d="M124.5,307.74l8.99-9.55,1.85-1.96-4.74-2.56-6-3.24c-11.33,10.39-19.04,24.64-21.09,40.66-.36,2.79-.57,5.64-.57,8.54v32.11h51.16l-18.79-40.65-10.8-23.35Z"/><path class="c" d="M214.06,289.72l-.26,.26-.14,.14s-.1,.1-.16,.16l-.24,.24c-.11,.11-.21,.22-.33,.33-1.16,1.18-2.43,2.46-3.59,3.68-.19,.2-.37,.39-.55,.58-.09,.09-.17,.18-.25,.26-.27,.29-.53,.57-.79,.84-.24,.27-.49,.54-.72,.79-.22,.25-.43,.49-.63,.71-.02,.03-.05,.06-.08,.09-.08,.08-.14,.16-.2,.22-.16,.2-.3,.37-.43,.53-.1,.13-.2,.24-.27,.35l7.1,7.54-11.39,24.64-18.21,39.36,4.59-39.36,2.12-18.22,4.14-35.53c-1.54-.6-3.1-1.16-4.7-1.64v.77c0,2.24-.44,3.49-1.23,4.08-.09,.23-.19,.47-.28,.69-.08,.2-.15,.4-.23,.6-.03,.07-.07,.15-.1,.21-.02,.05-.04,.09-.06,.14-.05,.1-.11,.2-.16,.31-.09,.18-.17,.36-.26,.54-.03,.07-.07,.14-.11,.2l-.12,.23c-.2,.35-.4,.69-.61,1.03-.02,.04-.04,.07-.06,.1,0,0,0,0-.02,.02,0,.02-.02,.04-.05,.07h0s-.03,.05-.05,.08c-.04,.05-.08,.1-.11,.16,0,.02-.02,.03-.03,.04-.2,.3-.38,.59-.6,.87-.17,.21-.34,.42-.51,.62-.07,.08-.15,.16-.21,.24l-.02,.02c-.09,.11-.18,.2-.27,.31l-.02,.02s-.03,.04-.05,.06c-.07,.09-.15,.18-.22,.26-.02,0-.03,.03-.05,.05,0,0,0,.02-.02,.03-.03,.03-.07,.06-.1,.1-.14,.15-.27,.29-.42,.43-.07,.08-.15,.15-.22,.22-.03,.02-.05,.04-.06,.06h0c-.06,.06-.11,.11-.17,.16l-.02,.02s-.08,.07-.12,.11c-.06,.06-.13,.12-.2,.18l-.06,.06s-.05,.03-.07,.06c0,0-.03,0-.04,.03l-.04,.04s-.05,.04-.08,.07h0s0,0,0,0t-.02,0c-.11,.1-.21,.19-.32,.26-.04,.05-.09,.09-.14,.12-.03,.03-.07,.05-.1,.08,0,.02-.03,.03-.04,.04-.02,0-.04,.03-.07,.05,0,.01-.02,.01-.02,.02-.02,.01-.04,.03-.06,.04h0v.02s-.03,.03-.04,.03h0l-.02,.02h0c-.14,.11-.26,.21-.4,.31-.11,.08-.22,.15-.34,.22,0,0-.02,.02-.04,.03-.08,.05-.16,.11-.23,.16-.24,.17-.49,.32-.74,.47-.04,.03-.07,.05-.11,.07-.02,.02-.04,.03-.06,.04,0,0-.02,.02-.03,0t-.02,0h0s-.11,.08-.16,.1c-.03,.03-.05,.04-.08,.05,0,.02-.02,.02-.03,0h0s-.08,.07-.12,.08c-.19,.12-.38,.22-.58,.32-.14,.07-.28,.14-.42,.19-.09,.04-.18,.09-.26,.13h0s-.05,.03-.07,.04c-.21,.1-.4,.2-.62,.28h-.03s0,.02,0,.02c-.03,0-.07,.03-.1,.04-.13,.05-.25,.1-.38,.15-.03,0-.06,.03-.09,.04,0,0-.02,0-.03,0-.1,.04-.21,.08-.3,.11-.1,.04-.19,.07-.28,.1-.15,.05-.28,.1-.43,.14-.34,.11-.69,.2-1.04,.29-.35,.09-.71,.17-1.07,.24-.41,.08-.83,.15-1.26,.2,0,0,0,0-.02,0,0,0-.02,0-.03,0h-.03l-.06,.02h-.06s-.05,0-.08,0h-.02s-.02,0-.04,0h-.06c-.1,0-.2,.02-.29,.02-.24,.03-.5,.05-.75,.07h-.06c-.1,0-.2,.02-.29,.02h-.1s-.1,0-.16,0h-.16c-.08,.01-.15,.01-.22,.01h-.16c-.27,0-.55-.01-.82-.02-.04,0-.08,0-.12,0-.08,0-.15,0-.21,0-.04,0-.08,0-.12,0h-.04s-.06,0-.09,0h-.07s-.1,0-.15,0t-.02,0h-.06c-.15,0-.3-.04-.46-.06s-.3-.04-.46-.06c-.07,0-.13,0-.19-.02-.05,0-.09-.02-.14-.02-.03,0-.05,0-.08,0-.14-.02-.26-.04-.39-.06-.03,0-.07,0-.1-.02-.02,0-.03,0-.04,0-.03,0-.06-.02-.09-.02-.22-.05-.45-.09-.67-.14-.18-.05-.36-.09-.54-.14-.03,0-.05,0-.08-.02-.02,0-.04,0-.05,0-.02,0-.05,0-.07-.02,0,0-.03,0-.04,0-.04,0-.09-.02-.13-.03-.02-.01-.04-.01-.06-.02-.04-.02-.08-.03-.12-.04-.04,0-.07-.02-.1-.03,0,0-.03,0-.04,0-.04,0-.08-.02-.12-.04h0s-.09-.02-.14-.04l-.09-.03h-.02c-.11-.04-.21-.07-.31-.11,0,0-.02,0-.03,0-.11-.04-.21-.07-.3-.11-.03,0-.05-.02-.07-.02-.05-.02-.09-.03-.13-.05h0s-.05-.02-.07-.03c-.22-.08-.45-.17-.66-.26-.15-.06-.29-.12-.43-.19,0,0,0-.01,0-.01-.05,0-.09-.03-.14-.06-.03,0-.05-.02-.08-.03-.02-.02-.05-.03-.07-.04-.04,0-.07-.03-.1-.04l-.06-.03-.06-.03c-.2-.1-.39-.2-.59-.29h0s-.02-.02-.03-.02c-.1-.05-.19-.11-.27-.16-.1-.05-.19-.1-.28-.16,0,0-.03,0-.04-.02l-.15-.09c-.06-.03-.12-.07-.18-.1,0,0,0-.02-.02-.02-.02,0-.04-.02-.06-.03-.02-.02-.04-.03-.05-.03-.08-.04-.15-.09-.21-.13-.06-.05-.12-.08-.18-.12h0c-.17-.11-.32-.21-.48-.32t-.02-.01c-.14-.1-.27-.2-.41-.29-.03-.02-.05-.04-.08-.06h-.02s0-.02-.02-.02,0,0,0,0l-.04-.04s-.03-.02-.05-.03c-.03,0-.05-.03-.08-.05-.03-.03-.06-.05-.1-.08l-.03-.03s-.09-.07-.13-.1c-.06-.05-.12-.09-.18-.14-.02,0-.04-.03-.05-.04-.05-.03-.1-.07-.15-.12h0s-.05-.05-.08-.07c-.03-.02-.07-.05-.1-.08-.02,0-.03-.02-.05-.03,0,0,0,0,0,0-.06-.05-.11-.11-.17-.15-2.57-2.22-4.57-5.08-5.73-8.34-.68-.62-1.06-1.9-1.06-4.14v-.58c-2.23,.69-4.39,1.51-6.51,2.43l3.83,32.91,2.31,19.85,4.74,40.65h82.4v-32.11c0-2.92-.19-5.76-.51-8.54-1.95-16.66-9.62-30.87-21.93-41.37Zm-33.64,.49h0Z"/><path class="c" d="M167.6,293.61s0,0,.02,0h0s0,0,0,0Z"/><path class="c" d="M167.83,293.63s.06,0,.09,0c-.02,0-.03,0-.05,0h-.04Z"/><path class="c" d="M169.38,293.69c.08,0,.15,0,.22-.01h-.08s-.1,.01-.15,.01Z"/><path class="c" d="M171.47,293.56s.03,0,.04,0h-.04Z"/><path class="c" d="M241.32,261.66v-62.17c0-39.34-31.9-71.23-71.23-71.23-19.67,0-37.48,7.97-50.38,20.86-12.89,12.89-20.86,30.69-20.86,50.37v62.17l-5.34,69.43h10c2.05-16.02,9.76-30.28,21.09-40.66l-4.92-2.65,23.29-11.63,.25,2.18c2.12-.92,4.29-1.74,6.51-2.43v.58c0,2.24,.38,3.51,1.06,4.14-.46-1.3-.8-2.65-.98-4.04v-19.5s-.09-.04-.14-.06c-.1-.05-.2-.1-.3-.15-14.04-7.21-23.65-21.82-23.65-38.69v-37.92c16.6,9.38,33.98-1.1,43.67-9.54,9.71,9.06,27.08,18.92,43.68,9.54v37.92c0,16.84-9.58,31.43-23.58,38.65v16.6c-.19-.05-.36-.12-.55-.18v.77c0,2.29-.42,4.49-1.13,6.53,.79-.6,1.23-1.85,1.23-4.08v-.77c1.59,.48,3.15,1.04,4.7,1.64l.29-2.48,23.28,11.63s-.35,.34-.94,.92c-.59,.58-1.4,1.39-2.33,2.31,12.31,10.5,19.98,24.71,21.93,41.37h9.2l-3.87-69.43Z"/><path class="c" d="M169.2,261.66c.07,0,.14,0,.21,0s.14,0,.21,0c7.15,0,13.88-1.74,19.82-4.78,.03-.01,.05-.02,.07-.04h0c14-7.22,23.58-21.81,23.58-38.65v-37.92c-16.6,9.38-33.97-.48-43.68-9.54-9.69,8.44-27.07,18.92-43.67,9.54v37.92c0,16.87,9.61,31.49,23.65,38.69,.11,.05,.21,.1,.3,.15,.05,.02,.09,.04,.14,.06,2.92,1.45,6.02,2.61,9.27,3.39s6.63,1.19,10.11,1.19Z"/><path class="c" d="M156.52,288.95c.06,.04,.11,.1,.17,.15,0,0,0,0,0,0,.02,0,.03,.02,.05,.03,.03,.03,.07,.06,.1,.08,.03,.02,.05,.04,.08,.07h0s.1,.09,.15,.12c0,0,.03,.03,.05,.04,.06,.05,.12,.09,.18,.14,.04,.03,.09,.07,.13,.1l.03,.03s.03,.02,.05,.03c.04,.03,.09,.06,.13,.1,.02,0,.03,.02,.05,.03l.04,.04h0l.02,.02h.02s.05,.05,.08,.07c.14,.1,.27,.2,.41,.29t.02,.01c.16,.11,.31,.21,.48,.32h0c.06,.04,.12,.07,.18,.12,.07,.04,.14,.09,.21,.13,0,0,.03,0,.05,.03,.02,0,.04,.03,.06,.03,0,0,0,0,.02,.02,.06,.03,.12,.07,.18,.1l.15,.09s.03,.02,.04,.02c.1,.06,.19,.11,.28,.16,.09,.05,.18,.11,.27,.16,0,0,.02,0,.03,0h0c.2,.11,.39,.2,.59,.3l.06,.03,.06,.03s.06,.03,.1,.04c.02,0,.05,.02,.07,.04,.03,0,.05,.02,.08,.03,.05,.03,.09,.05,.14,.06,0,0,0,.01,0,.01,.14,.07,.28,.13,.43,.19,.21,.1,.44,.19,.66,.26,.02,0,.04,.02,.07,.03h0s.08,.03,.13,.05c.02,0,.04,0,.07,.02,.1,.04,.2,.07,.3,.11,0,0,.02,0,.03,0,.11,.04,.21,.07,.31,.1h.02l.09,.04s.09,.03,.14,.04h0s.08,.03,.12,.04c0,0,.03,0,.04,0,.03,0,.06,.02,.1,.03,.04,0,.08,.02,.12,.04,.03,0,.06,0,.09,.02,.03,0,.07,.02,.1,.03,0,0,.03,0,.04,0,.02,0,.05,0,.07,.02,0,0,.03,0,.05,0,.03,0,.05,.02,.08,.02,.38,.1,.76,.19,1.15,.25,.02,0,.04,0,.06,.02,.03,0,.06,0,.09,.02,0,0,.02,0,.04,0h.03s.04,0,.06,0c.13,.03,.26,.05,.4,.07,.03,0,.05,0,.08,0,.05,0,.09,.01,.14,.02,.06,.01,.12,.02,.19,.02,.16,.02,.3,.04,.46,.06s.31,.05,.46,.06h.06s0,0,0,0c.05,0,.11,0,.16,.02h.13s.02,0,.03,0h.04s.08,0,.12,0c.07,0,.14,0,.21,0,.04,0,.08,0,.12,0,.27,0,.55,.02,.82,.02h.16s.1,0,.15-.01h.08c.1,0,.2,0,.31,0h.1c.1,0,.2,0,.29-.02h.06c.25-.02,.51-.04,.75-.07,.1,0,.2,0,.29-.02h.12s.05-.02,.08-.02c.04,0,.08-.02,.12-.02h.03s.02,0,.03,0c0,0,0,0,.02,0l2.71-.71,2.28-.61h.03c.21-.1,.41-.2,.62-.29,.02,0,.04-.02,.07-.03h0c.09-.05,.18-.1,.26-.14,.19-.09,.37-.19,.56-.28,.19-.1,.37-.2,.56-.3h0s.02,0,.03,0c.03,0,.05-.02,.08-.05,.05-.02,.11-.05,.16-.09h0s0,0,.02-.02c.03-.03,.06-.04,.09-.05,.04-.02,.07-.04,.11-.07,.25-.15,.5-.3,.74-.47,.08-.05,.16-.11,.23-.16,.02,0,.03-.02,.04-.03,.12-.08,.22-.16,.33-.24,.14-.1,.27-.2,.41-.29h0l.02-.02h0s.02-.03,.03-.03h0v-.02s.05-.03,.07-.04c0,0,0,0,.02-.02,.03-.02,.05-.04,.07-.05,0,0,.03-.02,.04-.04,.03-.03,.07-.05,.1-.08,.05-.03,.1-.07,.14-.12,.11-.08,.21-.17,.32-.26t.02,0s0,0,0,0h0l.08-.08s.03-.02,.04-.03c0-.02,.03-.03,.04-.03,.02-.03,.04-.05,.07-.06l.06-.06c.07-.06,.14-.12,.2-.18,.04-.04,.08-.07,.12-.11l.02-.02c.06-.05,.11-.1,.17-.16h0s.03-.04,.06-.06c0,0,0-.02,.02-.03h0c.17-.16,.33-.32,.49-.5,.05-.05,.09-.09,.14-.13,.03-.04,.07-.07,.1-.1,0,0,.02-.02,.02-.03,0,0,.02-.03,.03-.04,.09-.09,.17-.18,.24-.27,.02-.02,.04-.04,.05-.06l.02-.02c.1-.11,.19-.2,.27-.31l.02-.02c.07-.09,.15-.17,.21-.24,.39-.48,.76-.98,1.1-1.49,0,0,.02-.02,.03-.04,.03-.06,.07-.11,.11-.16,.02-.03,.04-.05,.05-.07h0s.04-.06,.05-.08c0,0,.02,0,.02-.02,.02-.03,.04-.06,.06-.1,.2-.33,.41-.67,.61-1.03l.12-.23c.04-.07,.08-.14,.11-.2,.1-.18,.18-.36,.26-.54,.05-.11,.11-.21,.16-.31,.02-.05,.04-.09,.06-.14,.03-.07,.07-.15,.1-.21,.09-.2,.16-.4,.23-.6,.1-.22,.2-.46,.28-.69,.71-2.04,1.13-4.24,1.13-6.53v-.77c.19,.06,.36,.13,.55,.18v-16.6h0s-.04,.03-.07,.04c-5.94,3.05-12.67,4.78-19.82,4.78-.07,0-.14,0-.21,0s-.14,0-.21,0c-3.49,0-6.87-.41-10.11-1.19s-6.35-1.93-9.27-3.39v19.5c.18,1.4,.52,2.74,.98,4.04,1.16,3.26,3.16,6.12,5.73,8.34Z"/><path class="c" d="M169.76,293.68c.06,0,.11,0,.16,0-.11,0-.21,0-.31,0h.16Z"/><path class="c" d="M183.68,287.38c.08-.09,.16-.18,.22-.26-.08,.1-.16,.19-.24,.27,0,0,0,0,.02,0Z"/><path class="c" d="M164.39,293.06c.18,.05,.36,.09,.54,.14,.21,.05,.41,.09,.62,.12-.39-.07-.77-.16-1.15-.25Z"/><path class="c" d="M164.93,293.2c.22,.05,.45,.09,.67,.14-.02,0-.04-.02-.06-.02-.21-.03-.41-.07-.62-.12Z"/><path class="c" d="M165.83,293.39c.13,.02,.25,.04,.39,.06-.14-.02-.27-.04-.4-.07h0Z"/><path class="c" d="M167.61,293.62s.1,0,.15,0c-.05,0-.11,0-.16-.02h0Z"/><path class="c" d="M163.97,292.96s.04,0,.06,.02h.03s-.06-.02-.09-.02Z"/><path class="c" d="M164.03,292.98s.09,.02,.13,.03c-.03,0-.07-.02-.1-.03h-.03Z"/><path class="c" d="M165.76,293.37s.05,.02,.07,.02h0s-.04-.02-.06-.02Z"/><path class="c" d="M171.8,293.51c.43-.05,.85-.12,1.26-.2,.36-.08,.72-.16,1.07-.24,.35-.09,.7-.19,1.04-.29,.15-.04,.28-.09,.43-.14,.1-.03,.19-.06,.28-.1,.1-.03,.2-.07,.3-.11t0,0s.08-.02,.11-.04c.13-.05,.25-.1,.38-.15,.03-.01,.07-.03,.1-.04l-2.27,.6-2.71,.71Z"/><path class="c" d="M176.23,292.43s.06-.03,.09-.04c-.03,.02-.07,.03-.11,.04h.02Z"/><path class="c" d="M176.2,292.44s.02,0,.03,0h-.02s0,0,0,0Z"/><path class="c" d="M182.03,288.98s.05-.05,.08-.07h0l-.08,.07Z"/><path class="c" d="M178.34,291.45c-.19,.1-.37,.2-.56,.28,.14-.05,.28-.12,.42-.19,.2-.1,.39-.2,.58-.32,.04,0,.08-.04,.12-.08-.14,.09-.28,.17-.43,.24-.04,.02-.09,.04-.13,.06Z"/><path class="c" d="M178.47,291.39c.15-.08,.29-.16,.43-.24-.19,.11-.37,.2-.56,.3,.04-.02,.09-.04,.13-.06Z"/><path class="c" d="M179.23,290.97s.04-.02,.06-.04c-.03,0-.06,.02-.09,.05,0,0,.02,0,.03,0Z"/><path class="c" d="M183.64,287.43s.03-.04,.05-.05c0,0,0,0-.02,0,0,0-.02,.03-.03,.04Z"/><path class="c" d="M180.41,290.21c.12-.08,.23-.15,.34-.22,.14-.1,.26-.2,.4-.31-.14,.1-.27,.2-.41,.29-.11,.09-.21,.17-.33,.24Z"/><path class="c" d="M181.2,289.66s.02,0,.03-.03c0,0-.02,0-.03,.02h0Z"/><polygon class="c" points="147.04 311.24 143.22 278.33 142.96 276.15 119.67 287.78 124.59 290.43 130.59 293.67 135.34 296.23 133.49 298.19 124.5 307.74 135.3 331.09 154.09 371.74 149.36 331.09 147.04 311.24"/><path class="c" d="M187.49,331.09l-4.59,39.36,18.21-39.36,11.39-24.64-7.1-7.54c.08-.11,.18-.22,.27-.35,.13-.16,.27-.33,.43-.53,.06-.07,.12-.15,.2-.22,.03-.04,.07-.09,.11-.14l.05-.05s.07-.08,.11-.13c.08-.1,.17-.2,.26-.3,.05-.06,.1-.12,.16-.18,1.1-1.25,2.48-2.68,3.73-3.96,.15-.15,.28-.29,.43-.43,.24-.25,.47-.48,.69-.7,.16-.17,.33-.33,.48-.47,.06-.07,.12-.13,.18-.18,.06-.07,.12-.13,.17-.17,.06-.07,.12-.13,.17-.18s.1-.1,.15-.14l.28-.27,.24-.24c.06-.06,.11-.11,.16-.16l.14-.14c.08-.09,.15-.16,.2-.2l.07-.07c.94-.93,1.75-1.74,2.33-2.31,.59-.58,.94-.92,.94-.92l-23.28-11.63-.29,2.48-4.14,35.53-2.12,18.22Z"/><path class="c" d="M211.84,291.92c-.22,.22-.45,.45-.69,.7,.11-.11,.2-.21,.31-.31,.13-.13,.25-.26,.38-.39Z"/><path class="c" d="M212.66,291.11s-.11,.1-.17,.17c-.06,.05-.12,.11-.18,.18l-1.17,1.17c-.15,.14-.28,.28-.43,.43-1.25,1.28-2.63,2.71-3.73,3.96-.11,.12-.21,.23-.3,.35,.11-.12,.21-.23,.33-.36,.23-.25,.48-.52,.72-.79,.26-.27,.52-.55,.79-.84,.09-.09,.17-.18,.25-.26,.18-.19,.36-.38,.55-.58,1.16-1.22,2.43-2.5,3.59-3.68-.03,.03-.06,.05-.1,.08-.05,.05-.11,.11-.17,.18Z"/><path class="c" d="M206.41,297.67s-.02,.03-.03,.05c.03-.03,.06-.06,.08-.1l-.05,.05Z"/><path class="c" d="M206.99,297.02c-.06,.06-.11,.12-.16,.18-.1,.11-.19,.2-.26,.3,.01-.02,.04-.04,.05-.06,.12-.14,.24-.28,.37-.42Z"/><path class="c" d="M212.92,290.86c.12-.11,.22-.22,.33-.33l-.28,.27s-.03,.03-.05,.06Z"/><path class="c" d="M206.46,297.62s-.05,.07-.08,.1c.2-.22,.41-.46,.63-.71-.12,.13-.22,.24-.33,.36-.09,.09-.16,.18-.22,.25Z"/><path class="c" d="M206.57,297.5s-.08,.09-.11,.13c.05-.06,.11-.12,.16-.19-.02,.02-.04,.04-.05,.06Z"/><path class="c" d="M206.31,297.81s.06-.06,.08-.09c0-.02,.02-.04,.03-.05-.04,.05-.08,.1-.11,.14Z"/><path class="c" d="M206.69,297.37c.09-.12,.2-.23,.3-.35-.13,.14-.25,.28-.37,.42,.02-.02,.04-.05,.06-.07Z"/><path class="c" d="M206.62,297.44c-.05,.06-.11,.13-.16,.19,.07-.08,.14-.17,.22-.25-.03,.02-.04,.04-.06,.07Z"/><path class="c" d="M211.84,291.92c-.12,.13-.25,.25-.38,.39-.11,.1-.21,.2-.31,.31l1.17-1.17c-.16,.14-.32,.31-.48,.47Z"/><path class="c" d="M212.83,290.93s.07-.05,.1-.08c.02-.03,.03-.05,.05-.06-.05,.04-.1,.09-.15,.14Z"/><polygon class="c" points="305.42 292.72 303.51 294.75 294.21 304.64 305.38 328.79 324.82 370.84 319.92 328.79 317.53 308.26 314.01 278 313.57 274.21 313.31 271.97 289.21 284 294.3 286.73 297.09 288.23 300.51 290.08 305.42 292.72"/><path class="c" d="M359.37,328.79l-4.75,40.72,18.83-40.72,11.79-25.49-7.34-7.79c.08-.12,.18-.23,.28-.36,.13-.17,.28-.35,.44-.55,.06-.07,.13-.16,.21-.23,.03-.04,.07-.09,.11-.14,0-.02,.03-.04,.05-.06,.03-.04,.08-.08,.12-.13,.08-.1,.17-.2,.27-.31,.05-.06,.1-.13,.16-.19,1.14-1.29,2.57-2.77,3.86-4.1,.06-.06,.12-.11,.17-.17,.1-.09,.19-.19,.28-.27,.11-.12,.21-.22,.32-.32,.31-.32,.61-.63,.89-.89,.06-.08,.12-.14,.19-.19,.06-.07,.12-.13,.17-.18,.06-.07,.13-.13,.18-.18s.1-.11,.15-.15l.29-.28c.1-.1,.18-.19,.25-.25,.06-.07,.11-.12,.17-.16,.05-.05,.1-.1,.14-.15,.08-.09,.16-.16,.21-.2l.07-.07c.97-.97,1.81-1.81,2.41-2.4s.98-.95,.98-.95l-24.09-12.03-.3,2.57-.56,4.75-3.73,31.99-2.19,18.84Z"/><path class="c" d="M296.09,187.32c0-.43,.03-.86,.08-1.28,.83-6.42,7.74-10.4,13.86-7.6,30.48,13.96,52.92,12.9,69.02,6.29,.34-.14,.69-.28,1.03-.43,.27-.11,.53-.23,.79-.35,.72-.33,1.44-.66,2.16-1.01v15.88c.97,0,1.89,.12,2.79,.32,2.33,.53,4.4,1.73,6.03,3.37l.04,.02s41.53-82.48-67.07-54.86c0,0-11.14-15.53-28.73-2.08,0,0-15.49,6.21-12.05,42.77s12.05,30.22,12.05,30.22v-31.26Z"/><path class="c" d="M385.82,196.68l6.03,3.37c-1.63-1.64-3.7-2.84-6.03-3.37Z"/><path class="c" d="M383.03,196.36v7.82l2.79-7.5c-.9-.2-1.83-.32-2.79-.32Z"/><path class="c" d="M380.87,181.49c-.26,.12-.52,.24-.79,.35,.26-.11,.53-.23,.79-.35Z"/><path class="c" d="M310.03,178.44c-6.11-2.8-13.02,1.18-13.86,7.6,.82-6.18,7.53-9.98,13.37-7.17,15.84,7.6,43.32,16.73,69.51,5.86-16.1,6.61-38.55,7.68-69.02-6.29Z"/></g></g><g id="b"/></svg>