<?xml version="1.0" encoding="UTF-8"?><svg id="Laag_1" xmlns="http://www.w3.org/2000/svg" viewBox="0 0 500 500"><defs><style>.cls-1{fill:none;stroke:#5f4a8a;stroke-linecap:round;stroke-linejoin:round;stroke-width:8px;}</style></defs><path class="cls-1" d="M378.04,99.8s-60.19,16.41-49.24,86.76c10.94,70.35-71.58,89.95-71.58,89.95"/><path class="cls-1" d="M146.47,125.48c-9.61,9.37-16.86,21.47-20.56,34.6-5.91,21.01-4.36,43.41-.75,64.94,7.5,44.74,23.84,88.1,48.69,126.06,8.87,13.54,19,26.58,32.14,36.04,13.14,9.46,29.68,15.06,45.66,12.43,12.29-2.02,23.34-8.67,33.25-16.22,9.8-7.46,19.38-16.93,21.2-29.11,1.32-8.8-1.64-17.61-2.8-26.44s.17-19.15,7.48-24.23c9.52-6.62,24.82-1.34,32.6-9.93,4.78-5.28,4.13-13.89,.23-19.84-2.26-3.43-6.16-6.45-10.17-5.51-2.52,.59-4.42,2.58-6.59,4.01-10.12,6.66-24.37,.19-35.51,4.96-9.97,4.27-14.17,15.86-17.33,26.23-5.22-14.56-15.04-27.42-27.69-36.31,12.76-8.43,22.39-21.47,26.69-36.15,1.55-5.3,1.19-12.87-4.19-14.13-3.88-.91-7.36,2.38-10.07,5.3-7.91,8.54-16.75,16.59-27.46,21.14s-23.65,5.13-33.62-.88c10.64-.54,22.55-1.68,29.43-9.81,6.12-7.24,6.18-17.6,7.13-27.03,1.25-12.47,4.57-24.65,6.1-37.09s1.14-25.6-4.61-36.74c-6.04-11.7-17.67-20.05-30.41-23.35-22.35-5.79-43.56,2.19-58.83,17.07Z"/></svg>