<?xml version="1.0" encoding="UTF-8"?><svg id="Laag_1" xmlns="http://www.w3.org/2000/svg" viewBox="0 0 500 500"><defs><style>.cls-1{fill:none;stroke:#eb91a1;stroke-linecap:round;stroke-linejoin:round;stroke-width:8px;}</style></defs><path class="cls-1" d="M273.79,93.79c-14.28,0-27.07,6.34-35.73,16.35-4.08-6.84-11.56-11.43-20.11-11.43-12.93,0-23.4,10.48-23.4,23.4s10.48,23.4,23.4,23.4c3.08,0,6.02-.6,8.71-1.68,1.47,24.76,22,44.38,47.13,44.38s47.22-21.14,47.22-47.22-21.14-47.22-47.22-47.22Z"/><path class="cls-1" d="M339.33,294.08c0,2.62-.35,5.17-1,7.58-17.06,8.31-20.62,10.1-40.41,18.87-9.98-4.63-16.89-14.74-16.89-26.46,0-16.1,13.05-29.15,29.15-29.15s29.15,13.05,29.15,29.15Z"/><path class="cls-1" d="M278.56,329.8l-71.03,29.56s-21.35-3.28-2.05-50.5l-25.66-6.27c-4.87-1.19-7.97-5.97-7.07-10.9l.02-.13c.96-5.26,6.08-8.67,11.3-7.55l33.08,7.12c10.07,2.17,15.84,13.12,11.5,22.46-.2,.43-.41,.84-.65,1.23l20.87-6.78s-10.99-28.4,6.11-46.81l14.71-14.53c3.76-3.71,9.82-3.63,13.48,.17h0c3.56,3.7,3.52,9.56-.09,13.21l-8.31,8.42c-5.87,5.95-9.26,14-9.05,22.35,.12,5.16,1.59,10.8,5.84,15.88,12,14.35,6.99,23.07,6.99,23.07Z"/><path class="cls-1" d="M228.78,186.84c-2.76-2.53-6.34-4.04-10.08-4.16-13.15-.43-43.5,2.43-59.71,35.22-21.08,42.63-37.47,92.28-37.47,92.28h0c-2.51,7.8,.35,16.33,7.05,21.04l27.54,19.37c2.27,1.6,3.25,4.49,2.4,7.14l-13.93,43.71c-.75,2.36,1.01,4.77,3.49,4.77h220.52c1.93,0,3.25-1.94,2.55-3.74l-15.84-40.61c-.54-1.39-2.1-2.09-3.5-1.58l-47.2,17.35c-2.84,1.04-5.99-.35-7.13-3.14h0c-1.19-2.91,.24-6.22,3.17-7.36l59.14-22.93c15.3-5.93,23.24-22.85,18.02-38.41l-28.36-84.62c-4.16-12.41-22.66-36.25-35.4-33.26h0s-39.51,40.85-85.26-1.08Z"/></svg>