<?xml version="1.0" encoding="UTF-8"?><svg id="a" xmlns="http://www.w3.org/2000/svg" viewBox="0 0 500 500"><defs><style>.b{fill:none;stroke:#14a2ad;stroke-linecap:round;stroke-linejoin:round;stroke-width:8px;}</style></defs><circle class="b" cx="249.39" cy="209.26" r="36.25"/><ellipse class="b" cx="127.85" cy="213.86" rx="25.95" ry="36.25"/><ellipse class="b" cx="371.29" cy="213.86" rx="25.95" ry="36.25"/><polyline class="b" points="189 326.99 189 306.07 311.18 306.07 311.18 326.94"/><path class="b" d="M265.62,260.5h-31.05c-18.21,0-33.92,10.69-41.22,26.13h12.4c5.18,0,9.7,3.91,10.03,9.07,.37,5.66-4.12,10.36-9.7,10.36h87.83c-5.58,0-10.06-4.7-9.7-10.36,.33-5.17,4.85-9.07,10.03-9.07h12.58c-7.29-15.44-23-26.13-41.22-26.13Z"/><path class="b" d="M141.48,318.66l.07-17.89,6.59,5.31h57.95c5.58,0,10.06-4.7,9.7-10.36-.33-5.17-4.85-9.07-10.03-9.07h-18.4l-39.21-13.31-4.91-2.71c-4.93-2.72-10.47-4.14-16.1-4.14h0c-18.27,0-33.09,14.81-33.09,33.09v19.09"/><path class="b" d="M358.52,318.66l-.07-17.89-6.59,5.31h-57.95c-5.58,0-10.06-4.7-9.7-10.36,.33-5.17,4.85-9.07,10.03-9.07h18.4l39.21-13.31,4.91-2.71c4.93-2.72,10.47-4.14,16.1-4.14h0c18.27,0,33.09,14.81,33.09,33.09v19.09"/></svg>