<?xml version="1.0" encoding="UTF-8"?><svg id="Laag_1" xmlns="http://www.w3.org/2000/svg" viewBox="0 0 500 500"><defs><style>.cls-1{fill:none;stroke:#5f4a8a;stroke-linecap:round;stroke-linejoin:round;stroke-width:8px;}</style></defs><path class="cls-1" d="M215.38,102.55s-3.09,47.38-15.45,80.85c-12.36,33.47-3.09,100.42,31.41,122.56"/><path class="cls-1" d="M370.9,102.55s-4.42,43.26,25.23,88.57c15.31,23.4,14.81,50.64,10.74,71.52-3.14,16.13-10.3,42.52-20.35,55.52-7.9,10.22-17.55,26.82-15.86,45.48,2.81,30.9-.66,43.38-.66,43.38l-99.01-2.06"/><path class="cls-1" d="M249.37,325.8s31.93-24.2,5.66-72.61c-26.26-48.41,8.24-64.89,44.29-53.04,36.05,11.84,53.04,120.5-4.63,157.58"/><path class="cls-1" d="M321.7,221.21s10.37,4.89,18.46,0"/><ellipse class="cls-1" cx="352.51" cy="208.53" rx="17.75" ry="14.24" transform="translate(-44.21 310.34) rotate(-45)"/><circle class="cls-1" cx="288.26" cy="324.43" r="12.51"/><line class="cls-1" x1="244.07" y1="362.34" x2="278.56" y2="332.32"/><rect class="cls-1" x="217.13" y="355.91" width="20.62" height="40.45" transform="translate(370.49 -39.49) rotate(50.15)"/><path class="cls-1" d="M90.69,346.26s80.08,21.33,82.33-21.33c2.25-42.66-65.67-45.33-47.94,38.54,17.73,83.87,75.78,36.08,85.66,24.21"/></svg>