<?xml version="1.0" encoding="UTF-8"?><svg id="Laag_1" xmlns="http://www.w3.org/2000/svg" viewBox="0 0 500 500"><defs><style>.cls-1{fill:none;stroke:#eb91a1;stroke-linecap:round;stroke-linejoin:round;stroke-width:8px;}</style></defs><circle class="cls-1" cx="224.94" cy="180.26" r="32.3"/><path class="cls-1" d="M274.23,163.08l9.15,9.15c2.71,2.71,2.71,7.09,.01,9.81l-27.46,27.61c-12.99,13.06-12.99,34.15,0,47.21l41.99,42.24c16.51,16.61,44.85,8.3,49.78-14.59l6.62-30.74c.75-3.47,4.27-5.58,7.68-4.61l29.52,8.38c7.06,2,14.4-2.1,16.39-9.16l.41-1.45c1.95-6.91-1.95-14.13-8.81-16.27l-57.92-18.1c-7.86-2.46-16.03,2.76-17.11,10.93l-2.33,17.61-29.79-28.53,22.33-22.33c6.87-6.87,6.81-18.03-.13-24.83l-21.65-21.19c-5.42-5.3-14.16-5-19.2,.67h0c-4.67,5.25-4.43,13.23,.53,18.2Z"/><path class="cls-1" d="M91.18,244.3h102.2c14.09,0,27.63,5.47,37.76,15.27l53.15,51.39c5.46,5.28,5.22,14.12-.53,19.09h0c-4.95,4.29-12.33,4.19-17.17-.22l-28.68-26.1c-2.13-1.94-5.35-2.03-7.59-.23h0c-2.81,2.27-2.91,6.52-.21,8.92l30.01,26.6c8.81,7.81,22.09,7.72,30.78-.22l9.23-8.42c3.44-3.13,7.92-4.87,12.57-4.87h52.51c9.4,0,17.03,7.62,17.03,17.03h0c0,9.4-7.62,17.03-17.03,17.03h-107.26c-10.95,0-21.57-3.75-30.1-10.62l-46.55-37.5c-10.17-8.19-22.83-12.66-35.89-12.66h-54.22"/></svg>