<svg xmlns="http://www.w3.org/2000/svg" width="20.184" height="19.249" viewBox="0 0 20.184 19.249">
  <g id="Icon_feather-linkedin" data-name="Icon feather-linkedin" transform="translate(0.75 0.75)">
    <path id="Path_2" data-name="Path 2" d="M20.605,12a5.605,5.605,0,0,1,5.605,5.605v6.539H22.473V17.605a1.868,1.868,0,1,0-3.737,0v6.539H15V17.605A5.605,5.605,0,0,1,20.605,12Z" transform="translate(-7.527 -6.395)" fill="none" stroke="#18a2ad" stroke-linecap="round" stroke-linejoin="round" stroke-width="1.5"/>
    <path id="Path_3" data-name="Path 3" d="M3,13.5H6.737V24.71H3Z" transform="translate(-3 -6.961)" fill="none" stroke="#18a2ad" stroke-linecap="round" stroke-linejoin="round" stroke-width="1.5"/>
    <path id="Path_4" data-name="Path 4" d="M6.737,4.868A1.868,1.868,0,1,1,4.868,3,1.868,1.868,0,0,1,6.737,4.868Z" transform="translate(-3 -3)" fill="none" stroke="#18a2ad" stroke-linecap="round" stroke-linejoin="round" stroke-width="1.5"/>
  </g>
</svg>
