<svg xmlns="http://www.w3.org/2000/svg" width="19.639" height="19.639" viewBox="0 0 19.639 19.639">
  <g id="Icon_feather-instagram" data-name="Icon feather-instagram" transform="translate(0.75 0.75)">
    <path id="Path_7" data-name="Path 7" d="M7.535,3H16.6a4.535,4.535,0,0,1,4.535,4.535V16.6A4.535,4.535,0,0,1,16.6,21.139H7.535A4.535,4.535,0,0,1,3,16.6V7.535A4.535,4.535,0,0,1,7.535,3Z" transform="translate(-3 -3)" fill="none" stroke="#18a2ad" stroke-linecap="round" stroke-linejoin="round" stroke-width="1.5"/>
    <path id="Path_8" data-name="Path 8" d="M19.281,15.031a3.628,3.628,0,1,1-3.056-3.056,3.628,3.628,0,0,1,3.056,3.056Z" transform="translate(-6.584 -6.532)" fill="none" stroke="#18a2ad" stroke-linecap="round" stroke-linejoin="round" stroke-width="1.5"/>
    <path id="Path_9" data-name="Path 9" d="M26.25,9.75h0" transform="translate(-12.192 -5.669)" fill="none" stroke="#18a2ad" stroke-linecap="round" stroke-linejoin="round" stroke-width="1.5"/>
  </g>
</svg>
