<svg xmlns="http://www.w3.org/2000/svg" width="22.052" height="18.443" viewBox="0 0 22.052 18.443">
  <g id="Icon_feather-twitter" data-name="Icon feather-twitter" transform="translate(0.75 0.82)">
    <path id="Icon_feather-twitter-2" data-name="Icon feather-twitter" d="M22.052,4.494a10.183,10.183,0,0,1-2.933,1.429,4.185,4.185,0,0,0-7.343,2.8V9.66A9.958,9.958,0,0,1,3.368,5.428S-.368,13.836,8.039,17.573A10.874,10.874,0,0,1,1.5,19.441c8.408,4.671,18.684,0,18.684-10.743a4.2,4.2,0,0,0-.075-.775,7.212,7.212,0,0,0,1.943-3.428Z" transform="translate(-1.5 -4.485)" fill="none" stroke="#18a2ad" stroke-linecap="round" stroke-linejoin="round" stroke-width="1.5"/>
  </g>
</svg>
