<?xml version="1.0" encoding="UTF-8"?><svg id="a" xmlns="http://www.w3.org/2000/svg" viewBox="0 0 500 500"><defs><style>.b{fill:none;stroke:#14a2ad;stroke-linecap:round;stroke-linejoin:round;stroke-width:8px;}</style></defs><line class="b" x1="94.21" y1="214.24" x2="94.21" y2="403.23"/><line class="b" x1="405.79" y1="360.32" x2="94.21" y2="360.32"/><path class="b" d="M405.79,403.23v-58.66c0-22.61-18.33-40.94-40.94-40.94H94.21"/><path class="b" d="M94.21,264.11s82.07-10.23,82.07,39.51"/><line class="b" x1="317.77" y1="303.63" x2="317.77" y2="95.64"/><line class="b" x1="317.77" y1="404.36" x2="317.77" y2="360.32"/><polyline class="b" points="267.57 125.39 267.57 95.64 367.33 95.64 367.33 125.39"/><path class="b" d="M250,125.39h37.97v41.14c0,10.48-8.51,18.98-18.98,18.98h0c-10.48,0-18.98-8.51-18.98-18.98v-41.14h0Z"/><path class="b" d="M348.35,125.39h37.97v41.14c0,10.48-8.51,18.98-18.98,18.98h0c-10.48,0-18.98-8.51-18.98-18.98v-41.14h0Z"/><line class="b" x1="287.97" y1="404.36" x2="348.35" y2="404.36"/><polyline class="b" points="95.47 168.03 120.79 168.03 137.67 106.84 172.48 203.37 190.42 145.34 221.54 145.34"/></svg>