<?xml version="1.0" encoding="UTF-8"?><svg id="a" xmlns="http://www.w3.org/2000/svg" viewBox="0 0 500 500"><defs><style>.b{fill:none;stroke:#14a2ad;stroke-linecap:round;stroke-linejoin:round;stroke-width:8px;}</style></defs><line class="b" x1="243.05" y1="116.82" x2="257" y2="116.82"/><path class="b" d="M409.33,397.07s3.3-85.32-21.17-150.81c-17.19-41.66-10.58-54.23-22.49-70.11s-51.59-13.89-71.43-31.09c-14.02-11.79-15.21-25.13-15.21-25.13l-1.7-21.31"/><path class="b" d="M335.25,397.07s-17.86-67.46,0-142.2c0,0,29.76,5.96,37.03,142.2"/><path class="b" d="M130.87,397.07s7.27-111.12,29.11-145.51c0,0,22.49,84.66,.65,145.51"/><path class="b" d="M220.3,98.63l-2.79,23.95s-.72,17.66-17.86,23.82c-23.15,7.94-54.24,6.61-69.45,35.05-15.21,28.44-9.26,42.99-21.16,71.43-11.91,28.44-18.52,144.19-18.52,144.19"/><path class="b" d="M243.05,113.05v44.13s-21.92,6.53-24.62,19.01-9.4,34.4-21.38,41.4"/><path class="b" d="M257,113.05v44.13s21.92,6.53,24.62,19.01,9.4,34.4,21.38,41.4"/><line class="b" x1="243.05" y1="128.77" x2="257" y2="128.77"/><line class="b" x1="243.05" y1="142.62" x2="257" y2="142.62"/><path class="b" d="M243.05,148.57s-6.55-1.96-19.01,7.39-23.73,5.42-31.17,22.15-11.46,36.27-10.88,59.75,13.16,1.53,13.16,1.53c0,0,7.84-14.13,23.12-15.85s22.15-32.37,23.87-51.13"/><path class="b" d="M250.02,168.63s-21.38,7.56-25.98,26.02"/><path class="b" d="M257.04,148.57s6.55-1.96,19.01,7.39c12.46,9.34,23.73,5.42,31.17,22.15s11.46,36.27,10.88,59.75c-.57,23.48-13.16,1.53-13.16,1.53,0,0-7.84-14.13-23.12-15.85s-22.15-32.37-23.87-51.13"/><path class="b" d="M250.67,168.63s20.69,7.56,25.98,26.02"/><path class="b" d="M205.18,177.47s9.01-5.89,13.98-3.58"/><path class="b" d="M200.4,192.43s9.88-5.94,13.94-2.58"/><path class="b" d="M197.05,204.91s6.12-2.57,10.05,0"/><path class="b" d="M295.55,177.47s-9.01-5.89-13.98-3.58"/><path class="b" d="M300.33,192.43s-9.88-5.94-13.94-2.58"/><path class="b" d="M303.69,204.91s-6.12-2.57-10.05,0"/><path class="b" d="M258.14,395.02s.02-18.9,15.06-30.11,17.44-13.04,17.26-33.41,2.12-34.5-19.46-29.56c-18.36,2.02-12.3-2.57-35.07-2.57s-28.87,8.58-31.4,19.46c-2.21,9.49-10.83,34.98,21.66,81.7"/><path class="b" d="M248.08,384.65s-7.13,7.59,.96,12.42c.96,5.57,11.28,16.61,19.54,0,0,0,10.06-2.92,8.75-10.74,0,0,9.45-1.44,7.41-10.77,0,0,16.28-.72,14.25-13.05,0,0,11.49-7.42,4.55-18.68,0,0,12.45-12.45-.84-20.35,0,0,19.03-9.76,3.82-22.54,0,0,1.81-21.11-22.25-12.81,0,0-15.4-12.29-27.22,2.91,0,0-16.48-19.63-33.12-.72,0,0-23.43-12.33-23.86,12.27,0,0-21.56,5.06-8.49,23.38,0,0-14.74,9.72-.62,23.95,0,0-9.87,13.46,4.91,20.26,0,0-10.95,11.69,7.84,16.47,0,0,2.69,16.75,18.24,7.52,0,0,14.27-5.05,2.29-20.36,0,0,5.99-14.99-7.76-20.23,0,0,10.28-12.12-1.15-22.1,0,0,13.92-7.35,8.42-18.02,0,0,18.04,9.23,24.88,.03,0,0,8.43,10.02,19.51,5.55,0,0-6.43,13.8,4.09,24.93,0,0-13.24,1.06-12.69,17.22,0,0-18.07,3.37-11.44,23.46Z"/></svg>