<?xml version="1.0" encoding="UTF-8"?><svg id="Laag_1" xmlns="http://www.w3.org/2000/svg" viewBox="0 0 500 500"><defs><style>.cls-1{fill:none;stroke:#eb91a1;stroke-linecap:round;stroke-linejoin:round;stroke-width:8px;}</style></defs><g><path class="cls-1" d="M162.37,287.35s131.1,17.01,175.64-2.5"/><g><line class="cls-1" x1="304.2" y1="281.65" x2="304.2" y2="305.66"/><line class="cls-1" x1="277.1" y1="281.65" x2="277.1" y2="305.66"/><line class="cls-1" x1="250" y1="281.65" x2="250" y2="305.66"/><line class="cls-1" x1="222.9" y1="281.65" x2="222.9" y2="305.66"/><line class="cls-1" x1="195.8" y1="281.65" x2="195.8" y2="305.66"/></g><polyline class="cls-1" points="212.71 331.09 249 353.08 288.16 331.09"/><line class="cls-1" x1="249" y1="405.91" x2="249" y2="353.08"/><path class="cls-1" d="M144.57,95.27s4.61,56.51-3.95,88.1c-8.56,31.6-48.71,93.98-42.13,227.61"/><path class="cls-1" d="M355.7,95.27s-4.61,56.51,3.95,88.1c8.56,31.6,48.71,93.98,42.13,227.61"/></g><circle class="cls-1" cx="249" cy="250.29" r="9.07"/></svg>