<?xml version="1.0" encoding="UTF-8"?><svg id="a" xmlns="http://www.w3.org/2000/svg" viewBox="0 0 500 500"><defs><style>.b{fill:none;stroke:#14a2ad;stroke-linecap:round;stroke-linejoin:round;stroke-width:8px;}</style></defs><line class="b" x1="97.64" y1="215.03" x2="97.64" y2="399.86"/><line class="b" x1="402.36" y1="357.89" x2="97.64" y2="357.89"/><path class="b" d="M402.36,399.86v-57.37c0-22.11-17.93-40.04-40.04-40.04H97.64"/><path class="b" d="M97.64,263.8s80.26-10.01,80.26,38.64"/><line class="b" x1="316.28" y1="302.44" x2="316.28" y2="99.03"/><line class="b" x1="316.28" y1="400.97" x2="316.28" y2="357.89"/><polyline class="b" points="267.18 128.13 267.18 99.03 364.75 99.03 364.75 128.13"/><path class="b" d="M250,128.13h37.13v40.23c0,10.25-8.32,18.57-18.57,18.57h0c-10.25,0-18.57-8.32-18.57-18.57v-40.23h0Z"/><path class="b" d="M346.18,128.13h37.13v40.23c0,10.25-8.32,18.57-18.57,18.57h0c-10.25,0-18.57-8.32-18.57-18.57v-40.23h0Z"/><line class="b" x1="287.13" y1="400.97" x2="346.18" y2="400.97"/></svg>