<?xml version="1.0" encoding="UTF-8"?><svg id="a" xmlns="http://www.w3.org/2000/svg" viewBox="0 0 500 500"><defs><style>.b{stroke-linecap:round;stroke-linejoin:round;stroke-width:8px;}.b,.c{fill:none;stroke:#14a2ad;}.c{stroke-miterlimit:10;}</style></defs><path class="c" d="M261.54,346.39h.02c.07,.03,.13,.05,.2,.07-.07-.02-.13-.05-.2-.07t-.02-.01s-.07-.01-.1-.02c-.11-.03-.22-.05-.33-.08,.11,.03,.22,.05,.33,.09,.03,.01,.07,.02,.11,.03Z"/><path class="c" d="M314.09,312.78c-.05-.03-.11-.06-.16-.09h0s.1,.06,.16,.1c.14,.08,.28,.17,.43,.25,.05,.03,.1,.05,.14,.08-.05-.03-.1-.05-.15-.08-.14-.08-.29-.17-.43-.25Z"/><path class="c" d="M299.17,297.13c.06,.11,.12,.23,.18,.34-.07-.14-.15-.28-.22-.43,.01,.03,.03,.06,.04,.08Z"/><path class="c" d="M264.26,347.52s-.03-.02-.04-.03c-.1-.06-.21-.11-.33-.16-.1-.05-.2-.09-.3-.14,.21,.1,.42,.19,.63,.3,.02,0,.03,.02,.05,.03Z"/><path class="c" d="M260.04,346.03s.09,.02,.13,.02c.03,0,.05,0,.08,.01-.03,0-.05-.01-.07-.02-.05,0-.09-.01-.14-.02-.17-.03-.34-.06-.52-.08-.17-.03-.34-.06-.52-.08-.09,0-.18-.02-.27-.03,.09,0,.18,.02,.27,.03,.35,.04,.7,.09,1.04,.16Z"/><path class="c" d="M298.29,295.41c-.56-1.22-1.06-2.48-1.5-3.77,.22,.64,.44,1.28,.7,1.9,.25,.63,.52,1.26,.8,1.87,.08,.17,.16,.33,.25,.48,.08,.16,.17,.33,.25,.48,.02,.04,.05,.08,.07,.13-.02-.04-.05-.09-.07-.13-.16-.32-.34-.63-.5-.97Z"/><path class="c" d="M296.46,290.64c.1,.32,.2,.63,.31,.94-.18-.54-.34-1.08-.5-1.63,.07,.23,.12,.47,.19,.7Z"/><path class="c" d="M299.66,298.07v-.02s0,.02,0,.03c.02,.03,.06,.08,.08,.12,.18,.3,.35,.62,.54,.92,.07,.11,.14,.24,.2,.36,.15,.24,.29,.47,.45,.71,.1,.16,.2,.32,.31,.48-.53-.81-1.03-1.63-1.51-2.48-.02-.04-.05-.08-.08-.12Z"/><path class="c" d="M313.16,312.22c-.12-.08-.23-.15-.35-.22-.16-.1-.32-.2-.48-.3-.18-.12-.35-.23-.53-.35-.03-.02-.06-.04-.09-.06-.08-.06-.15-.11-.23-.16-.23-.16-.45-.33-.68-.48-.07-.05-.14-.1-.21-.16,.07,.05,.13,.11,.21,.16,.23,.16,.45,.33,.68,.48,.08,.05,.15,.1,.23,.16t.02,.01s.05,.02,.07,.05c.18,.11,.35,.24,.53,.35,.16,.1,.33,.2,.48,.3,.11,.07,.24,.15,.35,.23,.21,.12,.42,.26,.63,.39,.02,0,.03,.01,.05,.02l-.04-.03c-.21-.14-.42-.27-.63-.39Z"/><path class="c" d="M307.69,308.13s.07,.07,.1,.1t.01,.01h0l-.02-.02s-.07-.06-.1-.09Z"/><path class="c" d="M304.99,305.46c-.17-.19-.33-.37-.49-.56,.16,.19,.33,.37,.49,.56l.12,.12c.14,.14,.27,.28,.41,.42-.14-.14-.27-.28-.4-.42l-.12-.12Z"/><path class="c" d="M235.06,328.88c1.87-5.44,4.98-10.55,9.33-14.89l29.08-28.32h0l-29.08,28.31c-4.35,4.35-7.45,9.46-9.33,14.9Z"/><path class="c" d="M273.48,285.65h0l22.61-22.01,3.82-3.7h0l-3.82,3.7-22.61,22.01Z"/><path class="c" d="M262.1,346.58s-.04-.01-.07-.02c.11,.04,.21,.07,.31,.11-.08-.03-.16-.06-.25-.09Z"/><path class="c" d="M309.56,309.7c-.59-.46-1.16-.94-1.72-1.43h0s0,0,0,0c.56,.5,1.14,.97,1.72,1.43,.19,.15,.38,.3,.59,.45l.03,.02-.03-.02c-.2-.15-.39-.3-.58-.45Z"/><path class="c" d="M270.85,354.73c-.05-.13-.1-.27-.16-.4-.09-.2-.19-.41-.29-.61-.05-.09-.1-.18-.15-.27,.05,.09,.11,.18,.16,.27,.17,.32,.31,.66,.45,1Z"/><path class="c" d="M305.8,306.31s0,0,0,.01h0Z"/><path class="c" d="M306.6,307.11s-.02-.02-.03-.05h0s.02,.03,.03,.05c.3,.3,.61,.6,.92,.87,0,0,.01,0,.02,.01,0,0-.01-.02-.02-.02-.32-.27-.62-.56-.92-.87Z"/><path class="c" d="M306.03,306.54s-.09-.09-.13-.14h0c.05,.06,.08,.1,.12,.15,.08,.07,.16,.14,.23,.21,.06,.06,.12,.12,.18,.18-.06-.06-.12-.12-.18-.18-.07-.07-.15-.14-.23-.22Z"/><path class="c" d="M297.49,264.98s.02-.05,.02-.07c.01-.02,.02-.06,.03-.08h0s0,0-.01,.02c0,.02-.01,.05-.02,.07,0,.02-.01,.05-.02,.07-.11,.28-.19,.56-.3,.84h0c.11-.29,.19-.57,.3-.85Z"/><path class="c" d="M298.56,262.51c-.07,.15-.14,.3-.21,.45,0,.02-.01,.03-.02,.05l.02-.04c.06-.15,.13-.31,.2-.46Z"/><path class="c" d="M268.81,351.31s-.02-.02-.02-.03l-.03-.03,.02,.03,.02,.03Z"/><path class="c" d="M296.45,267.97c-.06,.18-.12,.36-.17,.55h0c.05-.18,.11-.36,.17-.55Z"/><path class="c" d="M297.8,264.23l-.03,.07s-.01,.02-.01,.03c0,.02-.02,.04-.02,.06,.01-.03,.03-.06,.04-.09,.01-.02,.02-.05,.03-.07Z"/><path class="c" d="M303.24,303.4c.09,.12,.17,.24,.27,.36l.25,.29c-.08-.1-.17-.2-.25-.3-.09-.11-.18-.23-.27-.35Z"/><path class="c" d="M295.15,273.8c.08-.52,.17-1.02,.26-1.53v-.08s0,.04,0,.07c-.09,.52-.18,1.02-.26,1.54-.03,.25-.06,.48-.09,.72v.09s0-.06,0-.09c.03-.24,.06-.47,.09-.72Z"/><path class="c" d="M295.91,288.66c.06,.24,.13,.47,.2,.7-.12-.45-.23-.9-.34-1.35,.05,.21,.09,.43,.14,.65Z"/><path class="c" d="M295.57,271.4c-.02,.09-.05,.18-.06,.28h0c.02-.09,.04-.19,.06-.28Z"/><path class="c" d="M295.72,270.73c.01-.06,.03-.13,.05-.19,.02-.11,.05-.21,.08-.32-.02,.11-.05,.21-.08,.32-.01,.07-.03,.12-.05,.19-.01,.07-.03,.12-.05,.19,0,.01,0,.02-.01,.05l-.02,.1s.02-.1,.03-.15c.01-.07,.03-.12,.05-.19Z"/><path class="c" d="M269.32,351.99c.04,.06,.08,.11,.11,.17-.04-.06-.07-.12-.11-.17-.06-.08-.12-.17-.19-.25-.07-.09-.14-.18-.19-.26-.03-.03-.04-.05-.06-.08,.02,.03,.04,.05,.06,.08,.13,.17,.26,.33,.38,.51Z"/><path class="c" d="M295.2,284.96c-.06-.42-.13-.85-.17-1.28,.05,.43,.11,.85,.17,1.28Z"/><path class="c" d="M269.65,352.47c-.04-.06-.08-.12-.12-.18h0c.04,.06,.08,.13,.12,.18Z"/><path class="c" d="M299.88,259.99c-.2,.36-.4,.72-.59,1.09-.2,.38-.41,.77-.6,1.16h0c.37-.76,.77-1.51,1.19-2.25Z"/><path class="c" d="M295.59,287.16c-.09-.43-.18-.86-.25-1.3,.08,.44,.16,.87,.25,1.3Z"/><path class="c" d="M267.11,349.52c.05,.04,.1,.09,.15,.14-.05-.04-.09-.09-.14-.13-.1-.09-.2-.17-.3-.25h0c.1,.08,.2,.16,.3,.24Z"/><path class="c" d="M294.93,282.63c-.03-.38-.07-.77-.09-1.15,.02,.39,.06,.77,.09,1.15Z"/><path class="c" d="M296.89,266.67v0h0Z"/><path class="c" d="M294.99,275.23s0,.06,0,.09c0,.1-.02,.21-.03,.32,.01-.11,.02-.21,.03-.32,0-.03,0-.06,0-.08Z"/><path class="c" d="M294.85,276.75s0,.09-.01,.14h0c-.05,.78-.08,1.55-.08,2.34,0,.2,.02,.4,.02,.6,0-.2-.02-.4-.02-.61,0-.78,.03-1.56,.08-2.33,0-.05,0-.1,.01-.15Z"/><path class="c" d="M295.5,271.72c-.01,.07-.02,.15-.04,.22v0c.01-.07,.03-.15,.04-.22Z"/><path class="c" d="M321.65,316.16c-.06-.02-.13-.04-.19-.06,.06,.02,.13,.04,.19,.06,.17,.06,.34,.1,.52,.16,.17,.05,.34,.1,.52,.15,.11,.03,.22,.06,.33,.1-.11-.03-.22-.07-.34-.1-.34-.1-.69-.19-1.03-.3Z"/><polygon class="c" points="307.81 308.25 307.82 308.25 307.81 308.24 307.81 308.25"/><path class="c" d="M270.34,367.52v.02s0-.02,0-.03c0-.01,.01-.03,.02-.05v.03l-.03,.03Z"/><path class="c" d="M318.68,315.07c-.06-.02-.11-.05-.16-.07-.56-.24-1.1-.48-1.66-.74-.17-.08-.34-.16-.51-.24h0c.1,.06,.21,.1,.33,.16,.06,.02,.12,.06,.19,.09,.55,.26,1.08,.51,1.64,.74,.05,.02,.1,.05,.16,.07,.07,.02,.14,.05,.2,.08,.08,.03,.15,.06,.23,.09-.08-.03-.16-.06-.24-.1-.07-.03-.13-.05-.2-.08Z"/><path class="c" d="M271.99,359.12c0-.05,0-.1-.01-.16,0,.03,0,.05,0,.08,0,.03,0,.05,0,.08Z"/><path class="c" d="M271.92,358.51s-.01-.09-.02-.14c0,.03,0,.06,.01,.09,0,.01,0,.03,0,.04Z"/><polygon class="c" points="304.17 304.52 304.17 304.53 304.16 304.52 304.17 304.52"/><path class="c" d="M271.17,365.67c-.03,.07-.05,.14-.07,.21,.03-.07,.05-.14,.07-.21Z"/><path class="c" d="M268.04,370.71c-.06,.06-.12,.12-.18,.18,.06-.06,.12-.12,.18-.18Z"/><path class="c" d="M305.82,306.34h0Z"/><path class="c" d="M326.19,317.33c.11,.03,.22,.05,.33,.08h0c-.11-.03-.22-.05-.33-.08Z"/><path class="c" d="M323.93,316.82c.08,.02,.16,.05,.24,.07,.19,.05,.38,.08,.57,.12,.05,.01,.09,.02,.14,.03-.24-.05-.47-.1-.71-.15-.08-.02-.16-.04-.24-.06Z"/><path class="c" d="M323.14,316.6c.16,.05,.33,.1,.5,.15,.01,0,.03,0,.05,0h-.05c-.17-.06-.33-.11-.5-.16Z"/><path class="c" d="M326.58,317.41h0Z"/><path class="c" d="M269.89,368.3s.03-.05,.04-.07c-.03,.05-.07,.11-.1,.16,.02-.03,.04-.06,.06-.09Z"/><path class="c" d="M329.44,317.82h.04c.51,.06,1.04,.12,1.57,.14h.08s-.05,0-.08,0c-.54-.02-1.08-.08-1.61-.13Z"/><path class="c" d="M327.83,317.59h0c.33,.05,.64,.09,.98,.14,.02,0,.04,0,.07,0-.02,0-.05,0-.07,0-.33-.04-.65-.09-.98-.14Z"/><path class="c" d="M326.78,317.44h-.06s.02,0,.04,0c.11,.02,.23,.03,.33,.06,.07,.01,.15,.02,.22,.03-.08-.01-.14-.02-.22-.03-.1-.02-.21-.03-.31-.05Z"/><path class="c" d="M304.21,304.58s.02,.02,.03,.03l-.04-.05s0,.01,.01,.02Z"/><path class="c" d="M269.32,369.16s.05-.07,.08-.11h0s-.02,.03-.03,.04c-.02,.02-.03,.04-.05,.07Z"/><path class="c" d="M302.61,302.58l-.03-.04s.02,.02,.02,.04c.05,.06,.09,.12,.14,.19,.06,.08,.13,.16,.19,.23-.07-.08-.13-.16-.19-.24-.05-.06-.09-.13-.13-.19Z"/><path class="c" d="M302.99,303.09s.06,.08,.09,.12l.03,.03-.03-.04s-.06-.08-.09-.12Z"/><path class="c" d="M271.97,358.89h0Z"/><path class="c" d="M269.4,369.04s.01-.02,.02-.03h0v.03Z"/><path class="c" d="M268.15,350.53l-.02-.02,.02,.02h0Z"/><path class="c" d="M301.99,301.77l-.14-.2s-.03-.03-.05-.06c-.18-.26-.36-.52-.53-.78h0c.17,.26,.35,.52,.53,.78,.01,.02,.03,.03,.05,.06l.14,.2c.12,.17,.25,.33,.37,.5,.01,.02,.04,.04,.05,.06-.02-.02-.04-.05-.05-.07-.12-.17-.25-.33-.37-.5Z"/><path class="c" d="M272.04,359.65v-.02c0,.08,0,.17,0,.25,0-.08,0-.15,0-.23Z"/><polygon class="c" points="302.53 302.48 302.54 302.49 302.53 302.48 302.53 302.48"/><path class="c" d="M295.42,272.19v.08c-.1,.51-.19,1.01-.27,1.53,.07-.51,.17-1.03,.26-1.54,0-.03,.01-.07,.02-.1v.03Z"/><path class="c" d="M295.47,271.94v.02h0v-.02Z"/><path class="c" d="M267.92,350.31c-.11-.12-.23-.23-.35-.35h0c.14,.13,.28,.27,.41,.42-.01-.01-.02-.02-.03-.03,0-.01-.02-.02-.03-.03Z"/><polygon class="c" points="329.44 317.82 329.43 317.81 329.43 317.81 329.44 317.82 329.44 317.82"/><path class="c" d="M318.68,315.07c.07,.03,.13,.05,.2,.08-.07-.03-.13-.05-.2-.08l-.16-.06s.1,.05,.16,.07Z"/><path class="c" d="M331.37,317.97c-.65-.04-1.3-.08-1.93-.15,.53,.06,1.07,.11,1.61,.13,.03,0,.05,0,.08,0h.03c.07,0,.14,.01,.22,.01Z"/><path class="c" d="M298.79,296.38s.04,.09,.07,.13l.02,.03c-.03-.05-.06-.11-.08-.16-.16-.33-.34-.64-.5-.97,.16,.34,.34,.65,.5,.97Z"/><path class="c" d="M310.6,310.49c.07,.05,.14,.11,.21,.16,.23,.16,.45,.33,.68,.48,.08,.05,.15,.1,.23,.16-.07-.05-.15-.11-.22-.16-.34-.23-.67-.48-1-.72,.04,.03,.07,.06,.11,.08Z"/><path class="c" d="M299.65,298.04v.02s.06,.08,.09,.12c-.02-.04-.05-.08-.07-.12,0-.01-.01-.02-.02-.04h0Z"/><path class="c" d="M297.81,264.21v.02s-.03,.05-.04,.07l.04-.09Z"/><path class="c" d="M298.14,263.47l-.27,.61s-.01,.03-.02,.05c.1-.22,.19-.44,.29-.66,.14-.33,.28-.66,.43-.98v.02c-.08,.15-.15,.31-.21,.46l-.02,.04s0,.01,0,.02c-.07,.15-.12,.29-.19,.44Z"/><path class="c" d="M296.92,266.6l-.02,.07v.02s-.04,.09-.05,.13c.02-.07,.05-.14,.08-.21Z"/><path class="c" d="M297.19,265.83h0c-.04,.11-.07,.22-.11,.32,.04-.11,.07-.21,.11-.32,.1-.28,.19-.57,.3-.85-.11,.28-.19,.56-.3,.84Z"/><path class="c" d="M298.65,262.32s-.04,.09-.06,.13c.03-.05,.05-.09,.07-.13v-.03s0,.02,0,.04Z"/><path class="c" d="M295.06,274.52s0,.06,0,.09v.06s0-.1,0-.15Z"/><path class="c" d="M294.99,275.23s0,.06,0,.08c0,.11-.02,.21-.03,.32v.06c0-.13,.02-.25,.03-.38,0-.09,.02-.18,.03-.28,0,.07-.01,.13-.02,.19Z"/><path class="c" d="M297.55,264.84s-.02,.06-.03,.08c.01-.03,.02-.05,.04-.08h0Z"/><path class="c" d="M303.09,303.2c-.11-.15-.24-.28-.35-.43-.05-.06-.09-.13-.13-.19,.04,.06,.08,.13,.13,.19,.06,.08,.13,.16,.19,.24,.01,.02,.03,.03,.04,.05l.02,.03s.06,.08,.09,.12l.03,.04h0l-.03-.03Z"/><path class="c" d="M313.16,312.22c.21,.12,.42,.26,.63,.39-.21-.13-.42-.26-.63-.4-.12-.07-.24-.15-.36-.22,.12,.07,.23,.15,.35,.22Z"/><path class="c" d="M134.5,368.94l.05,.05c.16,.15,.31,.31,.47,.46l.02,.02c-.19-.17-.36-.36-.54-.53Z"/><path class="c" d="M135.8,370.13c.15,.13,.3,.27,.46,.39-.21-.17-.41-.35-.61-.53,.05,.04,.1,.09,.15,.13Z"/><polygon class="c" points="327.82 317.59 327.82 317.59 327.83 317.59 327.82 317.59"/><path class="c" d="M327.3,317.52c-.07-.01-.15-.02-.22-.03,.08,.01,.14,.02,.22,.03,.07,0,.14,.02,.21,.03-.07,0-.14-.02-.21-.03Z"/><path class="c" d="M304.14,304.5s.01,.01,.02,.02h.01l-.03-.02Z"/><path class="c" d="M295.72,270.73c-.01,.07-.03,.12-.05,.19,.01-.06,.03-.12,.04-.19,.01-.07,.03-.13,.05-.2-.01,.06-.03,.13-.05,.19Z"/><path class="c" d="M333.54,318.04h.03c-.12,0-.24,0-.36,0,.11,0,.21,0,.32,0Z"/><path class="c" d="M306.25,306.76c.06,.06,.12,.12,.18,.18,.04,.04,.09,.08,.13,.12h0s.02,.02,.03,.05c.3,.3,.61,.6,.92,.87,0,0,.01,.01,.02,.02,0,0,.01,0,.01,0,.05,.05,.09,.09,.14,.13,.03,.03,.06,.06,.1,.09-.53-.47-1.04-.96-1.54-1.46Z"/><path class="c" d="M298.58,262.47v.02c-.16,.32-.29,.66-.44,.98,.15-.33,.29-.67,.44-1,.02-.05,.05-.1,.07-.15-.02,.04-.04,.09-.07,.13v.02Z"/><path class="c" d="M297.51,264.92s-.01,.05-.02,.07c-.11,.28-.2,.56-.3,.85,.1-.28,.19-.57,.3-.84,0-.02,.02-.05,.03-.07,.01-.03,.02-.05,.03-.08-.01,.03-.02,.05-.04,.08Z"/><path class="c" d="M304.52,253.53c-.16,.18-.3,.36-.46,.53-.32,.37-.61,.75-.91,1.13,.3-.38,.6-.76,.91-1.12,.15-.18,.31-.36,.46-.53,.37-.42,.75-.83,1.14-1.23,.09-.09,.17-.18,.26-.26-.09,.09-.17,.18-.26,.26-.38,.41-.77,.81-1.14,1.23Z"/><path class="c" d="M301.47,257.46c-.1,.15-.19,.28-.29,.42-.44,.68-.87,1.35-1.26,2.05,.4-.7,.82-1.38,1.27-2.04,.09-.14,.19-.28,.29-.42,.35-.52,.72-1.04,1.09-1.54h0c-.37,.5-.74,1.02-1.09,1.53Z"/><path class="c" d="M258.3,197.33c1.14,.23,2.01,1.25,2.01,2.46,0,.69-.28,1.32-.74,1.78,.46-.45,.74-1.08,.74-1.78,0-1.21-.86-2.23-2.01-2.46Z"/><path class="c" d="M307.93,250.12c-.19,.17-.37,.35-.56,.52-.15,.14-.29,.28-.44,.42,.15-.14,.29-.28,.43-.41,.19-.17,.38-.35,.57-.53,.41-.36,.83-.71,1.26-1.05,.24-.19,.49-.37,.73-.56-.24,.19-.49,.37-.74,.56-.43,.35-.84,.7-1.26,1.06Z"/><path class="c" d="M318.52,315l.16,.06c-.05-.02-.11-.04-.16-.07-.56-.23-1.1-.48-1.65-.74-.06-.03-.13-.06-.19-.09,.06,.03,.12,.06,.18,.09,.55,.26,1.09,.51,1.66,.74Z"/><path class="c" d="M313.94,312.69h0Z"/><path class="c" d="M313.85,312.64h.02s-.05-.02-.07-.03c-.21-.13-.42-.26-.63-.39,.21,.13,.41,.27,.63,.4l.05,.03Z"/><path class="c" d="M311.73,311.3l-.02-.02c-.07-.05-.15-.11-.22-.16,.07,.05,.15,.11,.22,.16h.02Z"/><path class="c" d="M303.12,303.24h0c.27,.36,.55,.7,.84,1.04l.1,.12c-.33-.39-.65-.79-.97-1.19l.03,.03h0Z"/><path class="c" d="M301.25,300.67h0c-.56-.84-1.09-1.71-1.58-2.6,.02,.04,.05,.08,.07,.12,.47,.85,.97,1.67,1.51,2.48Z"/><path class="c" d="M301.29,300.73c.17,.26,.35,.52,.53,.78,.01,.02,.03,.03,.05,.06l.14,.2c.12,.17,.25,.33,.37,.5,.02,.02,.04,.05,.06,.07,.01,.02,.03,.03,.04,.05-.41-.54-.81-1.09-1.18-1.66h0Z"/><path class="c" d="M323.7,316.76h0l-.06-.02c-.19-.05-.37-.11-.56-.16,.18,.06,.37,.11,.55,.16,.02,0,.04,0,.06,.01Z"/><path class="c" d="M295.06,274.52s0,.1-.01,.15c0,.08-.01,.16-.02,.25,0,.04,0,.07-.01,.11,0,.09-.02,.18-.03,.28,.03-.26,.05-.53,.08-.79,.03-.24,.05-.48,.09-.72,.07-.52,.17-1.03,.26-1.54-.09,.51-.19,1.02-.26,1.54-.03,.25-.06,.48-.09,.72Z"/><path class="c" d="M305.11,305.59c.14,.15,.29,.3,.43,.45,.05,.06,.11,.11,.16,.17-.39-.41-.78-.82-1.15-1.24,.14,.17,.29,.33,.43,.5l.12,.12Z"/><path class="c" d="M296.11,289.36s.02,.06,.03,.09c-.14-.5-.26-1-.38-1.5v.06c.12,.45,.23,.9,.35,1.35Z"/><path class="c" d="M296.77,291.58l.02,.06c.43,1.29,.93,2.55,1.5,3.77,.16,.33,.34,.65,.5,.97-.16-.32-.34-.64-.49-.97-.82-1.79-1.51-3.65-2.05-5.57,0,.03,.02,.07,.03,.1,.16,.55,.32,1.09,.5,1.63Z"/><path class="c" d="M294.78,279.85c0-.21-.02-.41-.02-.62,0,.2,.01,.4,.02,.61h0Z"/><path class="c" d="M295.2,284.96v.06c-.06-.45-.12-.89-.18-1.34h0c.05,.44,.11,.86,.17,1.29Z"/><path class="c" d="M294.93,282.63v.04c-.03-.4-.07-.79-.09-1.19h0c.02,.39,.06,.77,.09,1.16Z"/><path class="c" d="M295.59,287.16v.07c-.08-.46-.17-.93-.26-1.4v.03c.08,.44,.17,.87,.26,1.3Z"/><path class="c" d="M326.55,317.4h-.03c-.14-.03-.29-.07-.43-.1,.14,.03,.28,.07,.43,.1h.03Z"/><path class="c" d="M327.08,317.49c.07,.01,.15,.02,.22,.03-.07-.01-.15-.02-.22-.03-.1-.02-.2-.03-.3-.05,.1,.01,.2,.03,.3,.05Z"/><path class="c" d="M295.67,270.97v-.05c.02-.06,.04-.12,.05-.19-.01,.06-.03,.12-.04,.19,0,.01,0,.03,0,.05Z"/><path class="c" d="M131.89,365.96c-.61-.84-1.15-1.72-1.64-2.64,.49,.92,1.04,1.8,1.64,2.64Z"/><path class="c" d="M136.26,370.53h0c-.16-.13-.3-.27-.46-.4,.15,.13,.3,.27,.46,.4Z"/><path class="c" d="M135.02,369.45c-.16-.15-.31-.31-.47-.46,.16,.15,.31,.31,.47,.46Z"/><path class="c" d="M135.04,369.47l-.02-.02c.25,.24,.52,.45,.78,.68-.05-.04-.1-.09-.15-.13-.2-.18-.41-.34-.61-.53Z"/><path class="c" d="M133.95,368.39c.2,.2,.4,.4,.6,.6l-.05-.05c-.18-.18-.37-.36-.55-.54Z"/><path class="b" d="M174.41,258.72c9.04-4.44,19.22-6.95,29.97-6.95h3.75c-18.56-9.15-31.32-28.25-31.32-50.33v-23.42c0-3.75,1.94-7.23,5.11-9.2l22.42-13.93c11.5,5.62,23.56,9.9,35.94,12.77,12.4,2.87,25.11,4.34,37.91,4.34,5.98,0,10.83,4.85,10.83,10.83v18.61c0,22.08-12.77,41.18-31.33,50.33h2.22c10.33,0,17.61,1.89,26.38,6,2.97,1.4,6.52,3.59,9.8,5.86l3.82-3.7c.39-.7,.82-1.37,1.26-2.05,.1-.14,.19-.27,.29-.42,.35-.52,.72-1.04,1.09-1.53h0c.13-.17,.26-.34,.39-.51,.06-.08,.13-.15,.19-.23,.3-.38,.6-.76,.91-1.13,.16-.17,.3-.35,.46-.53,.37-.42,.75-.82,1.14-1.23,.09-.09,.17-.18,.26-.26,.09-.09,.18-.18,.27-.27,.24-.24,.5-.48,.75-.71,.15-.14,.29-.28,.44-.42,.19-.17,.37-.35,.56-.52,.42-.36,.83-.71,1.26-1.06,.24-.19,.49-.37,.74-.56,.27-.2,.53-.42,.8-.61,.25-.18,.49-.37,.75-.55v-74.7c0-44.09-35.75-79.84-79.86-79.84-22.05,0-42.01,8.94-56.46,23.39s-23.39,34.41-23.39,56.46v104.01c6.15-7.48,13.86-13.61,22.63-17.93Z"/><path class="b" d="M289.02,201.44v-18.61c0-5.98-4.85-10.83-10.83-10.83-12.8,0-25.51-1.46-37.91-4.34-12.39-2.87-24.45-7.15-35.94-12.77l-22.42,13.93c-3.18,1.97-5.11,5.45-5.11,9.2v23.42c0,22.08,12.77,41.18,31.32,50.33,.15,.08,.29,.16,.45,.24,1.94,.93,3.93,1.75,5.98,2.44,5.21,2.5,10.98,3.88,17.04,3.88,4.04,0,7.94-.61,11.63-1.76,3.9-.72,7.66-1.84,11.23-3.32,1.1-.46,2.18-.96,3.24-1.49,18.56-9.15,31.33-28.25,31.33-50.33Zm-85.24,.86c-1.39,0-2.51-1.12-2.51-2.51s1.12-2.51,2.51-2.51,2.51,1.12,2.51,2.51-1.12,2.51-2.51,2.51Zm55.78-.74c-.45,.45-1.08,.74-1.78,.74-1.39,0-2.51-1.12-2.51-2.51s1.12-2.51,2.51-2.51c.17,0,.34,.02,.51,.05,1.14,.23,2.01,1.25,2.01,2.46,0,.69-.28,1.32-.74,1.78Z"/><path class="b" d="M203.79,197.28c-1.39,0-2.51,1.12-2.51,2.51s1.12,2.51,2.51,2.51,2.51-1.12,2.51-2.51-1.12-2.51-2.51-2.51Z"/><path class="b" d="M258.3,197.33c-.16-.03-.33-.05-.5-.05-1.4,0-2.51,1.13-2.51,2.51s1.11,2.51,2.51,2.51c.69,0,1.32-.28,1.77-.73,.45-.45,.74-1.08,.74-1.78,0-1.21-.86-2.23-2.01-2.46Z"/><path class="b" d="M255.29,199.79c0-1.38,1.11-2.51,2.51-2.51,.17,0,.34,.02,.5,.05-.16-.03-.33-.05-.51-.05-1.39,0-2.51,1.12-2.51,2.51s1.12,2.51,2.51,2.51c.69,0,1.32-.28,1.78-.74-.45,.45-1.08,.73-1.77,.73-1.4,0-2.51-1.13-2.51-2.51Z"/><path class="b" d="M231.6,258.34c-6.06,0-11.82-1.38-17.04-3.88-2.05-.7-4.04-1.51-5.98-2.44v15.21c0,3.16,.64,6.18,1.8,8.93,.11,.26,.23,.52,.34,.77,.03,.07,.07,.12,.1,.19,.02,.06,.05,.11,.08,.17t.01,.02h0s.01,.03,.02,.05c.17,.36,.35,.71,.55,1.06,.1,.18,.21,.37,.33,.55,.02,.06,.06,.11,.09,.16,.02,.05,.05,.09,.08,.12,.18,.3,.37,.6,.57,.89,.02,.05,.06,.09,.09,.12,.06,.09,.11,.17,.17,.25,.01,.02,.02,.05,.05,.06,.03,.06,.07,.11,.12,.17h.01s.03,.08,.07,.11c.03,.06,.08,.11,.14,.17,.11,.17,.24,.34,.37,.5,.01,.03,.03,.06,.07,.08,.06,.08,.12,.16,.18,.24,.03,.05,.07,.08,.11,.12,.14,.17,.28,.34,.43,.5,.06,.08,.12,.15,.2,.21,.03,.06,.09,.11,.15,.17,.02,.03,.06,.07,.1,.1,0,.01,.01,.01,.01,.01,.02,.05,.06,.08,.1,.11t.01,.01c.18,.2,.37,.39,.56,.57,.25,.25,.51,.48,.77,.72,.01,0,.01,.01,.01,.01l.03,.03c.09,.08,.18,.16,.27,.23,.05,.05,.09,.09,.14,.12,.01,0,.01,.01,.01,.01,.03,.02,.07,.06,.1,.08,.37,.32,.75,.62,1.15,.9h.01s.02,.02,.03,.03c.1,.07,.2,.15,.32,.23,.11,.08,.24,.17,.36,.25,.16,.11,.33,.21,.5,.33,.07,.05,.14,.08,.2,.12,.02,.01,.05,.03,.07,.05,.24,.15,.48,.29,.73,.43,.18,.11,.37,.21,.56,.32,.27,.15,.55,.29,.84,.43,.19,.1,.39,.19,.6,.28,.15,.07,.3,.12,.45,.19,.1,.05,.19,.08,.29,.12,.26,.1,.53,.2,.8,.3,.02,0,.03,.01,.06,.02l.1,.03c.12,.05,.24,.08,.36,.12,.3,.1,.61,.19,.92,.28,.17,.05,.33,.09,.48,.14,.01,0,.02,.01,.02,.01,.05,.01,.08,.02,.12,.03,.43,.1,.86,.2,1.28,.28,.15,.02,.28,.05,.43,.08,.18,.03,.37,.06,.55,.09,.21,.03,.43,.07,.65,.09,.11,.02,.23,.03,.34,.03,.11,.02,.21,.02,.33,.03,.32,.03,.64,.06,.97,.07,.38,.02,.77,.03,1.16,.03,12.67,0,22.94-10.27,22.94-22.94v-13.96c-3.57,1.49-7.33,2.6-11.23,3.32-3.69,1.15-7.59,1.76-11.63,1.76Z"/><path class="b" d="M140.05,372.94c-1.01-.52-1.98-1.1-2.89-1.75,.91,.65,1.88,1.24,2.89,1.75Z"/><path class="b" d="M143.23,374.25c-.73-.25-1.44-.52-2.14-.82,.69,.32,1.41,.59,2.14,.82Z"/><polygon class="b" points="326.65 341.08 326.65 340.86 320.59 347.28 326.65 341.08"/><path class="b" d="M299.4,390.46l-2.31,1.75c-2.74,2.06-5.95,3.06-9.12,3.06-4.59,0-9.13-2.08-12.12-6.04-1.89-2.52-2.63-5.54-2.34-8.44-.47,.01-.96,.03-1.44,.03-6.9,0-13.8-1.81-19.93-5.44h-9.68v-.03h-92.26c-.61,0-1.2-.03-1.79-.08-.12-.01-.26-.02-.38-.03-.57-.06-1.14-.12-1.69-.21-.01,0-.02,0-.03-.01-.6-.1-1.19-.23-1.78-.38-.06-.01-.12-.03-.18-.05-.37-.1-.74-.21-1.11-.33-.73-.24-1.45-.51-2.14-.82-.35-.16-.7-.33-1.04-.48-.51-.25-1-.53-1.49-.82-.48-.29-.95-.6-1.41-.92-.3-.23-.61-.44-.9-.68v10.29l.27,26.38h190.04l.08-26.38v-2.42l-25.14,10.13c-.64,.7-1.33,1.34-2.11,1.93Z"/><path class="b" d="M311.5,247.32l-.03,.02c-.08,.05-.15,.11-.23,.17,.08-.06,.17-.13,.25-.19Z"/><path class="b" d="M311.25,247.51c.08-.06,.15-.11,.23-.17-.25,.18-.5,.37-.75,.55,.17-.13,.35-.25,.52-.38Z"/><path class="b" d="M333.58,318.04h0c7.17,0,13.88-1.95,19.65-5.34,.72-.42,1.42-.87,2.11-1.33-.69,.47-1.39,.91-2.11,1.33-5.77,3.39-12.48,5.34-19.65,5.34Z"/><path class="b" d="M345.12,282.89c-.38,0-.75,.08-1.08,.22,.33-.14,.69-.22,1.07-.22,1.53,0,2.76,1.23,2.76,2.75s-1.23,2.76-2.76,2.76c-.19,0-.37-.02-.55-.05,.18,.04,.37,.06,.56,.06,1.52,0,2.76-1.23,2.76-2.76s-1.23-2.76-2.76-2.76Z"/><path class="b" d="M328.79,266.57c0,1.52-1.23,2.76-2.76,2.76-.19,0-.37-.02-.55-.06,.18,.04,.37,.06,.56,.06,1.52,0,2.76-1.23,2.76-2.76s-1.23-2.76-2.76-2.76c-.57,0-1.1,.17-1.54,.47,.44-.29,.96-.47,1.53-.47,1.53,0,2.76,1.23,2.76,2.75Z"/><path class="b" d="M326.62,317.42h.01s.05,.01,.08,.01h.08c.1,.03,.2,.04,.3,.06-.17-.03-.34-.05-.51-.08h.04Z"/><path class="b" d="M326.57,317.4h0Z"/><path class="b" d="M233.14,345.77h-53.39c-9.96,0-17.25-9.4-14.78-19.05l7.06-27.52-7.06,27.52c-2.47,9.65,.56,19.05,10.53,19.05h57.64c-.59-5.67,.05-11.44,1.92-16.88,1.87-5.44,4.98-10.55,9.33-14.9l29.08-28.32h0v-.02l22.62-22.01c-3.28-2.26-6.82-4.46-9.8-5.86-8.77-4.11-16.06-6-26.38-6h-2.22c-1.06,.53-2.14,1.02-3.24,1.49v13.96c0,12.67-10.27,22.94-22.94,22.94-.39,0-.78-.01-1.16-.03-.33-.01-.65-.03-.97-.07-.11-.01-.21-.01-.33-.03-.11,0-.23-.01-.34-.03-.23-.02-.44-.06-.65-.09-.18-.03-.37-.06-.55-.09-.15-.03-.28-.06-.43-.08-.43-.08-.86-.18-1.28-.28-.05-.01-.08-.02-.12-.03,0,0-.01-.01-.02-.01-.16-.05-.32-.09-.48-.14-.32-.09-.62-.18-.92-.28-.12-.05-.24-.08-.36-.12l-.1-.03s-.03-.02-.06-.02c-.27-.1-.54-.2-.8-.3-.1-.05-.19-.08-.29-.12-.15-.07-.3-.12-.45-.19-.2-.09-.41-.18-.6-.28-.29-.14-.57-.28-.84-.43-.19-.1-.38-.2-.56-.32-.25-.14-.5-.28-.73-.43-.02-.01-.05-.03-.07-.05-.07-.05-.14-.08-.2-.12-.17-.11-.34-.21-.5-.33-.12-.08-.25-.17-.36-.25-.11-.08-.21-.16-.32-.23-.01-.01-.02-.02-.03-.02h-.01c-.39-.29-.78-.6-1.15-.91-.03-.02-.07-.06-.1-.08,0,0,0-.01-.01-.01-.05-.03-.09-.08-.14-.12-.09-.07-.18-.15-.27-.23l-.03-.03s0-.01-.01-.01c-.26-.24-.52-.47-.77-.72-.19-.18-.38-.37-.56-.57t-.01-.01s-.08-.07-.1-.11c0,0-.01,0-.01-.01-.05-.03-.08-.07-.1-.1-.06-.06-.11-.11-.15-.17-.08-.07-.15-.14-.2-.21-.15-.16-.29-.33-.43-.5-.05-.05-.08-.08-.11-.12-.06-.08-.12-.16-.18-.24-.03-.02-.06-.05-.07-.08-.14-.16-.26-.33-.37-.5-.06-.06-.1-.11-.14-.17-.03-.03-.06-.07-.07-.1h-.01c-.06-.07-.09-.12-.12-.18-.02-.01-.03-.03-.05-.06-.06-.08-.11-.16-.17-.25-.03-.03-.07-.08-.09-.12-.2-.29-.39-.59-.57-.89-.03-.03-.06-.08-.08-.12-.03-.05-.07-.1-.09-.16-.11-.18-.23-.37-.33-.55-.2-.35-.38-.7-.55-1.06-.01-.01-.02-.02-.02-.03h0s-.01-.02-.01-.03c-.03-.06-.06-.11-.08-.17-.03-.07-.07-.12-.1-.19-.11-.25-.23-.51-.34-.77-1.16-2.75-1.8-5.77-1.8-8.93v-15.21c-.16-.08-.3-.16-.45-.24h-3.75c-10.75,0-20.93,2.51-29.97,6.95-8.77,4.31-16.48,10.45-22.63,17.93-8.49,10.31-17.66,22.86-18.9,36.91,0,0-.04,.29-.04,.29l.04-.29s0,0,0,0l-4.6,33.8c-.13,.52-.23,1.04-.33,1.57,.03-.18,.08-.36,.11-.54-.04,.18-.08,.36-.11,.54-.02,.15-.05,.28-.07,.42-.06,.38-.1,.77-.15,1.14-.01,.17-.03,.34-.05,.5-.03,.38-.06,.77-.07,1.14,0,.14-.01,.27-.01,.41-.01,.51,0,1,.03,1.5,0,.09,.01,.19,.02,.28,.02,.41,.06,.81,.11,1.22,.01,.15,.03,.3,.06,.46,.06,.35,.11,.7,.18,1.05,.03,.15,.06,.29,.09,.44,.09,.43,.19,.86,.32,1.28,.01,.05,.01,.09,.02,.14,.15,.48,.3,.97,.47,1.44l.07,.2c.16,.41,.32,.8,.48,1.2,.05,.09,.08,.18,.12,.27,.18,.39,.37,.8,.57,1.18,.02,.05,.05,.1,.08,.15,.48,.91,1.04,1.8,1.64,2.63t.01,.02c.29,.42,.61,.82,.95,1.22,.01,.01,.01,.02,.02,.03,.27,.32,.57,.61,.86,.92-.29-.31-.58-.6-.85-.92,.27,.33,.57,.63,.87,.94,.24,.26,.5,.51,.76,.76,.18,.18,.36,.36,.54,.53,.2,.18,.4,.35,.61,.53,.2,.18,.4,.36,.61,.53,.29,.24,.6,.45,.9,.68,.91,.64,1.88,1.23,2.89,1.75,.34,.16,.69,.33,1.04,.48,.7,.3,1.41,.57,2.14,.82,.37,.11,.74,.23,1.11,.33,.06,.01,.12,.03,.18,.05,.59,.16,1.18,.28,1.78,.38,.01,.01,.02,.01,.03,.01,.55,.09,1.11,.16,1.69,.21,.12,.01,.26,.02,.38,.03,.59,.05,1.18,.08,1.79,.08h92.26v-29.57h-9.32Z"/><path class="c" d="M135.04,369.47c.2,.18,.4,.35,.61,.53-.2-.17-.41-.34-.61-.53Z"/><path class="c" d="M133.74,368.17c.07,.07,.14,.15,.21,.22,.18,.19,.37,.36,.55,.54-.25-.25-.51-.5-.76-.76Z"/><path class="c" d="M132.87,367.23c.27,.32,.57,.61,.85,.92l.02,.02c-.3-.31-.6-.61-.87-.94Z"/><path class="c" d="M133.73,368.15c.07,.08,.15,.16,.22,.24-.07-.07-.14-.15-.21-.22l-.02-.02Z"/><path class="c" d="M128.28,347.36c-.08,.34-.15,.68-.21,1.02-.04,.18-.08,.36-.11,.54,.09-.52,.2-1.04,.33-1.57Z"/><path class="b" d="M331.12,317.96h-.08c-.53-.02-1.06-.08-1.57-.14h-.08c-.18-.03-.35-.06-.52-.08-.02,0-.04,0-.07,0-.34-.05-.65-.09-.98-.14h-.02c-.17-.03-.34-.04-.51-.07h0c-.07-.01-.15-.02-.22-.03-.1-.02-.21-.03-.33-.06-.01,0-.03,0-.04,0-.03,0-.07-.01-.1-.02h-.1c-.11-.04-.22-.06-.33-.09-.29-.06-.58-.13-.87-.19-.15-.03-.29-.06-.44-.1-.05-.01-.09-.02-.14-.03-.19-.04-.38-.07-.57-.12-.08-.02-.16-.04-.24-.07h-.05l-.2-.06s-.03,0-.05,0c-.16-.05-.33-.1-.5-.15-.04-.01-.08-.02-.11-.03-.11-.04-.22-.07-.33-.1-.18-.05-.35-.1-.52-.15-.18-.06-.35-.1-.52-.16-.06-.02-.13-.04-.19-.06-.05-.02-.11-.03-.16-.05-.71-.24-1.41-.5-2.1-.78-.03-.01-.05-.02-.08-.03-.08-.03-.16-.07-.23-.09-.07-.03-.14-.06-.2-.08-.06-.02-.11-.05-.16-.07-.56-.24-1.09-.48-1.64-.74-.07-.03-.14-.07-.19-.09-.11-.06-.23-.1-.33-.16h-.01c-.57-.29-1.13-.59-1.68-.9-.05-.03-.1-.05-.14-.08-.15-.08-.29-.17-.43-.25-.06-.03-.11-.07-.16-.09h0l-.09-.06s-.03-.02-.05-.02c-.21-.14-.42-.27-.63-.39-.11-.08-.24-.16-.35-.23-.16-.1-.33-.2-.48-.3-.18-.11-.35-.24-.53-.35-.02-.02-.05-.03-.07-.05t-.02-.01c-.08-.06-.15-.11-.23-.16-.23-.16-.45-.33-.68-.48-.07-.05-.14-.11-.21-.16-.08-.06-.17-.12-.25-.18-.06-.04-.12-.09-.18-.13l-.03-.02c-.2-.15-.39-.3-.59-.45-.59-.46-1.16-.93-1.72-1.43,0,0,0,0,0-.01h-.02v-.02h-.01s0-.02-.01-.02c-.03-.03-.07-.06-.1-.1-.04-.04-.08-.08-.12-.11,0-.01-.02-.02-.03-.03,0,0-.01-.01-.02-.01-.32-.27-.62-.56-.92-.87-.01-.02-.02-.03-.03-.05h0s-.06-.07-.08-.08c-.02-.01-.03-.03-.05-.05-.06-.06-.12-.12-.18-.18-.07-.08-.15-.15-.23-.21-.05-.05-.08-.09-.12-.14h0l-.05-.07h-.02v-.02h-.01s0-.02,0-.02c-.1-.1-.19-.2-.29-.3-.14-.14-.27-.28-.41-.42l-.12-.12c-.16-.19-.33-.37-.49-.56-.02-.02-.03-.04-.05-.06h0s-.03-.04-.05-.06c-.02-.02-.05-.05-.06-.07t-.01-.01s-.06-.07-.09-.1c0,0-.02-.02-.03-.03,0,0-.01-.01-.01-.02h0l-.02-.03h0s-.03-.04-.04-.05c-.02-.02-.04-.05-.06-.07-.1-.12-.2-.23-.3-.35l-.25-.29c-.1-.12-.18-.24-.27-.36-.04-.06-.08-.11-.13-.16h0l-.03-.03s-.06-.08-.09-.12c-.02-.03-.04-.05-.06-.08-.06-.07-.13-.15-.19-.23-.05-.07-.09-.14-.14-.19,0-.02-.01-.03-.02-.04-.01-.02-.03-.04-.04-.06h0v-.02s-.08-.09-.11-.13c-.02-.02-.04-.05-.05-.06-.12-.17-.25-.33-.37-.5l-.14-.2s-.03-.03-.05-.06c-.18-.26-.36-.52-.53-.78h0s-.02-.05-.04-.07c-.11-.16-.21-.32-.31-.48-.16-.24-.3-.47-.45-.71-.07-.12-.14-.25-.2-.36-.19-.3-.36-.62-.54-.92-.02-.05-.06-.09-.08-.12,0-.01,0-.02-.01-.03l-.03-.05s-.05-.08-.08-.13c-.07-.13-.13-.26-.2-.4-.06-.11-.12-.23-.18-.34-.01-.03-.03-.06-.04-.08-.05-.1-.11-.2-.16-.31-.04-.08-.08-.15-.12-.23-.02-.04-.04-.09-.07-.13-.08-.16-.17-.33-.25-.48-.09-.16-.17-.32-.25-.48-.28-.61-.55-1.24-.8-1.87-.25-.62-.48-1.26-.7-1.9l-.02-.06c-.1-.31-.21-.62-.31-.94-.07-.23-.13-.46-.19-.7-.06-.19-.11-.39-.16-.58-.06-.24-.14-.47-.2-.7-.05-.21-.09-.43-.14-.65-.07-.28-.13-.57-.18-.85-.09-.43-.18-.86-.25-1.3-.05-.3-.09-.6-.14-.9-.06-.42-.13-.85-.17-1.28-.04-.35-.07-.71-.1-1.06-.03-.38-.07-.77-.09-1.15-.03-.54-.04-1.09-.05-1.64,0-.2-.02-.4-.02-.6,0-.79,.03-1.57,.08-2.33h0c0-.06,0-.11,.01-.15,.01-.19,.03-.37,.04-.56,.01-.16,.03-.32,.05-.48v-.08c.02-.11,.02-.22,.03-.32,0-.03,0-.06,0-.09,.02-.2,.04-.41,.06-.61v-.09c.04-.24,.06-.47,.1-.72,.08-.52,.17-1.02,.26-1.54,0-.02,0-.05,.01-.07,.01-.08,.03-.16,.04-.24v-.02c.02-.07,.03-.15,.04-.22v-.03h0c.02-.11,.04-.2,.06-.29,.02-.09,.04-.17,.06-.26,0-.02,.01-.05,.02-.07l.02-.1s.01-.03,.01-.05c.01-.07,.03-.12,.05-.19,.01-.07,.03-.12,.05-.19,.03-.11,.05-.22,.08-.32,.05-.22,.1-.44,.16-.66,.09-.35,.18-.69,.28-1.03h0c.05-.2,.11-.38,.17-.56,.05-.16,.09-.31,.14-.47,.06-.18,.13-.36,.19-.54,.03-.09,.07-.18,.1-.28v-.02h0c.1-.28,.19-.56,.29-.83h0c.11-.29,.19-.57,.3-.85,.01-.02,.02-.05,.02-.07,.01-.02,.02-.05,.02-.07t.01-.02h0c.02-.05,.03-.1,.05-.14,.04-.1,.09-.2,.13-.3,0-.02,.02-.04,.02-.06,0-.01,.01-.02,.01-.03l.03-.07c.02-.05,.05-.11,.07-.16,.09-.2,.18-.41,.27-.61,.07-.16,.13-.3,.2-.46,0-.02,0-.03,.02-.05,.06-.15,.13-.3,.21-.45l.02-.05s.05-.09,.07-.15c.01-.01,.02-.03,.03-.05l.02-.04h0c.19-.4,.39-.78,.6-1.16,.19-.37,.39-.73,.59-1.09,0-.02,.02-.03,.03-.05l-3.82,3.7-22.61,22.01h0v.02h0l-29.08,28.32c-4.35,4.35-7.45,9.45-9.33,14.89-1.87,5.44-2.51,11.21-1.92,16.88h24.18c.44,0,.87,.03,1.29,.07h.03s.06,0,.09,.01c.09,0,.18,.02,.27,.03,.18,.02,.35,.05,.52,.08,.18,.02,.35,.05,.52,.08,.05,.01,.09,.02,.14,.02,.02,0,.05,.01,.07,.02,.02,0,.05,0,.07,.01,.27,.06,.52,.13,.78,.2,.11,.03,.22,.05,.33,.08,.03,.01,.07,.02,.1,.02t.02,.01c.07,.02,.13,.04,.2,.07,.05,.02,.11,.03,.16,.05,.04,.01,.07,.03,.11,.04,.02,0,.05,.02,.07,.02,.08,.03,.16,.06,.25,.09,.14,.05,.28,.1,.42,.15l.41,.17c.13,.06,.25,.12,.38,.18l.04,.02c.1,.05,.2,.09,.3,.14,.11,.05,.23,.1,.33,.16,.01,.01,.03,.02,.04,.03l.1,.06c.1,.06,.2,.12,.3,.17l.61,.37c.17,.11,.34,.23,.51,.34,.06,.05,.13,.1,.19,.15,.11,.08,.21,.16,.32,.24,.18,.14,.35,.29,.52,.43h.01c.1,.09,.2,.17,.3,.26,.05,.05,.09,.09,.14,.13,.08,.07,.16,.14,.23,.21s.17,.15,.25,.23c.11,.11,.22,.24,.33,.36l.06,.06,.02,.02h0c.2,.22,.39,.44,.58,.67l.04,.05,.03,.03s.01,.02,.02,.03c0,0,.02,.02,.02,.03,.02,.02,.03,.04,.05,.06,.02,.03,.04,.05,.06,.08,.06,.08,.12,.17,.19,.26,.07,.08,.14,.17,.19,.25,.03,.05,.07,.11,.11,.17,.02,.04,.05,.07,.07,.11v.02h.02c.04,.07,.08,.13,.12,.19,.08,.12,.16,.23,.23,.35,.13,.21,.24,.42,.36,.64,.05,.09,.11,.18,.15,.27,.1,.2,.2,.41,.29,.61,.06,.13,.11,.27,.16,.4,.04,.09,.08,.18,.12,.27,.16,.38,.29,.77,.41,1.17v.03l.02,.02c.15,.5,.28,1,.38,1.52,.04,.21,.09,.41,.12,.62,0,.04,.01,.09,.02,.14,.02,.12,.04,.24,.05,.37h0v.02s0,.05,0,.07c0,.05,0,.11,.01,.16,.02,.17,.04,.34,.05,.51v.02c0,.08,0,.15,.01,.23,.01,.23,.03,.46,.03,.69h0c0,1.79-.33,3.51-.91,5.1-.03,.07-.05,.14-.07,.21-.21,.55-.46,1.08-.73,1.59,0,.01-.01,.03-.02,.05,0,.01-.01,.02-.02,.03-.13,.23-.26,.46-.39,.69-.01,.02-.02,.05-.04,.07-.02,.03-.04,.06-.06,.09-.13,.21-.27,.42-.41,.62,0,0-.01,.02-.02,.03h0s-.05,.08-.08,.12c-.39,.54-.81,1.06-1.27,1.55-.06,.06-.12,.12-.18,.18-.24,.25-.5,.49-.76,.72-.07,.06-.13,.12-.2,.18-.39,.33-.79,.64-1.21,.94-.1,.07-.21,.14-.31,.21-.42,.28-.86,.54-1.31,.78-.02,.01-.05,.03-.07,.04-.28,.15-.57,.28-.87,.4-.02,0-.03,.01-.05,.02-.19,.08-.38,.16-.57,.23-.08,.03-.16,.07-.25,.1-.19,.08-.39,.15-.6,.21-1.38,.43-2.87,.66-4.4,.66h-5.12c6.13,3.63,13.03,5.44,19.93,5.44,.48,0,.97-.02,1.44-.03,.34-3.2,1.93-6.25,4.68-8.33l7.4-5.57c4.64-3.5,11.01-3.11,15.19,.62l5.41-5.52c-43.53-41.33-32.61-76.33-32.61-76.33,0,0-10.91,35,32.61,76.33l14.4-14.7,6.06-6.42,26.57-28.15c-5.77,3.39-12.48,5.34-19.65,5.34-.11,0-.24-.01-.36-.01h-.02c-.47-.01-.93-.01-1.4-.03-.01,0-.02,0-.04,0-.06,0-.11-.01-.17-.01-.16,0-.31-.02-.47-.03Z"/><path class="c" d="M295.46,271.96h0c-.01,.08-.03,.16-.04,.24v-.03c.02-.07,.03-.14,.04-.21Z"/><path class="c" d="M267.53,349.91s.03,.03,.04,.05h0s-.03-.03-.05-.05Z"/><path class="c" d="M268,350.38s-.05-.05-.07-.07c0,.01,.02,.02,.03,.03,0,.01,.02,.02,.03,.03,.03,.03,.06,.06,.08,.08-.02-.03-.05-.05-.07-.08Z"/><path class="c" d="M331.16,317.96h-.03c.15,.01,.31,.02,.47,.03-.07,0-.15-.01-.22-.02-.08,0-.15-.01-.22-.01Z"/><path class="c" d="M298.85,296.51c.04,.08,.08,.15,.12,.23-.03-.06-.07-.13-.1-.19l-.02-.03Z"/><path class="c" d="M310.36,310.3c.08,.06,.16,.12,.25,.18-.04-.03-.07-.06-.11-.08-.05-.03-.09-.07-.14-.1Z"/><path class="c" d="M299.62,297.99l.03,.05h0l-.02-.05Z"/><path class="c" d="M297.85,264.13s.01-.03,.02-.05l.27-.61c.07-.15,.12-.29,.19-.44,0,0,0-.01,0-.02-.06,.15-.12,.3-.2,.46-.09,.2-.18,.41-.27,.61-.02,.05-.05,.11-.07,.16v-.02l.05-.09Z"/><path class="c" d="M298.58,262.46l-.02,.05v-.02l.02-.02Z"/><path class="c" d="M297.08,266.15c.04-.1,.07-.2,.11-.31-.1,.27-.19,.55-.29,.83l.02-.07c.05-.15,.11-.3,.16-.45Z"/><path class="c" d="M296.89,266.68c-.03,.09-.07,.18-.1,.28,.02-.05,.04-.1,.05-.15,.01-.04,.03-.08,.04-.13Z"/><path class="c" d="M298.65,262.32s.01-.02,.02-.04v-.02s0,.03-.02,.05c-.02,.06-.05,.1-.07,.15h0c.02-.05,.04-.09,.06-.14Z"/><path class="c" d="M295.04,274.67v-.06c-.01,.2-.03,.41-.06,.61,0-.06,.01-.13,.02-.19,.01-.12,.02-.24,.03-.36Z"/><path class="c" d="M294.95,275.63v0Z"/><path class="c" d="M302.93,303.01s.04,.05,.06,.08l-.02-.03s-.03-.03-.04-.05Z"/><path class="c" d="M327.51,317.55c-.07,0-.14-.02-.21-.03h0c.17,.03,.34,.05,.51,.07h0c-.1-.01-.21-.03-.31-.04Z"/><path class="c" d="M304.12,304.47h0l-.06-.07s.04,.05,.06,.07c.01,.01,.03,.03,.04,.04,0,0-.01-.02-.02-.02l-.02-.02Z"/><path class="c" d="M304.17,304.53l.02,.02-.02-.02h0Z"/><path class="c" d="M306.48,306.98s.05,.05,.08,.08h0s-.08-.08-.13-.12c.02,.01,.03,.03,.05,.05Z"/><path class="c" d="M307.54,307.99s.02,.01,.03,.03c.04,.03,.08,.07,.12,.11-.05-.04-.09-.08-.14-.13,0,0,0,0-.01,0Z"/><path class="c" d="M267.74,350.1c-.08-.08-.17-.15-.25-.23h0c.08,.08,.17,.15,.25,.23Z"/><path class="c" d="M298.58,262.47v-.02h0v.02Z"/><path class="c" d="M313.92,312.68h0l-.06-.04h-.02l.08,.04Z"/><path class="c" d="M303.12,303.24h0Z"/><path class="c" d="M304.06,304.4l-.1-.12s.06,.08,.1,.12l.06,.07s-.04-.05-.06-.07Z"/><path class="c" d="M301.28,300.73h0s-.02-.04-.03-.06h0s.02,.04,.04,.06Z"/><path class="c" d="M302.51,302.45s-.03-.04-.04-.06c-.02-.02-.03-.03-.04-.05,.03,.04,.06,.07,.09,.11Z"/><path class="c" d="M323.72,316.76h0Z"/><path class="c" d="M295.02,274.92c0-.09,.01-.17,.02-.25-.01,.12-.02,.24-.03,.36,0-.04,0-.07,.01-.11Z"/><path class="c" d="M305.79,306.3s-.05-.06-.08-.09c-.05-.05-.11-.11-.16-.17,.08,.08,.16,.17,.24,.25Z"/><path class="c" d="M294.83,281.47h0c-.03-.54-.04-1.08-.05-1.62h0c0,.53,.02,1.08,.05,1.62Z"/><path class="c" d="M295.34,285.86v-.03c-.05-.27-.09-.54-.13-.81v-.06c.04,.3,.08,.6,.13,.9Z"/><path class="c" d="M296.27,289.94s-.02-.07-.03-.1c-.04-.13-.07-.26-.11-.39,0-.03-.02-.06-.03-.09,.05,.19,.11,.39,.16,.58Z"/><path class="c" d="M295.77,288.01v-.06c-.07-.24-.12-.48-.17-.72v-.07c.04,.28,.1,.57,.17,.85Z"/><path class="c" d="M296.79,291.64l-.02-.06,.02,.06Z"/><path class="c" d="M295.02,283.69h0c-.04-.35-.06-.69-.09-1.02v-.04c.03,.35,.05,.71,.09,1.06Z"/><path class="c" d="M326.56,317.4h0Z"/><path class="b" d="M326.63,317.42h.08s-.05,0-.08,0Z"/><path class="b" d="M326.58,317.41h0Z"/><path class="b" d="M233.14,345.76h0c-.59-5.67,.05-11.44,1.92-16.88-1.87,5.44-2.51,11.21-1.92,16.88Z"/><polygon class="b" points="273.47 285.67 273.47 285.67 273.47 285.66 273.47 285.66 273.47 285.67"/><path class="b" d="M266.82,349.28h-.01v0Z"/><path class="b" d="M266.8,349.26h0c-.17-.14-.34-.29-.52-.43-.1-.08-.21-.16-.32-.24,.1,.08,.21,.15,.31,.24,.18,.14,.35,.28,.52,.43Z"/><path class="b" d="M264.22,347.5s.03,.02,.05,.03h0s-.03-.02-.05-.03c-.2-.11-.42-.2-.63-.3h0c.21,.1,.43,.2,.64,.3Z"/><path class="b" d="M264.36,347.58l-.1-.06h0l.09,.06Z"/><path class="b" d="M263.59,347.19l-.04-.02,.04,.02h0Z"/><path class="b" d="M261.43,346.37s.07,.02,.11,.03h0s-.07-.02-.11-.03Z"/><path class="b" d="M268.15,350.54h0l-.02-.02h-.02s.02,0,.03,.02Z"/><path class="b" d="M268.79,351.28l-.02-.03h0l.03,.03Z"/><path class="b" d="M268.07,350.46s.03,.03,.04,.04h.02l-.06-.05s-.05-.05-.07-.07c.02,.03,.05,.05,.07,.08Z"/><path class="b" d="M268.15,350.54c.2,.21,.39,.44,.57,.66,.01,.01,.02,.03,.03,.04h0l-.04-.04c-.19-.23-.38-.45-.58-.66h0Z"/><path class="b" d="M259,345.88c.35,.03,.7,.09,1.04,.16,.04,0,.09,.01,.13,.02-.04,0-.09-.01-.13-.02-.34-.07-.69-.12-1.04-.16-.09-.01-.18-.02-.27-.03h-.03c.1,0,.2,.01,.31,.03Z"/><path class="b" d="M258.73,345.84s-.06,0-.09,0c.02,0,.04,0,.06,0h.03Z"/><path class="b" d="M268.94,351.48c.13,.17,.26,.33,.38,.51,.06,.06,.1,.14,.15,.21l-.03-.05c-.04-.06-.07-.11-.11-.17-.12-.17-.25-.34-.38-.51Z"/><path class="b" d="M269.51,352.26s-.05-.07-.07-.11l.03,.05s.03,.04,.04,.06Z"/><path class="b" d="M270.34,367.52h0c-.28,.52-.59,1.03-.93,1.51h0c.34-.49,.64-.99,.92-1.51Z"/><path class="b" d="M271.97,362.23v.03h0v-.03Z"/><path class="b" d="M271.65,364.08h0c.14-.58,.24-1.17,.31-1.77h0c-.22,1.86-.77,3.61-1.61,5.19h0c.56-1.07,1-2.22,1.3-3.42Z"/><path class="b" d="M266.79,371.89l.02-.02c-.33,.28-.67,.54-1.03,.79h0c.34-.25,.67-.5,.99-.77Z"/><path class="b" d="M265.24,373.02h0c-.35,.22-.71,.44-1.08,.64h0c.37-.2,.72-.41,1.07-.64Z"/><path class="b" d="M269.36,369.09h.01c-.28,.38-.59,.75-.9,1.12v-.02c.32-.36,.62-.72,.89-1.11Z"/><path class="b" d="M268.13,370.6h0c-.28,.3-.58,.59-.89,.87l.03-.03c.29-.27,.58-.54,.85-.83Z"/><path class="b" d="M266.81,371.87l-.02,.02s.08-.06,.12-.09h0s-.07,.04-.11,.07Z"/><path class="b" d="M265.78,372.66s-.06,.05-.1,.08h0s.07-.06,.1-.08h0Z"/><path class="b" d="M271.65,364.08h0Z"/><path class="b" d="M268.49,370.2v.02c-.12,.13-.23,.26-.34,.38h0c.12-.12,.24-.26,.35-.4Z"/><path class="b" d="M271.97,362.25h0s0,.04,0,.05h0s0-.04,0-.05Z"/><path class="b" d="M264.17,373.66s-.06,.04-.1,.06h0s.07-.04,.1-.06h0Z"/><path class="b" d="M267.25,371.47c-.05,.05-.1,.11-.16,.16h.02c.06-.07,.12-.13,.18-.19l-.03,.03Z"/><path class="b" d="M265.25,373.01h0s.09-.05,.14-.08h0s-.09,.05-.14,.08Z"/><path class="c" d="M316.87,314.26c-.06-.03-.12-.06-.18-.09-.11-.05-.22-.1-.33-.15,.17,.09,.34,.17,.51,.24Z"/><path class="c" d="M313.93,312.69c.05,.03,.11,.06,.16,.09-.05-.03-.1-.06-.16-.09h0Z"/><path class="c" d="M313.8,312.61l.04,.03h0l-.05-.03Z"/><path class="b" d="M313.85,312.64h0l.09,.05h0l-.08-.05Z"/><path class="c" d="M311.8,311.34l-.07-.05h-.02s.06,.03,.09,.05Z"/><path class="c" d="M303.97,304.28c-.29-.34-.56-.68-.84-1.03,.04,.04,.07,.09,.1,.13v.02c.1,.12,.19,.24,.28,.35,.08,.1,.17,.2,.25,.3l.18,.21v.02Z"/><path class="b" d="M303.95,304.26l-.18-.21c.1,.12,.2,.23,.3,.35-.03-.04-.06-.08-.1-.12v-.02Z"/><path class="b" d="M303.13,303.25h-.01s.09,.09,.13,.15v-.02s-.08-.09-.11-.13Z"/><path class="c" d="M302.37,302.27s.04,.05,.05,.07h0s-.04-.04-.06-.07Z"/><path class="b" d="M302.42,302.34h0s.07,.08,.1,.13v-.02s-.07-.07-.1-.11Z"/><path class="c" d="M323.02,316.57s.04,.01,.06,.02l.05,.02c.17,.05,.33,.1,.5,.15-.18-.05-.37-.11-.55-.16-.13-.04-.26-.08-.4-.12,.11,.03,.23,.07,.34,.1Z"/><path class="b" d="M323.02,316.57s.08,.02,.11,.03l-.05-.02s-.04-.01-.06-.02Z"/><path class="c" d="M323.64,316.75h.06s-.04,0-.06,0Z"/><path class="b" d="M323.7,316.76h-.01l.2,.05c-.05-.01-.11-.03-.17-.04h-.02Z"/><polygon class="c" points="305.8 306.31 305.8 306.31 305.81 306.32 305.8 306.31"/><path class="c" d="M305.11,305.59c.13,.14,.27,.28,.4,.42l.03,.03c-.15-.15-.29-.3-.43-.45Z"/><path class="b" d="M305.79,306.3c-.08-.08-.16-.17-.24-.25l-.03-.03c.1,.1,.19,.2,.29,.3h0v-.02Z"/><path class="c" d="M304.56,304.97s-.07-.07-.1-.11l.04,.05c.17,.19,.33,.37,.49,.56-.14-.16-.29-.33-.43-.5Z"/><path class="b" d="M304.45,304.85s.03,.04,.05,.06l-.04-.05h-.01Z"/><path class="c" d="M326.52,317.4h0Z"/><path class="b" d="M326.58,317.41h0Z"/><path class="c" d="M326.09,317.3s.07,.02,.1,.02c.11,.02,.22,.05,.33,.07-.14-.03-.28-.06-.43-.1-.1-.02-.19-.04-.29-.06,.09,.02,.19,.04,.28,.06Z"/><path class="b" d="M325.81,317.24c-.16-.04-.32-.07-.48-.11,.29,.06,.58,.13,.87,.19-.03,0-.07-.01-.1-.02-.1-.02-.19-.04-.28-.06Z"/><path class="c" d="M327.08,317.49c-.1-.02-.2-.03-.3-.05h0c.1,.01,.2,.03,.31,.05Z"/><path class="c" d="M328.81,317.73h0s.05,0,.07,0h.01s-.05,0-.08,0Z"/><path class="b" d="M328.88,317.74c.17,.02,.35,.05,.52,.07-.17-.02-.34-.05-.51-.07h-.01Z"/><path class="c" d="M295.65,271.07h0l.02-.1s0-.03,0-.05c-.01,.05-.02,.1-.03,.15Z"/><path class="b" d="M295.65,271.07s0,.05-.02,.07v-.06h.02Z"/><path class="b" d="M326.78,317.44h0Z"/><path class="b" d="M326.58,317.41h0Z"/><polygon class="b" points="326.58 317.41 326.58 317.41 326.58 317.41 326.58 317.41"/><path class="b" d="M326.71,317.43h0Z"/><path class="b" d="M333.19,318.03h.03c.12,0,.24,0,.36,0h-.03c-.12,0-.23,0-.35,0Z"/><path class="b" d="M331.79,318c.47,.02,.95,.03,1.43,.03h-.03c-.47,0-.93-.01-1.4-.03Z"/><path class="b" d="M326.58,317.41h0Z"/><path class="b" d="M326.71,317.43h0Z"/><path class="b" d="M326.62,317.42h0s.07,.01,.1,.02h0l-.09-.02Z"/><path class="b" d="M323.29,266.58c0,.19,.02,.38,.06,.55,.01,.06,.04,.12,.06,.19,.03,.11,.06,.23,.1,.33,.02,.05,.05,.09,.07,.13,.06,.12,.11,.23,.18,.34h.01c.4,.59,1.01,1.01,1.72,1.16,.18,.04,.36,.06,.55,.06,1.53,0,2.76-1.24,2.76-2.76s-1.23-2.75-2.76-2.75c-.57,0-1.09,.17-1.53,.47-.73,.5-1.21,1.33-1.21,2.28Z"/><path class="b" d="M347.87,285.65c0-1.52-1.23-2.75-2.76-2.75-.38,0-.74,.08-1.07,.22-.99,.42-1.68,1.4-1.68,2.54,0,1.33,.94,2.44,2.2,2.7,.18,.04,.36,.05,.55,.05,1.53,0,2.76-1.23,2.76-2.76Z"/><path class="b" d="M311.5,247.32c1.54-1.07,3.16-2.03,4.86-2.87-1.69,.84-3.32,1.8-4.86,2.87Z"/><path class="b" d="M372.39,279.23c0-9.55-3.46-18.29-9.18-25.06h0c5.73,6.76,9.19,15.51,9.19,25.06Z"/><path class="b" d="M363.2,254.18h0c-7.12-8.41-17.75-13.76-29.63-13.76,11.88,0,22.51,5.35,29.62,13.76Z"/><path class="b" d="M363.2,254.18l-13.53,4.03c-3.62,1.08-5.63,4.93-4.46,8.51l1.58,4.82-1.58-4.82c-1.17-3.59,.84-7.44,4.46-8.51l13.53-4.03h0c-7.12-8.41-17.75-13.76-29.62-13.76-.97,0-1.93,.04-2.88,.11-.3,.02-.59,.06-.89,.09-.66,.06-1.31,.13-1.95,.23-.33,.05-.66,.11-.99,.17-.61,.11-1.21,.22-1.81,.36-.32,.07-.64,.15-.96,.23-.61,.15-1.21,.32-1.8,.5-.29,.09-.58,.18-.86,.27-.64,.21-1.27,.44-1.89,.68-.23,.09-.46,.17-.68,.27-.74,.3-1.46,.63-2.17,.98-.1,.05-.21,.09-.31,.15-1.69,.84-3.32,1.8-4.86,2.87-.09,.06-.17,.12-.25,.19-.17,.13-.34,.26-.52,.38-.28,.2-.54,.41-.81,.61-.24,.19-.49,.37-.73,.56-.43,.34-.85,.69-1.26,1.05-.19,.17-.38,.35-.57,.53-.15,.13-.29,.28-.43,.41-.25,.23-.5,.47-.74,.71-.09,.09-.18,.18-.27,.28-.09,.09-.17,.18-.26,.26-.39,.4-.77,.81-1.14,1.23-.16,.18-.31,.35-.46,.53-.31,.37-.61,.74-.91,1.12-.06,.08-.13,.15-.19,.23-.13,.17-.26,.34-.39,.5-.38,.5-.74,1.02-1.09,1.54-.09,.14-.19,.28-.29,.42-.44,.67-.87,1.35-1.27,2.04h0s-.02,.04-.03,.05c-.42,.74-.81,1.49-1.19,2.26h0s-.01,.02-.01,.03h0l-.02,.05s-.04,.1-.07,.15c-.38,.8-.74,1.62-1.07,2.45,0,.02-.02,.05-.03,.07-.11,.28-.2,.56-.3,.84-.04,.12-.08,.23-.12,.35-.02,.07-.05,.14-.07,.22l-.06,.15c-.11,.32-.23,.63-.34,.95-.11,.34-.21,.68-.32,1.02-.1,.34-.19,.69-.28,1.04-.11,.39-.19,.78-.28,1.18-.01,.06-.03,.12-.04,.19v.05c-.02,.06-.04,.11-.05,.17-.05,.18-.09,.36-.12,.55-.02,.09-.03,.18-.05,.28h0c-.01,.06-.01,.1-.02,.15v.06s-.02,.07-.03,.1c-.09,.51-.19,1.02-.26,1.54-.03,.24-.06,.48-.09,.72-.03,.26-.05,.53-.08,.79-.03,.29-.07,.58-.08,.88-.02,.24-.05,.47-.06,.71-.05,.77-.08,1.54-.08,2.33,0,.21,.01,.41,.02,.62,0,.54,.02,1.08,.05,1.62,.02,.4,.06,.8,.1,1.19,.03,.34,.05,.68,.09,1.01,.05,.45,.12,.9,.18,1.34,.04,.27,.08,.54,.12,.81,.08,.47,.17,.94,.27,1.4,.05,.24,.1,.48,.16,.72,.12,.5,.24,1.01,.38,1.5,.04,.13,.07,.26,.11,.39,.55,1.92,1.23,3.78,2.05,5.57,.15,.33,.33,.64,.49,.97,.03,.06,.06,.12,.09,.18,.03,.06,.06,.11,.09,.17,.04,.07,.07,.14,.1,.21,.15,.31,.3,.62,.47,.92,.01,.03,.03,.05,.04,.08,.01,.02,.02,.03,.03,.05,0,.01,.01,.01,.01,.02h0l.02,.05c.5,.89,1.02,1.76,1.58,2.61,.01,.02,.02,.04,.03,.05h0c.38,.57,.78,1.12,1.18,1.66,.01,.01,.02,.03,.03,.04,0,.01,.01,.01,.01,.02s.01,.01,.01,.01c0,0,0,.01,0,.01h0v.02h.02v.03c.18,.23,.36,.45,.53,.68,.32,.4,.64,.8,.97,1.19l.06,.07s.01,.02,.02,.03l.02,.03h.01v.03h.02l.02,.03,.04,.04,.02,.02s.03,.03,.04,.05c.05,.05,.09,.11,.14,.16,.04,.04,.07,.08,.11,.12,.38,.42,.76,.84,1.15,1.24,.03,.03,.05,.05,.08,.08h.01v.02h.02v.02h.01v.02h0s.01,.01,.02,.02c.47,.48,.97,.94,1.46,1.4,.16,.15,.31,.31,.48,.46h.02v.02h0s0,0,0,0h0c.56,.5,1.14,.98,1.72,1.44,.19,.16,.38,.3,.59,.45,.05,.04,.09,.07,.14,.1,.02,.02,.05,.03,.07,.05,.02,.02,.04,.03,.06,.05,.35,.26,.71,.52,1.07,.78,.07,.05,.15,.11,.22,.16l.02,.02s.04,.03,.07,.04c.18,.12,.35,.24,.53,.35,.28,.18,.56,.35,.84,.53,.21,.13,.41,.27,.63,.39,.02,.01,.05,.03,.07,.04,.01,0,.02,.01,.03,.01,0,0,.02,.01,.03,.02h.02l.16,.1c.14,.09,.28,.17,.43,.25,.3,.17,.62,.33,.93,.5,.3,.16,.59,.33,.9,.48h.01c.11,.06,.21,.11,.32,.16,.06,.03,.13,.06,.19,.09,.54,.26,1.09,.51,1.65,.74,.05,.02,.11,.04,.16,.07l.52,.21c.69,.28,1.39,.54,2.11,.78,.11,.05,.24,.08,.35,.11,.34,.11,.69,.2,1.04,.3,.13,.04,.26,.08,.39,.12,.18,.06,.37,.11,.56,.16l.06,.02h.01s.03,0,.04,.01c.04,.01,.09,.02,.13,.03,.1,.03,.19,.06,.29,.08,.38,.1,.77,.17,1.15,.25,.25,.06,.51,.12,.77,.17,.14,.03,.28,.07,.43,.09h.05c.17,.04,.34,.06,.51,.09,.16,.03,.32,.05,.48,.07,.08,0,.15,.02,.23,.03,0,0,.02,0,.02,0,.04,0,.08,.01,.11,.02,.27,.04,.53,.08,.81,.11,.02,.01,.05,.01,.07,.01h.01s.06,0,.09,.01c.46,.05,.93,.1,1.39,.14,.4,.03,.8,.07,1.2,.09,.03,0,.06,0,.09,0,.02,0,.04,0,.06,0,.05,0,.09,0,.14,.01,.57,.03,1.16,.04,1.74,.04h.03c7.17,0,13.88-1.95,19.65-5.34,.72-.42,1.42-.87,2.11-1.33,.69-.47,1.36-.95,2.01-1.46,1.31-1.01,2.55-2.11,3.72-3.28s2.26-2.41,3.27-3.72c1.14-1.47,2.17-3.03,3.09-4.66,.31-.54,.6-1.1,.88-1.66,.75-1.49,1.4-3.04,1.96-4.63,.83-2.39,1.43-4.89,1.78-7.47,.23-1.72,.35-3.47,.35-5.26,0-9.55-3.46-18.3-9.19-25.05Zm-55.36,54.09h0Zm16.66-43.98c.44-.3,.97-.47,1.54-.47,1.52,0,2.76,1.23,2.76,2.76s-1.23,2.76-2.76,2.76c-.19,0-.38-.02-.56-.06-.71-.14-1.32-.57-1.72-1.15h-.01c-.07-.12-.13-.23-.18-.35-.02-.05-.05-.09-.07-.13-.04-.11-.07-.22-.1-.33-.02-.06-.04-.12-.06-.19-.04-.18-.06-.37-.06-.56,0-.95,.48-1.79,1.21-2.28Zm-6.34,17.37s3.15,12.97,12.97,12.97c-9.83,0-12.97-12.97-12.97-12.97Zm26.96,6.74c-.19,0-.38-.02-.56-.06-1.26-.25-2.2-1.36-2.2-2.7,0-1.14,.69-2.12,1.68-2.53,.33-.14,.7-.22,1.08-.22,1.52,0,2.76,1.23,2.76,2.76s-1.23,2.76-2.76,2.76Z"/><path class="b" d="M298.98,296.73c-.03-.05-.06-.11-.09-.17,.06,.13,.13,.25,.19,.38-.03-.07-.07-.14-.1-.21Z"/><path class="b" d="M296.13,289.45c.04,.13,.07,.26,.11,.39-.04-.13-.07-.26-.11-.39Z"/><path class="b" d="M313.89,312.66s-.02,0-.03-.01l.06,.03s-.02-.01-.03-.02Z"/><path class="b" d="M294.93,282.66c.03,.34,.05,.68,.09,1.01-.04-.33-.06-.67-.09-1.01Z"/><path class="b" d="M295.21,285.02c.04,.27,.08,.54,.12,.81-.05-.27-.08-.54-.12-.81Z"/><path class="b" d="M310.36,310.3s-.05-.03-.07-.05c.04,.03,.09,.07,.14,.1-.02-.02-.04-.03-.06-.05Z"/><path class="b" d="M302.56,302.51h-.01l.02,.02v-.02Z"/><path class="b" d="M298.68,262.26s.01-.02,.01-.02h0v.03h-.01Z"/><path class="b" d="M305.84,306.35h0l.02,.02s-.01-.01-.02-.02Z"/><path class="b" d="M307.83,308.25h0s0,0,0,0Z"/><path class="b" d="M304.27,304.64l-.02-.02,.06,.07s-.03-.04-.04-.05Z"/><path class="b" d="M299.91,259.93h0s-.02,.03-.02,.05c0-.02,.02-.03,.03-.05Z"/><path class="b" d="M295.6,287.23c.05,.24,.1,.48,.16,.72-.05-.24-.11-.48-.16-.72Z"/><polygon class="b" points="307.81 308.24 307.81 308.24 307.81 308.24 307.81 308.24"/><path class="b" d="M294.78,279.85c0,.54,.02,1.08,.05,1.62-.03-.54-.04-1.08-.05-1.62Z"/><path class="b" d="M296.99,266.4c.02-.07,.05-.15,.07-.22-.05,.12-.09,.25-.13,.37l.06-.15Z"/><path class="b" d="M295.44,272.11s.01-.09,.02-.14h0c-.01,.06-.02,.12-.03,.19v-.06Z"/><path class="b" d="M316.35,314c-.3-.15-.6-.32-.9-.48,.3,.16,.59,.33,.9,.48h0Z"/><path class="b" d="M323.75,316.77s-.03,0-.04-.01h.04Z"/><path class="b" d="M302.52,302.47h0s0,0,0,0c0,0-.01,0-.01-.01s-.01-.01-.01-.02c-.01-.01-.02-.03-.03-.04,.02,.02,.03,.04,.04,.06v.02Z"/><path class="b" d="M299.64,298.01s-.01-.01-.01-.02c-.01-.02-.02-.04-.03-.05,.02,.03,.03,.06,.05,.08h0Z"/><path class="b" d="M304.12,304.47h0l.02,.02s-.02-.01-.02-.03l-.06-.07s.04,.05,.06,.07h0Z"/><path class="b" d="M305.8,306.31h0v-.02s-.06-.05-.09-.08c.03,.03,.06,.06,.09,.09h0Z"/><polygon class="b" points="305.82 306.32 305.82 306.32 305.82 306.33 305.82 306.32"/><path class="b" d="M301.28,300.73s-.02-.04-.03-.05c.01,.02,.02,.04,.03,.06h0Z"/><path class="b" d="M304.19,304.55h0Z"/><path class="b" d="M327.79,317.58c-.08,0-.15-.02-.23-.03,.08,.01,.17,.02,.25,.04,0,0-.02,0-.02,0Z"/><path class="b" d="M331.6,317.98s-.06,0-.09,0c.05,0,.1,0,.15,.01-.02,0-.04,0-.06,0Z"/><polygon class="b" points="326.57 317.4 326.57 317.4 326.57 317.41 326.57 317.4"/><polygon class="b" points="307.81 308.24 307.8 308.23 307.81 308.24 307.81 308.24"/><path class="b" d="M307.84,308.27h0Z"/><polygon class="b" points="307.82 308.25 307.82 308.25 307.82 308.25 307.81 308.24 307.81 308.24 307.82 308.25"/><polygon class="b" points="307.81 308.24 307.81 308.24 307.81 308.24 307.81 308.24 307.81 308.24"/><polygon class="b" points="307.83 308.26 307.83 308.26 307.82 308.25 307.82 308.25 307.83 308.26"/><path class="b" d="M312.33,311.69c-.18-.11-.35-.23-.53-.35-.03-.02-.05-.03-.07-.04l.07,.05c.18,.12,.36,.23,.53,.35Z"/><path class="b" d="M314.53,313.03c-.15-.08-.29-.16-.43-.25l-.16-.09c.05,.03,.1,.06,.16,.09,.14,.08,.29,.17,.43,.25Z"/><path class="b" d="M325.32,317.13c.16,.04,.32,.07,.48,.11,.1,.02,.19,.04,.29,.06-.26-.06-.51-.12-.77-.17-.38-.08-.77-.15-1.15-.25,.31,.08,.63,.14,.94,.21,.07,.01,.14,.03,.21,.04Z"/><path class="b" d="M325.32,317.13c-.07-.01-.14-.03-.21-.04,.07,.01,.14,.03,.21,.05,.16,.04,.32,.07,.48,.11-.16-.04-.32-.07-.48-.11Z"/><path class="b" d="M328.91,317.74s-.06,0-.09-.01h-.01s-.05,0-.07-.01c-.27-.03-.54-.07-.81-.11,.3,.04,.59,.09,.89,.12,.03,0,.06,0,.09,0Z"/><path class="b" d="M323.9,316.81l.27,.07c-.1-.02-.19-.05-.29-.08-.04,0-.09-.02-.13-.03,.04,.01,.09,.03,.13,.03h.02Z"/><path class="b" d="M323.88,316.81h0s-.09-.02-.13-.04h-.03c.06,0,.11,.02,.17,.04Z"/><path class="b" d="M305.83,306.34h0Z"/><path class="b" d="M305.82,306.32h0Z"/><polygon class="b" points="305.82 306.33 305.82 306.33 305.82 306.32 305.82 306.32 305.82 306.33"/><polygon class="b" points="305.8 306.31 305.8 306.31 305.79 306.3 305.8 306.31"/><path class="b" d="M323.08,316.58c-.13-.04-.26-.08-.39-.12-.35-.1-.7-.19-1.04-.3,.34,.11,.69,.2,1.03,.3,.13,.04,.27,.08,.4,.12Z"/><path class="b" d="M316.68,314.17c-.11-.05-.21-.1-.32-.16h0c.11,.06,.22,.11,.33,.16Z"/><path class="b" d="M304.46,304.86s.07,.07,.1,.11c-.04-.04-.07-.08-.11-.12-.05-.05-.09-.11-.14-.16,.04,.05,.09,.11,.14,.16h0Z"/><path class="b" d="M304.25,304.62l-.04-.04,.03,.04h0Z"/><path class="b" d="M304.45,304.85h0c-.05-.05-.09-.11-.14-.16l-.06-.07h0c.07,.07,.13,.15,.2,.23Z"/><polygon class="b" points="302.53 302.48 302.53 302.48 302.53 302.48 302.53 302.48"/><path class="b" d="M302.51,302.45v.02h.01v-.02Z"/><path class="b" d="M295.63,271.14c-.01,.06-.03,.12-.04,.17-.03,.12-.06,.25-.08,.37,.03-.19,.08-.37,.12-.55,0-.05,.02-.11,.04-.17l-.02,.11v.06Z"/><path class="b" d="M295.63,271.14v0c-.01,.06-.03,.12-.04,.18,.01-.06,.03-.12,.04-.17Z"/><path class="b" d="M305.91,252.04c.09-.09,.18-.18,.27-.28,.24-.24,.49-.47,.74-.71-.25,.24-.51,.47-.75,.71-.09,.09-.18,.18-.27,.27Z"/><path class="b" d="M302.56,255.93h0c.13-.17,.26-.33,.39-.5,.06-.08,.13-.16,.19-.23-.06,.08-.13,.15-.19,.23-.13,.17-.26,.33-.39,.5Z"/><path class="b" d="M309.93,248.5c.27-.2,.53-.41,.81-.61,.17-.13,.34-.26,.52-.38-.17,.13-.35,.25-.52,.38-.27,.2-.53,.41-.8,.61Z"/><path class="b" d="M304.14,304.5l.03,.04h0l-.02-.04h0Z"/><path class="b" d="M304.21,304.57l-.02-.02h0l.02,.02Z"/><path class="b" d="M304.14,304.49l-.02-.02,.02,.02h0Z"/><path class="b" d="M304.19,304.55l-.02-.02h0l.02,.02h0Z"/><path class="b" d="M304.21,304.57l-.02-.02h0l.04,.05h0l-.03-.03Z"/><polygon class="b" points="304.19 304.55 304.2 304.56 304.2 304.56 304.19 304.55"/><path class="b" d="M304.24,304.61s.06,.07,.09,.1t.01,.01s.03,.05,.06,.07c.02,.02,.03,.04,.05,.06-.07-.08-.13-.16-.2-.24h0Z"/><polygon class="b" points="298.69 262.24 298.7 262.24 298.69 262.24 298.69 262.24"/><path class="b" d="M298.66,262.32l.02-.05v.02l-.02,.03Z"/><path class="b" d="M298.68,262.27v0l.02-.03h0s-.01,.02-.02,.03Z"/><polygon class="b" points="299.91 259.94 299.91 259.93 299.91 259.94 299.91 259.94"/><path class="b" d="M298.69,262.23h0c.37-.77,.77-1.51,1.19-2.25h0c-.42,.74-.81,1.49-1.19,2.25Z"/><path class="b" d="M298.69,262.23l-.02,.04s.01-.02,.02-.03h0Z"/><path class="b" d="M299.88,259.99h0s.02-.04,.02-.05h0s-.02,.03-.03,.05Z"/><path class="b" d="M331.8,318s-.09,0-.14-.01c.02,0,.03,0,.05,0,.03,0,.07,0,.1,0Z"/><path class="b" d="M331.5,317.97c-.4-.03-.8-.06-1.2-.09,.36,.03,.72,.06,1.09,.09,.04,0,.08,0,.12,0Z"/><path class="b" d="M331.6,317.98s.07,0,.1,0c-.02,0-.03,0-.05,0-.05,0-.1,0-.15-.01-.04,0-.08,0-.12,0,.07,0,.14,.01,.21,.02Z"/><path class="b" d="M333.54,318.04c-.59,0-1.17-.01-1.74-.04,.46,.03,.93,.03,1.39,.04,.12,0,.23,0,.35,0Z"/><path class="b" d="M331.8,318s-.06,0-.1,0c.02,0,.04,0,.06,0h.03c.46,.02,.93,.03,1.4,.04-.47,0-.93,0-1.39-.04Z"/><path class="b" d="M331.76,318s-.04,0-.06,0c-.03,0-.07,0-.1,0,.05,0,.11,0,.16,.01Z"/><path class="b" d="M313.17,312.22c-.28-.17-.56-.35-.84-.53,.16,.1,.32,.2,.48,.31,.12,.07,.24,.15,.36,.22Z"/><path class="b" d="M312.33,311.7c.16,.1,.32,.2,.48,.3-.16-.1-.32-.2-.48-.31-.17-.12-.35-.23-.53-.35,.17,.12,.35,.23,.53,.35Z"/><path class="b" d="M299.6,297.94s-.03-.05-.04-.08c0,.02,.02,.04,.03,.06v.02Z"/><path class="b" d="M299.67,298.07l-.02-.04h0s.01,.03,.02,.04Z"/><path class="b" d="M299.62,297.99l.02,.04h0s-.03-.06-.05-.09v-.02s.02,.05,.03,.07Z"/><path class="b" d="M298.88,296.56c-.03-.06-.06-.12-.09-.18,.03,.05,.05,.11,.08,.16v.02Z"/><path class="b" d="M299.55,297.86c-.17-.3-.32-.61-.47-.92l.02,.04c.15,.3,.29,.59,.45,.88Z"/><path class="b" d="M298.97,296.73c.04,.08,.09,.16,.13,.25l-.02-.04c-.06-.13-.13-.25-.19-.38v-.02c.02,.06,.06,.13,.09,.19Z"/><path class="b" d="M299.13,297.04c.07,.14,.14,.28,.22,.43,.07,.13,.13,.27,.21,.4,0,.02,.02,.04,.03,.05-.01-.02-.02-.04-.03-.06-.16-.29-.31-.58-.45-.88l.03,.06Z"/><path class="b" d="M298.97,296.73c.05,.1,.11,.2,.16,.31l-.03-.06c-.04-.08-.09-.17-.13-.25Z"/><path class="b" d="M299.55,297.87c-.07-.13-.14-.27-.21-.4,.07,.13,.13,.27,.2,.4,.02,.04,.05,.09,.08,.13-.01-.02-.03-.05-.04-.07-.01-.02-.02-.03-.03-.05Z"/><path class="b" d="M323.93,316.82c.08,.02,.16,.04,.24,.06,.23,.06,.47,.11,.71,.15,.08,.02,.15,.03,.23,.05-.31-.07-.63-.13-.94-.21l-.27-.07h.03Z"/><path class="b" d="M323.88,316.81h0Z"/><path class="b" d="M324.88,317.04c.15,.03,.29,.06,.44,.1-.07-.02-.14-.03-.21-.05-.08-.02-.15-.03-.23-.05Z"/><path class="b" d="M314.52,313.03s.1,.05,.15,.08c.26,.14,.52,.28,.79,.42-.31-.17-.62-.33-.93-.5-.15-.08-.29-.16-.43-.25,.14,.08,.28,.17,.43,.25Z"/><polygon class="b" points="316.36 314.01 316.35 314.01 316.35 314.01 316.35 314.01 316.36 314.01"/><path class="b" d="M316.35,314.01h0c-.3-.15-.6-.32-.9-.48-.26-.14-.53-.27-.79-.42,.55,.31,1.11,.61,1.68,.9Z"/><polygon class="b" points="302.54 302.49 302.53 302.48 302.54 302.49 302.54 302.49"/><path class="b" d="M302.61,302.58c.04,.06,.09,.13,.13,.19,.11,.15,.24,.28,.35,.43-.18-.23-.35-.45-.53-.68v.02l.04,.04Z"/><path class="b" d="M302.58,302.54v-.02l-.04-.03h0s.03,.03,.04,.05Z"/><polygon class="b" points="302.53 302.48 302.54 302.49 302.54 302.49 302.53 302.48 302.53 302.48 302.53 302.48"/><path class="b" d="M302.58,302.54h0l.03,.04-.03-.04Z"/><path class="b" d="M302.54,302.49h0s.03,.04,.04,.06h0s-.03-.04-.04-.06Z"/><path class="b" d="M302.52,302.47h0Z"/><path class="b" d="M294.94,275.71s0,.07,0,.1c-.01,.13-.02,.25-.03,.38,.02-.3,.05-.59,.08-.88-.01,.13-.02,.25-.04,.38v.02Z"/><path class="b" d="M294.94,275.71v0s0,.07,0,.1c0-.03,0-.07,0-.1Z"/><path class="b" d="M294.9,276.19c-.02,.19-.03,.37-.04,.55,0,.05,0,.1-.01,.15-.05,.77-.08,1.55-.08,2.33,0-.79,.03-1.57,.08-2.33,.01-.24,.03-.47,.06-.71,0-.13,.02-.25,.03-.38-.01,.13-.03,.25-.04,.39Z"/><path class="b" d="M294.94,275.81s0-.07,0-.1c-.02,.16-.04,.32-.05,.48-.01,.19-.03,.37-.04,.56,.01-.18,.03-.37,.04-.55,0-.13,.02-.26,.04-.39Z"/><path class="b" d="M295.41,272.26s.01-.07,.02-.1h0s-.01,.07-.02,.1Z"/><path class="b" d="M295.46,271.96h0c.01-.09,.03-.18,.05-.27-.01,.08-.03,.17-.04,.25v.02Z"/><path class="b" d="M295.43,272.17h0c.01-.07,.02-.14,.03-.21h0c-.01,.07-.02,.14-.04,.21Z"/><path class="b" d="M295.57,271.4c-.02,.09-.04,.19-.06,.28h0v.04c-.02,.07-.03,.15-.04,.22,.01-.08,.03-.17,.04-.25,.02-.13,.05-.25,.08-.37,0,.03-.01,.06-.02,.08Z"/><path class="b" d="M295.51,271.69v0h0Z"/><path class="b" d="M295.63,271.13c-.02,.09-.04,.17-.06,.26,0-.03,.01-.06,.02-.08,.01-.06,.03-.12,.04-.18Z"/><path class="b" d="M319.2,315.27l-.52-.21c.07,.03,.13,.05,.2,.08,.1,.04,.21,.08,.32,.12Z"/><path class="b" d="M319.12,315.24s.05,.02,.08,.03c.69,.28,1.38,.54,2.11,.78,.05,.02,.11,.04,.16,.05,.06,.02,.13,.04,.19,.06,.34,.11,.69,.2,1.03,.3-.34-.1-.69-.19-1.03-.3-.11-.03-.24-.07-.35-.11-.72-.24-1.42-.5-2.11-.78-.11-.04-.21-.08-.32-.12,.08,.03,.16,.07,.24,.1Z"/><path class="b" d="M319.2,315.28s-.05-.02-.08-.03c.03,.01,.05,.02,.08,.03,.69,.28,1.39,.54,2.1,.78,.05,.02,.11,.03,.16,.05-.05-.02-.11-.03-.16-.05-.72-.24-1.42-.5-2.11-.78Z"/><path class="b" d="M311.49,311.12c-.36-.25-.72-.51-1.07-.78,.02,.02,.05,.04,.07,.06,.33,.24,.66,.49,1,.72Z"/><path class="b" d="M310.29,310.25s-.09-.07-.14-.1c.03,.02,.06,.05,.1,.07l.04,.03Z"/><path class="b" d="M310.36,310.3s.09,.07,.14,.1c-.02-.02-.05-.04-.07-.06-.04-.03-.09-.07-.14-.1l-.04-.03s.08,.06,.11,.08Z"/><path class="b" d="M310.14,310.15l.03,.02,.07,.05s-.07-.05-.1-.07c-.2-.15-.39-.29-.59-.45-.59-.46-1.16-.93-1.72-1.43,.56,.5,1.14,.97,1.72,1.43,.19,.15,.39,.3,.58,.45Z"/><path class="b" d="M310.18,310.17c.06,.04,.12,.09,.18,.13-.04-.03-.08-.06-.11-.08l-.07-.05Z"/><path class="b" d="M305.87,306.38c.13,.13,.26,.26,.38,.38,.5,.5,1.01,.99,1.54,1.46h0c-.16-.14-.31-.3-.48-.45-.49-.46-.99-.92-1.46-1.4h0Z"/><path class="b" d="M305.86,306.37l-.02-.02,.02,.02h0Z"/><path class="b" d="M306.25,306.76c-.13-.13-.26-.25-.38-.38,0,0,.01,.02,.02,.03,.04,.05,.09,.09,.13,.14,.07,.07,.15,.14,.23,.22Z"/><path class="b" d="M305.82,306.33h0l.02,.02h0l-.02-.02Z"/><path class="b" d="M305.84,306.35h0l.05,.05s-.02-.02-.02-.03l-.02-.02Z"/><polygon class="b" points="305.82 306.33 305.82 306.33 305.82 306.33 305.82 306.33"/><polygon class="b" points="307.81 308.24 307.81 308.24 307.82 308.25 307.82 308.25 307.81 308.24"/><path class="b" d="M307.8,308.23h0Z"/><polygon class="b" points="307.81 308.24 307.81 308.24 307.81 308.24 307.81 308.24 307.81 308.24"/><polygon class="b" points="307.82 308.25 307.83 308.26 307.82 308.25 307.82 308.25"/><path class="b" d="M296.84,266.81s-.03,.1-.05,.15c-.07,.17-.13,.35-.18,.52h0c.1-.3,.22-.62,.34-.93l-.02,.05c-.02,.07-.05,.14-.08,.21Z"/><path class="b" d="M297.07,266.18c.04-.12,.08-.23,.12-.35-.04,.11-.07,.21-.11,.32v.03Z"/><path class="b" d="M296.79,266.96c.02-.05,.03-.1,.05-.15-.02,.05-.04,.1-.05,.15-.06,.17-.13,.35-.18,.52,.06-.17,.12-.35,.18-.52Z"/><path class="b" d="M296.92,266.6l.02-.05c.04-.12,.09-.25,.13-.37v-.03c-.04,.15-.1,.3-.15,.45Z"/><path class="b" d="M295.72,270.73c.09-.4,.18-.79,.28-1.18-.08,.33-.16,.65-.24,.98-.01,.07-.03,.13-.05,.2Z"/><path class="b" d="M296.6,267.5c-.05,.16-.1,.31-.14,.47-.06,.18-.12,.37-.17,.55h0c-.1,.34-.19,.68-.28,1.03h0c-.06,.23-.11,.45-.16,.67-.02,.11-.05,.21-.08,.32,.08-.33,.15-.65,.24-.98,.09-.35,.18-.7,.28-1.04,.1-.35,.2-.69,.32-1.02h0Z"/><path class="b" d="M296,269.55c.09-.35,.18-.69,.28-1.02h0c-.1,.34-.19,.68-.28,1.03-.06,.22-.11,.44-.16,.66,.05-.22,.1-.44,.16-.66h0Z"/><path class="b" d="M296.61,267.48c.06-.18,.12-.35,.18-.52-.06,.18-.13,.35-.19,.54-.05,.16-.1,.31-.14,.47,.05-.15,.09-.31,.14-.47v-.02Z"/><path class="b" d="M297.59,264.75l-.03,.07h0v.02s-.03,.05-.04,.08c.33-.83,.68-1.65,1.07-2.45-.16,.33-.29,.67-.44,1-.19,.42-.38,.85-.56,1.28Z"/><path class="b" d="M297.56,264.82l.03-.07s-.02,.05-.03,.08h0Z"/><path class="b" d="M297.84,264.17l-.02,.05-.04,.09c-.04,.09-.08,.18-.11,.27-.02,.06-.05,.12-.07,.17,.18-.43,.37-.85,.56-1.28-.1,.22-.19,.44-.29,.66,0,.01-.01,.03-.02,.04Z"/><path class="b" d="M297.55,264.82h0Z"/><path class="b" d="M297.85,264.13l-.04,.09,.02-.05s.01-.03,.02-.04Z"/><path class="b" d="M297.55,264.82h0s.02-.05,.03-.08c.02-.06,.05-.11,.07-.17-.04,.08-.07,.16-.11,.25Z"/><polygon class="b" points="297.55 264.82 297.55 264.82 297.55 264.82 297.55 264.82"/><path class="b" d="M297.77,264.31s-.03,.06-.04,.09c-.03,.06-.05,.12-.08,.18,.04-.09,.08-.18,.11-.27Z"/><path class="b" d="M297.66,264.58c.03-.06,.05-.12,.08-.18-.04,.1-.09,.2-.13,.3-.02,.04-.03,.09-.05,.13h0c.03-.08,.07-.17,.11-.25Z"/><path class="b" d="M304.06,304.4h0c-.33-.39-.66-.79-.97-1.19h0c.32,.4,.64,.8,.97,1.19Z"/><path class="b" d="M304.12,304.47h0s-.04-.05-.06-.07h0s.04,.05,.06,.07Z"/><path class="b" d="M305.71,306.21h0c-.39-.4-.78-.82-1.15-1.24h0c.37,.42,.76,.84,1.15,1.24Z"/><path class="b" d="M305.79,306.3h0s-.06-.06-.09-.09h0s.05,.06,.08,.09Z"/><path class="b" d="M304.46,304.86s.07,.07,.1,.11h0s-.07-.07-.1-.11h0Z"/><polygon class="b" points="304.46 304.86 304.45 304.85 304.45 304.85 304.46 304.86 304.46 304.86"/><path class="b" d="M305.81,306.32h0Z"/><path class="b" d="M305.8,306.31h0v0h0Z"/><path class="b" d="M303.09,303.2h0c-.11-.15-.24-.28-.35-.43,.11,.15,.24,.29,.35,.43Z"/><path class="b" d="M307.83,308.26h0c.56,.5,1.14,.98,1.72,1.44-.59-.46-1.16-.93-1.72-1.43h0Z"/><polygon class="b" points="307.83 308.26 307.83 308.26 307.83 308.26 307.83 308.26"/><path class="b" d="M307.32,307.77c-.49-.46-.99-.92-1.46-1.4h0c.47,.48,.96,.94,1.46,1.4Z"/><polygon class="b" points="305.84 306.35 305.83 306.34 305.84 306.35 305.84 306.35"/><path class="b" d="M305.84,306.35l.02,.02h0l-.02-.02h0Z"/><polygon class="b" points="305.82 306.32 305.82 306.32 305.82 306.32 305.82 306.32"/><path class="b" d="M305.82,306.33l.02,.02h0v-.02h-.01Z"/><polygon class="b" points="305.84 306.35 305.84 306.35 305.84 306.35 305.84 306.35"/><polygon class="b" points="305.82 306.33 305.82 306.32 305.82 306.32 305.82 306.33 305.82 306.33 305.82 306.33"/><path class="b" d="M307.8,308.23c-.16-.15-.32-.31-.48-.46,.16,.15,.31,.31,.48,.46h0Z"/><polygon class="b" points="307.81 308.24 307.81 308.24 307.8 308.23 307.8 308.23 307.81 308.24"/><polygon class="b" points="307.82 308.25 307.82 308.25 307.81 308.24 307.81 308.24 307.82 308.25"/><polygon class="b" points="307.83 308.26 307.84 308.27 307.83 308.26 307.83 308.26"/><polygon class="b" points="307.83 308.26 307.82 308.25 307.82 308.25 307.83 308.26 307.83 308.26 307.83 308.26"/><polygon class="b" points="307.81 308.24 307.81 308.24 307.81 308.24 307.81 308.24 307.81 308.24"/><polygon class="b" points="305.82 306.32 305.81 306.32 305.82 306.32 305.82 306.32 305.82 306.32"/><polygon class="b" points="305.82 306.32 305.82 306.33 305.82 306.32 305.82 306.32"/><path class="b" d="M304.18,304.53h0Z"/><path class="b" d="M304.21,304.57h0l-.02-.02h0l.02,.02Z"/><path class="b" d="M304.19,304.55h0l-.02-.02h0l.02,.02Z"/><path class="b" d="M304.24,304.61h0l-.03-.04h0l.03,.04Z"/><path class="b" d="M304.24,304.61h0c.07,.08,.13,.16,.2,.23h0c-.07-.08-.14-.16-.2-.23Z"/><polygon class="b" points="304.12 304.47 304.12 304.47 304.12 304.47 304.12 304.47"/><path class="b" d="M304.17,304.52l-.02-.03h0l.02,.03Z"/><path class="b" d="M304.12,304.47l.02,.02h0l-.02-.02h0Z"/><polygon class="b" points="304.12 304.47 304.12 304.47 304.12 304.47 304.12 304.47"/><polygon class="b" points="304.45 304.85 304.45 304.85 304.45 304.85 304.45 304.85"/><path class="b" d="M329.42,317.81s0,0,0,0h.01c.28,.03,.57,.04,.86,.07-.47-.04-.93-.09-1.39-.14,.07,.01,.14,.02,.21,.03,.1,.01,.21,.03,.31,.04Z"/><polygon class="c" points="329.44 317.82 329.43 317.81 329.43 317.81 329.44 317.82"/><path class="b" d="M329.43,317.81h0s0,0,0,0c-.1-.01-.2-.03-.31-.04,.1,.02,.21,.03,.31,.05h0Z"/><polygon class="b" points="329.42 317.81 329.43 317.81 329.43 317.81 329.42 317.81"/><path class="b" d="M328.89,317.74h.01c.07,.01,.14,.02,.21,.03-.07-.01-.14-.02-.21-.03-.03,0-.06,0-.09,0,.03,0,.05,0,.08,.01Z"/><path class="b" d="M329.11,317.77c-.07,0-.14-.02-.21-.03h-.01c.17,.02,.34,.05,.51,.07h.02c-.1,0-.21-.03-.31-.04Z"/><path class="b" d="M329.4,317.81h0Z"/><polygon class="b" points="329.44 317.82 329.44 317.82 329.44 317.82 329.44 317.82"/><path class="c" d="M327.83,317.59h.1s-.08,0-.11,0h.02Z"/><path class="c" d="M327.51,317.55h.05c-.16-.01-.32-.03-.48-.06,.07,.01,.15,.02,.22,.03,.07,.01,.14,.02,.21,.03Z"/><path class="b" d="M327.82,317.59h0c-.08-.01-.17-.03-.25-.04h-.05c.1,0,.21,.02,.31,.04Z"/><path class="b" d="M328.81,317.73h0c-.3-.04-.59-.08-.89-.12h-.1c.33,.03,.65,.08,.98,.12Z"/><path class="b" d="M329.44,317.82c.64,.07,1.29,.11,1.93,.15h.01c-.36-.02-.73-.05-1.09-.08-.29-.02-.58-.03-.86-.07h0Z"/><path class="b" d="M331.38,317.97h0c.07,0,.15,.01,.22,.02h0c-.07,0-.14-.01-.21-.02h0Z"/><polygon class="b" points="329.44 317.82 329.44 317.82 329.44 317.82 329.44 317.82"/><path class="b" d="M331.76,318h0Z"/><path class="b" d="M331.6,317.98h0c.06,0,.11,0,.17,.01h0c-.05,0-.11,0-.16-.01Z"/><path class="b" d="M323.77,268.13c.4,.58,1.01,1,1.72,1.15-.71-.15-1.32-.57-1.72-1.15Z"/><path class="b" d="M323.29,266.58c0-.95,.48-1.79,1.21-2.28-.73,.49-1.21,1.33-1.21,2.28,0,.19,.02,.38,.06,.56-.04-.18-.06-.36-.06-.55Z"/><path class="b" d="M342.36,285.65c0-1.14,.69-2.12,1.68-2.54-.99,.42-1.68,1.39-1.68,2.53,0,1.34,.94,2.45,2.2,2.7-1.26-.26-2.2-1.37-2.2-2.7Z"/><path class="b" d="M267.74,350.1c-.05-.05-.11-.1-.16-.14,.12,.11,.23,.23,.35,.35-.05-.07-.12-.14-.18-.2Z"/><path class="b" d="M267.53,349.91s.03,.03,.05,.05c.05,.05,.11,.09,.16,.14,.07,.07,.13,.14,.18,.2,.02,.02,.05,.05,.07,.07-.09-.1-.17-.19-.26-.28-.08-.08-.17-.15-.25-.22l.03,.03Z"/><path class="b" d="M268.07,350.46c-.11-.12-.22-.24-.33-.36,.09,.09,.17,.19,.26,.28,.02,.03,.05,.05,.07,.07Z"/><path class="b" d="M271.89,358.3c0,.05,.01,.1,.02,.15h0s0-.05-.01-.08v-.07Z"/><path class="b" d="M271.65,364.08c-.29,1.2-.73,2.34-1.3,3.41v-.03c.15-.26,.28-.51,.4-.78,.12-.27,.24-.54,.35-.81,.03-.07,.05-.14,.07-.21,.08-.23,.16-.46,.23-.69,.09-.3,.17-.59,.25-.9Z"/><path class="b" d="M268.49,370.2c.12-.14,.25-.28,.37-.42,.16-.2,.31-.41,.46-.61,.02-.02,.03-.04,.05-.07-.27,.39-.57,.75-.88,1.11Z"/><path class="b" d="M272.06,360.17c0-.1,0-.2-.01-.29,0-.08,0-.17-.01-.25v-.03c.01,.19,.02,.38,.02,.57Z"/><path class="b" d="M269.41,369.03h0c.15-.22,.28-.42,.41-.63,.03-.05,.07-.11,.1-.16,.14-.23,.27-.45,.39-.69v-.02c-.27,.52-.57,1.02-.91,1.51Z"/><path class="b" d="M271.98,359.06s0,.07,.01,.1v-.04s-.01-.05-.01-.08v.02Z"/><path class="b" d="M267.29,371.44c.2-.18,.39-.36,.58-.55,.06-.06,.12-.12,.18-.18,.03-.03,.06-.07,.09-.1-.27,.29-.56,.57-.85,.83Z"/><path class="b" d="M271.97,362.23h0v.02s0-.01,0-.02Z"/><path class="b" d="M265.9,372.58c.23-.16,.43-.32,.63-.48,.09-.06,.17-.14,.25-.21-.32,.27-.65,.52-.99,.77,.04-.03,.08-.05,.11-.08Z"/><path class="b" d="M265.03,373.16c.07-.04,.14-.1,.22-.14-.35,.22-.7,.44-1.07,.63,.29-.15,.57-.31,.85-.49Z"/><path class="b" d="M272.07,360.64c0,.48-.04,.94-.09,1.41,.03-.22,.06-.43,.06-.65,.02-.25,.03-.5,.03-.76Z"/><path class="b" d="M271.65,364.08c.08-.29,.15-.6,.19-.91,.05-.27,.1-.56,.12-.86-.07,.6-.17,1.19-.31,1.77h0Z"/><path class="b" d="M271.4,356.23v0h0Z"/><path class="b" d="M266.54,372.09c-.2,.17-.41,.33-.63,.48-.04,.03-.08,.05-.11,.08-.03,.02-.07,.05-.1,.08,.42-.29,.83-.6,1.21-.94-.04,.03-.08,.06-.12,.09-.08,.07-.16,.14-.25,.21Z"/><path class="b" d="M269.83,368.39c-.12,.21-.26,.42-.41,.62,.14-.2,.28-.41,.41-.62Z"/><path class="b" d="M270.36,367.47c.27-.51,.52-1.04,.73-1.59-.11,.27-.22,.55-.35,.81-.12,.27-.25,.52-.38,.78Z"/><path class="b" d="M271.89,358.3v.07c-.02-.21-.07-.42-.11-.62v.05c.04,.17,.08,.33,.11,.5Z"/><path class="b" d="M265.03,373.16c-.28,.18-.56,.34-.85,.49-.03,.02-.07,.04-.1,.06,.45-.23,.89-.5,1.31-.78-.04,.03-.09,.05-.14,.08-.07,.05-.14,.1-.22,.14Z"/><path class="b" d="M272.08,360.57s0,.05,0,.07c0,.26-.01,.51-.03,.76,0,.22-.03,.43-.06,.65,0,.06,0,.12-.01,.18h0s0,.02,0,.03c0,.02,0,.04,0,.05-.02,.3-.07,.58-.12,.86-.05,.32-.11,.62-.19,.91h0c-.08,.31-.16,.6-.25,.9-.07,.23-.15,.46-.23,.69,.58-1.59,.91-3.3,.91-5.1h0c0-.23-.02-.46-.03-.69,0,.1,0,.2,.01,.29,0,.13,.02,.26,.02,.4Z"/><path class="b" d="M268.49,370.2c-.12,.14-.23,.27-.35,.41-.03,.03-.06,.07-.09,.1,.46-.49,.88-1,1.27-1.55-.15,.21-.3,.41-.46,.61-.12,.15-.25,.28-.37,.42Z"/><path class="b" d="M267.11,371.61c.26-.23,.51-.47,.76-.72-.19,.19-.38,.37-.58,.55-.06,.06-.11,.12-.18,.17Z"/><path class="b" d="M270.32,367.54c-.12,.24-.25,.46-.39,.69,.14-.23,.27-.46,.39-.69Z"/><path class="b" d="M272.04,359.6v.03c0-.17-.03-.34-.04-.51v.04c.02,.15,.03,.29,.04,.44Z"/><path class="b" d="M269.41,369.03l-.03,.05h-.01s.02-.01,.03-.02h0v-.03h0Z"/><path class="b" d="M270.35,367.49h0v.02h-.01v-.02Z"/><path class="b" d="M269.4,369.04h0Z"/><path class="b" d="M264,373.75s.05-.03,.07-.04h0s-.05,.03-.07,.04Z"/><path class="b" d="M266.92,371.79h0c.07-.05,.14-.11,.2-.17h-.02c-.06,.07-.12,.12-.18,.17Z"/><path class="b" d="M265.39,372.93h0c.1-.06,.21-.13,.31-.2h0c-.1,.07-.2,.14-.29,.2Z"/><path class="b" d="M258.61,345.83h0c-.43-.03-.86-.07-1.29-.07h-.05s.03,0,.05,0c.43,0,.86,.03,1.29,.07Z"/><path class="b" d="M270.4,353.73c.17,.33,.32,.67,.46,1.01h0c-.14-.35-.29-.68-.45-1.01-.05-.09-.1-.18-.16-.27-.02-.04-.05-.08-.07-.12,.07,.13,.15,.26,.22,.39Z"/><path class="b" d="M269.53,352.29c.07,.1,.13,.2,.19,.3-.02-.04-.05-.07-.07-.11-.04-.06-.08-.12-.12-.18v-.02h0Z"/><path class="b" d="M269.52,352.28v0h0Z"/><path class="b" d="M269.88,352.83c.1,.17,.2,.34,.29,.51,.02,.04,.05,.08,.07,.12-.12-.21-.24-.43-.36-.64-.07-.12-.15-.23-.23-.35,.02,.04,.05,.07,.07,.11,.05,.08,.11,.16,.16,.24Z"/><path class="b" d="M270.97,355h0c-.04-.09-.08-.18-.12-.27h0c.04,.1,.08,.18,.11,.27Z"/><path class="b" d="M271.39,356.2v-.03h0v.03Z"/><path class="b" d="M268.94,351.48s-.04-.05-.06-.08l-.02-.02s.05,.07,.08,.1Z"/><path class="b" d="M268.82,351.32h0l-.02-.04,.03,.04Z"/><path class="b" d="M268.83,351.34s.02,.03,.03,.04l.02,.02s-.03-.04-.05-.06c0,0-.02-.02-.02-.03h0l.02,.03Z"/><path class="b" d="M265.26,348.12c.17,.11,.34,.22,.5,.34,.07,.05,.13,.1,.2,.15-.06-.05-.13-.1-.19-.15-.17-.11-.34-.23-.51-.34l-.61-.37c-.1-.05-.2-.11-.3-.17,.1,.06,.2,.11,.3,.17,.21,.12,.41,.24,.61,.37Z"/><path class="b" d="M266.82,349.28c.1,.08,.2,.16,.3,.25,.06,.05,.11,.1,.17,.16l-.03-.02c-.05-.04-.1-.09-.15-.14-.09-.08-.2-.16-.3-.24Z"/><path class="b" d="M267.49,349.87h0c-.08-.07-.15-.14-.23-.21l.03,.02c.07,.06,.14,.12,.2,.18Z"/><path class="b" d="M263,374.21s.09-.03,.13-.05c.17-.07,.33-.15,.5-.23,.13-.06,.27-.12,.41-.19,.02-.01,.04-.02,.06-.04,.02-.01,.04-.03,.06-.04,.37-.2,.73-.41,1.08-.64,.18-.12,.36-.23,.53-.36,.35-.25,.7-.51,1.03-.79,.06-.05,.12-.09,.18-.15,.09-.08,.18-.17,.27-.25,.31-.28,.61-.57,.89-.88,.11-.12,.22-.25,.33-.38,.32-.37,.62-.74,.9-1.13l.03-.05c.34-.49,.65-.99,.93-1.52h0c.84-1.59,1.4-3.35,1.61-5.2v-.02s0-.02,0-.03v-.03h0v-.06s0-.08,.01-.13c.05-.46,.08-.93,.09-1.41,0-.02,0-.04,0-.07,0-.03,0-.05,0-.08,0-.48-.04-.96-.09-1.43-.02-.2-.04-.41-.07-.61-.03-.19-.07-.37-.1-.55-.11-.58-.25-1.15-.42-1.7-.02-.06-.04-.12-.06-.19-.1-.31-.21-.63-.33-.93-.03-.07-.06-.14-.09-.21-.16-.39-.32-.77-.51-1.14-.07-.13-.15-.26-.22-.39-.1-.17-.19-.35-.3-.51-.05-.08-.1-.16-.16-.24-.06-.1-.13-.2-.19-.3h0s0-.02-.01-.02c-.01-.02-.03-.04-.04-.06-.05-.07-.1-.15-.15-.21-.11-.18-.25-.34-.38-.51-.03-.03-.05-.07-.08-.1-.01-.01-.02-.03-.03-.04,0,0-.01-.02-.02-.02l-.03-.04-.03-.04-.03-.03c-.18-.23-.37-.45-.57-.66h0s-.02-.03-.03-.04c-.01-.01-.03-.03-.05-.04-.02-.03-.05-.06-.08-.09-.13-.14-.27-.28-.41-.42-.02-.01-.03-.03-.05-.04-.01-.01-.01-.02-.03-.03-.07-.07-.14-.13-.2-.19-.06-.05-.11-.1-.17-.16-.1-.09-.2-.17-.3-.25l-.02-.02c-.17-.14-.34-.29-.52-.42-.1-.09-.2-.17-.32-.24-.06-.06-.12-.1-.19-.15l-.51-.34c-.2-.14-.41-.26-.61-.37l-.3-.17s-.05-.04-.08-.05c-.02,0-.03-.02-.05-.03-.2-.11-.42-.21-.64-.31h-.03c-.14-.08-.25-.14-.38-.19l-.36-.15-.05-.02c-.25-.1-.5-.19-.76-.28-.03,0-.06-.02-.08-.03-.03-.01-.05-.02-.08-.03-.09-.03-.18-.06-.28-.09h-.02s-.07-.02-.11-.03c-.17-.05-.34-.09-.51-.13-.2-.05-.4-.11-.6-.15h-.04s-.07-.02-.11-.03c-.04,0-.09-.02-.13-.02-.34-.07-.69-.12-1.04-.16-.11-.02-.21-.03-.31-.04h-.09c-.43-.05-.86-.07-1.29-.07h-14.85v29.58h0v.03h14.81c1.53,0,3.02-.24,4.4-.66,.04-.01,.07-.03,.1-.04-.04,.01-.07,.03-.1,.04,.46-.14,.89-.32,1.33-.5Z"/><path class="b" d="M257.32,345.77s-.03,0-.05,0h.04c.44,0,.87,.03,1.29,.07h.09s-.04,0-.06,0h-.03c-.43-.04-.85-.07-1.29-.07Z"/><path class="b" d="M265.68,372.74s.07-.05,.1-.08c-.17,.12-.35,.24-.53,.36,.05-.03,.09-.05,.14-.08,.1-.06,.2-.13,.29-.2Z"/><path class="b" d="M267.99,350.37s.06,.06,.08,.09c.02,.01,.03,.03,.05,.04-.01-.01-.03-.03-.04-.04-.03-.03-.06-.06-.08-.08Z"/><path class="b" d="M268.47,370.21c-.11,.13-.22,.26-.33,.38,.11-.12,.22-.25,.33-.38Z"/><path class="b" d="M260.28,346.07h.04c.21,.05,.4,.11,.6,.16-.2-.05-.4-.11-.6-.15-.02,0-.03,0-.05,0Z"/><path class="b" d="M261.83,346.49s.05,.02,.08,.03c.03,.01,.05,.02,.08,.03-.03,0-.05-.02-.07-.03l-.09-.03Z"/><path class="b" d="M263.09,374.18s.03-.01,.05-.02c-.02,0-.03,.01-.05,.02h0Z"/><path class="b" d="M264.35,347.58l.3,.17c.2,.11,.41,.24,.61,.37l.51,.34c.07,.05,.14,.09,.19,.15,.11,.07,.21,.15,.32,.24,.18,.13,.35,.28,.52,.42-.17-.14-.34-.29-.52-.43-.1-.08-.21-.16-.31-.24-.07-.05-.13-.1-.2-.15-.16-.12-.33-.23-.5-.34-.2-.13-.4-.25-.61-.37-.1-.06-.2-.11-.3-.17l-.09-.05s.05,.03,.08,.05Z"/><path class="b" d="M262.81,346.85l.36,.15c.14,.06,.25,.11,.38,.18h0c-.12-.06-.24-.13-.37-.18-.12-.05-.24-.1-.37-.15Z"/><path class="b" d="M263.42,374.02c.07-.03,.14-.07,.22-.1-.17,.08-.33,.16-.5,.23-.04,.02-.09,.03-.13,.05,.03-.01,.06-.02,.09-.03,.11-.05,.22-.1,.33-.15Z"/><path class="b" d="M264.17,373.66s-.04,.03-.06,.04c-.02,.01-.04,.02-.06,.04h.03s.06-.05,.1-.07Z"/><path class="b" d="M267.09,371.63c.06-.05,.1-.11,.16-.16-.09,.08-.17,.17-.27,.25-.06,.05-.12,.1-.18,.15,.03-.03,.07-.05,.11-.08,.06-.05,.12-.11,.18-.16Z"/><path class="b" d="M269.51,352.26s0,0,.01,.01v-.02s-.04-.04-.05-.06c.01,.02,.03,.04,.04,.06Z"/><path class="b" d="M271.4,356.23l-.02-.05c-.02-.05-.04-.11-.06-.16,.02,.06,.04,.12,.06,.19,.17,.55,.31,1.12,.42,1.7l-.02-.11c-.11-.53-.23-1.06-.39-1.57Z"/><path class="b" d="M267.49,349.87c-.07-.06-.13-.12-.2-.18,.07,.06,.14,.12,.2,.19,.02,.01,.02,.02,.03,.03,.01,.01,.03,.03,.05,.04-.02-.01-.03-.03-.04-.05-.01-.01-.02-.03-.04-.04Z"/><path class="b" d="M271.97,362.17v.05c0-.06,0-.12,.01-.18,0,.04,0,.08-.01,.13Z"/><path class="b" d="M270.91,354.87c.03,.07,.06,.14,.09,.21-.01-.03-.02-.06-.03-.08-.02-.04-.04-.09-.06-.13Z"/><path class="b" d="M271.96,362.29v.02s0-.04,0-.05c0,0,0,.02,0,.03Z"/><path class="b" d="M268.82,351.32s.01,.02,.02,.02c0,.01,.02,.03,.03,.04-.01-.01-.02-.03-.03-.04l-.02-.02Z"/><path class="b" d="M272.07,360.49s0,.05,0,.08c0,.02,0,.04,0,.07,0-.02,0-.05,0-.07,0-.03,0-.05,0-.08Z"/><path class="b" d="M268.15,350.54h0c.2,.22,.39,.44,.57,.67l.03,.03s-.02-.03-.03-.04c-.18-.23-.37-.45-.57-.66Z"/><path class="b" d="M269.72,352.58c.05,.08,.11,.16,.16,.24,.1,.17,.2,.34,.3,.51-.1-.17-.19-.35-.29-.51-.05-.08-.11-.16-.16-.24Z"/><path class="b" d="M270.34,367.51h0Z"/><path class="b" d="M269.37,369.08l.03-.05-.03,.05Z"/><path class="b" d="M264.04,373.73c-.13,.07-.27,.13-.41,.19,.12-.06,.25-.11,.37-.17,.01,0,.02-.01,.04-.02Z"/><path class="b" d="M267.09,371.63c-.06,.05-.12,.11-.18,.16,.06-.05,.12-.11,.18-.16Z"/><path class="b" d="M265.68,372.74c-.1,.07-.2,.13-.29,.2,.1-.06,.2-.13,.29-.2Z"/><path class="b" d="M264.04,373.73s-.02,.01-.04,.02c-.12,.06-.25,.11-.37,.17-.07,.03-.14,.07-.22,.1,.19-.09,.39-.17,.58-.27,.02-.01,.05-.03,.07-.04h-.03Z"/><path class="b" d="M261.43,346.37c-.11-.03-.22-.06-.33-.09-.06-.02-.12-.03-.18-.05,.17,.04,.34,.08,.51,.13Z"/><path class="b" d="M260.28,346.07h-.03s-.05-.01-.08-.02c.04,0,.07,.01,.11,.02Z"/><path class="b" d="M260.32,346.08c.2,.04,.4,.1,.6,.15,.06,.02,.12,.03,.18,.05-.26-.07-.51-.14-.78-.2-.02,0-.05,0-.07-.01h.03s.03,.01,.05,.01Z"/><path class="b" d="M262.76,346.83l.05,.02-.05-.02c-.14-.06-.28-.11-.42-.16-.1-.04-.21-.07-.31-.11h-.03c.26,.08,.51,.17,.76,.27Z"/><path class="b" d="M261.83,346.49h0s-.05-.02-.07-.03c-.07-.02-.14-.05-.2-.07,.09,.03,.19,.06,.28,.09Z"/><path class="b" d="M261.83,346.49l.09,.03s.05,.02,.07,.03h.03s-.07-.02-.11-.03c-.05-.02-.11-.03-.16-.05,.02,0,.05,.01,.07,.02h0Z"/><path class="b" d="M262.81,346.85c.12,.05,.25,.1,.37,.15,.13,.05,.25,.12,.37,.18-.13-.06-.25-.13-.38-.18l-.41-.17c-.14-.05-.28-.1-.42-.15,.14,.05,.28,.1,.42,.16l.05,.02Z"/><path class="b" d="M267.5,349.87h0s.02,.02,.04,.03l-.03-.03Z"/><path class="b" d="M242.47,345.76h14.81s.03,0,.05,0c-.02,0-.03,0-.05,0h-14.8Z"/><polygon class="b" points="242.47 345.77 242.46 345.77 242.46 375.34 242.46 375.34 242.47 375.34 242.47 345.77"/><rect class="b" x="242.46" y="345.76" width="0" height="0"/><path class="b" d="M272.04,359.6c0-.15-.02-.29-.04-.44,0-.03,0-.07-.01-.1,.05,.47,.09,.95,.09,1.43,0-.11,0-.21-.01-.32,0-.19-.01-.38-.02-.57Z"/><path class="b" d="M270.4,353.73c.19,.37,.35,.76,.51,1.14-.02-.04-.04-.09-.05-.13-.14-.34-.29-.68-.46-1.01Z"/><path class="b" d="M271.81,357.9c.03,.18,.08,.36,.1,.55,0-.05-.01-.1-.02-.15-.02-.13-.05-.26-.08-.4Z"/><path class="b" d="M272.06,360.17c0,.11,.01,.21,.01,.32,0,.03,0,.05,0,.08,0-.13-.01-.26-.02-.4Z"/><path class="b" d="M271.79,357.79l.02,.11c.03,.13,.06,.26,.08,.4-.03-.17-.07-.34-.1-.5Z"/><path class="b" d="M270.86,354.74s.04,.09,.05,.13c.02,.04,.04,.09,.06,.13-.03-.09-.08-.17-.11-.26Z"/><path class="b" d="M272,359.16c.02,.15,.03,.29,.04,.44-.01-.15-.03-.29-.04-.44Z"/><path class="b" d="M271.4,356.23v-.02l-.02-.03,.02,.05Z"/><path class="b" d="M271,355.1c.12,.3,.22,.61,.32,.92-.1-.31-.2-.62-.32-.92Z"/><path class="b" d="M271.98,359.04s0-.05,0-.08c0-.02,0-.03,0-.05v-.04c-.02-.12-.04-.25-.05-.37,0-.01,0-.03,0-.04,.03,.19,.05,.38,.07,.58Z"/><path class="b" d="M271.4,356.23c.15,.5,.28,1,.38,1.52-.1-.52-.23-1.02-.38-1.52Z"/><path class="b" d="M271.92,358.51c.02,.12,.04,.25,.05,.37-.01-.12-.04-.25-.05-.37Z"/><path class="b" d="M271.98,358.96s0-.05,0-.07v.02s0,.03,0,.05Z"/><path class="b" d="M271.32,356.01c.02,.06,.04,.11,.06,.16-.12-.4-.25-.79-.41-1.17,.01,.03,.02,.06,.03,.09,.12,.3,.22,.61,.32,.92Z"/><path class="b" d="M271.91,358.47h0c.03,.19,.05,.39,.07,.6v-.02c-.02-.19-.04-.39-.07-.58Z"/><path class="b" d="M271.79,357.79v-.05c-.11-.51-.24-1.02-.39-1.52h0c.16,.51,.28,1.03,.39,1.57Z"/><path class="b" d="M271,355.1h0c.12,.3,.23,.61,.33,.92h0c-.1-.32-.21-.62-.32-.92Z"/><path class="b" d="M271,355.09h0s-.02-.05-.03-.08h0s.02,.05,.03,.08Z"/><path class="b" d="M271.33,356.02c.02,.05,.04,.1,.06,.16h0c-.02-.06-.04-.11-.06-.16h0Z"/><path class="b" d="M263.09,374.18s.03-.01,.05-.02c.1-.04,.19-.09,.28-.13-.11,.05-.22,.1-.33,.15Z"/><path class="b" d="M263.13,374.16c.29-.13,.58-.26,.87-.4-.19,.1-.39,.18-.58,.27-.1,.04-.19,.09-.28,.13Z"/><path class="b" d="M263,374.21c-.43,.18-.87,.36-1.33,.5,.04-.01,.07-.03,.1-.04,.42-.13,.82-.29,1.22-.46h0Z"/><path class="b" d="M263,374.21c-.4,.17-.8,.33-1.22,.46,.25-.08,.49-.17,.74-.27,.04-.02,.08-.03,.13-.05,.12-.04,.24-.09,.36-.15Z"/><path class="b" d="M263,374.21h0s.06-.02,.09-.03h0s-.06,.02-.09,.03Z"/><path class="b" d="M263,374.21c-.12,.05-.24,.11-.36,.15-.04,.02-.08,.03-.13,.05,.19-.07,.38-.15,.57-.23-.03,.01-.06,.02-.09,.03Z"/><path class="b" d="M306.47,362.24l.05,.05-.05-.05-5.12,5.42-.19,.2c.43,.42,.84,.87,1.2,1.36,4.46,5.91,3.94,14.01-.86,19.3h0l25.14-10.12,11.96-4.81c9.75-3.76,13.85-15.34,8.66-24.4l-10.54-18.4-10.08,10.29-6.06,6.19-14.13,14.96Z"/><path class="b" d="M301.35,367.66l5.12-5.42c-.09-.09-.18-.17-.27-.26l-5.41,5.52c.14,.11,.25,.24,.37,.36l.19-.2Z"/><path class="b" d="M320.59,347.28l-14.4,14.7c.09,.09,.18,.17,.27,.26l14.13-14.96Z"/><path class="b" d="M275.86,389.23c2.98,3.95,7.52,6.04,12.12,6.04,3.18,0,6.38-1,9.12-3.06l2.31-1.75c.78-.59,1.46-1.23,2.11-1.93h0c4.8-5.3,5.31-13.4,.86-19.31-.36-.5-.78-.95-1.2-1.36-.12-.12-.24-.25-.37-.36-4.18-3.73-10.55-4.12-15.19-.62l-7.4,5.57c-2.76,2.08-4.35,5.13-4.68,8.33-.29,2.91,.45,5.92,2.34,8.44Z"/></svg>