<?xml version="1.0" encoding="UTF-8"?><svg xmlns="http://www.w3.org/2000/svg" viewBox="0 0 500 500"><defs><style>.c{fill:none;stroke:#14a2ad;stroke-linecap:round;stroke-linejoin:round;stroke-width:8px;}</style></defs><g id="a"><g><g><g><path class="c" d="M209.58,220.55s.02,0,.03,0c7.04,0,12.75-5.71,12.75-12.75s-5.71-12.75-12.75-12.75v24.14c0,.45-.02,.9-.03,1.35Z"/><path class="c" d="M209.61,178.79c23.44-11.67,32.16-34.6,32.16-34.6,0,0-14.51,9.68-32.16,10.72-5.89,.35-12.12-.26-18.29-2.51-4.06-1.7-7.93-3.26-11.63-4.69-73.52-28.44-76.36-4.69-76.36-4.69-28.16,80.56,17.23,76.18,17.23,76.18v-52.33c41.47,23.44,70.08,21.37,89.05,11.92Z"/><path class="c" d="M165.08,263.73c7.19,0,13.97-1.71,19.98-4.74,14.17-7.13,24.01-21.61,24.51-38.44,.01-.45,.03-.9,.03-1.35v-40.41c-18.97,9.45-47.59,11.52-89.05-11.92v52.33c0,17.28,9.85,32.24,24.23,39.63,6.09,3.13,12.99,4.9,20.3,4.9h0Z"/><path class="c" d="M185.06,273.82v.79c0,11.12-9.02,20.14-20.14,20.14h0c-11.12,0-20.14-9.02-20.14-20.14v-.6c-27.78,8.7-47.94,34.64-47.94,65.28v32.89H233.65v-32.89c0-30.89-20.47-56.98-48.59-65.48Z"/><path class="c" d="M165.08,263.73h0c-7.32,0-14.21-1.78-20.3-4.9v15.79c0,11.12,9.02,20.14,20.14,20.14h0c11.12,0,20.14-9.02,20.14-20.14v-15.62c-6.01,3.03-12.79,4.74-19.98,4.74Z"/></g><path class="c" d="M124.61,329.84v42.35"/><path class="c" d="M205.56,329.84v42.35"/><line class="c" x1="96.85" y1="354.79" x2="124.61" y2="354.79"/><line class="c" x1="205.85" y1="354.79" x2="233.61" y2="354.79"/><g><path class="c" d="M332.54,319.66c-18.87,0-35.19-12.61-43.09-30.96-15.44,12.54-25.31,31.67-25.31,53.11v32.89h136.8v-32.89c0-21.44-9.87-40.57-25.32-53.11-7.9,18.35-24.22,30.96-43.09,30.96Z"/><path class="c" d="M312.02,257.19c-.1-.05-.21-.1-.31-.15-14.38-7.38-24.23-22.35-24.23-39.63v-38.84c17,9.61,34.8-1.13,44.74-9.77,9.94,9.27,27.74,19.38,44.74,9.77v38.84c0,17.25-9.81,32.19-24.15,39.59v14.02l53.07-9.08v-63.68c0-40.3-32.67-72.96-72.96-72.96h0c-40.3,0-72.96,32.67-72.96,72.96v63.68l52.2,8.36v-13.05s-.09-.04-.13-.06Z"/><path class="c" d="M376.96,217.41v-38.84c-17,9.61-34.79-.49-44.74-9.77-9.94,8.64-27.74,19.38-44.74,9.77v38.84c0,17.28,9.85,32.24,24.23,39.63,.1,.05,.21,.1,.31,.15,.04,.02,.09,.04,.13,.06,5.98,2.99,12.72,4.69,19.86,4.69h0c.07,0,.14,0,.21,0,.07,0,.14,0,.21,0h0c7.32,0,14.21-1.78,20.3-4.9,.02-.01,.04-.02,.07-.04h0c14.34-7.4,24.15-22.34,24.15-39.59Z"/><path class="c" d="M352.81,274.01v-17.01h0s-.04,.03-.07,.04c-6.09,3.13-12.99,4.9-20.3,4.9h0c-.07,0-.14,0-.21,0-.07,0-.14,0-.21,0h0c-7.14,0-13.88-1.7-19.86-4.69v13.05l-.08,6.23c-8.34,2.61-15.99,6.79-22.62,12.17,7.9,18.35,24.22,30.96,43.09,30.96s35.19-12.61,43.09-30.96c-6.8-5.52-14.16-9.79-22.76-12.39l-.05-2.31Z"/></g></g><path class="c" d="M291.92,328.06v42.35"/><path class="c" d="M372.87,328.06v42.35"/><line class="c" x1="264.16" y1="353.01" x2="291.92" y2="353.01"/><line class="c" x1="373.16" y1="353.01" x2="400.92" y2="353.01"/></g></g><g id="b"/></svg>