<?xml version="1.0" encoding="UTF-8"?><svg id="a" xmlns="http://www.w3.org/2000/svg" viewBox="0 0 500 500"><defs><style>.b{fill:none;stroke:#14a2ad;stroke-linecap:round;stroke-linejoin:round;stroke-width:8px;}</style></defs><path class="b" d="M216.31,91.92v23.38s-16.17,13.7-23.37,28.08v-51.45"/><path class="b" d="M154.83,91.92v58.48s-39.36,67.58-11.25,127.5l-.08,.15s14.75,37.68,28.41,70.46c13.66,32.78,99.63,77.86,163.44,51.77,63.81-26.09,20.96-191.67-49.82-218.93h38.98v-45.34h-39.21c-4.07-10.59-15.39-27.03-46.47-27.41v-16.7"/><path class="b" d="M179.53,223.41s-32.06,65.25-21.36,91.53"/><path class="b" d="M192.94,143.37s14.34,2.36,13.08,29.46"/><path class="b" d="M285.53,181.36s-35.24,40.79-12.41,67.21c22.84,26.42,33.84,42.93,32.6,117.83"/><path class="b" d="M277.1,250s89.17-3.9,89.17,76.4"/><path class="b" d="M304.99,327.78s-7.71,27.28-30.95,25.11"/><path class="b" d="M301.31,299.94s2.55,12.08,24.09,18.15"/><path class="b" d="M180.86,252.44s12.09,30.66-2.37,47.5"/><path class="b" d="M211.73,299.94l-13.51-16.43c-49.67-57.67,6.72-114.04,35.21-136.87,8.57-6.87,19.22-10.62,30.21-10.62h21.67"/><line class="b" x1="263.8" y1="91.92" x2="263.8" y2="113.55"/></svg>