<?xml version="1.0" encoding="UTF-8"?><svg id="a" xmlns="http://www.w3.org/2000/svg" viewBox="0 0 500 500"><defs><style>.b{fill:none;stroke:#14a2ad;stroke-linecap:round;stroke-linejoin:round;stroke-width:8px;}</style></defs><g><path class="b" d="M271.15,331.97s-11.62,67.51-59.92,67.51-64.38,16.07-69.38-12.14c-2.55-14.39-5.94-20.98-8.64-23.98-1.85-2.05-1.77-5.18,.21-7.1l7-6.79-12.16-6.45c-2.76-1.47-4.07-4.71-3.06-7.67,1.34-3.92,2.87-10.63,3.44-21.51"/><path class="b" d="M290.06,256.07h35.17c7.48,0,13.55-6.06,13.55-13.55h0c0-7.48-6.06-13.55-13.55-13.55h-33.4"/><path class="b" d="M304.09,213.19c0-9.81-7.95-17.77-17.77-17.77h-43.48c-11.98,0-21.69,9.71-21.69,21.69h0c0,11.98,9.71,21.69,21.69,21.69h13"/><path class="b" d="M304.1,317.84l-3.29-18.29c-1.53-8.53-6.35-16.22-13.61-20.96-3.23-2.11-6.63-3.46-9.65-3.46h0c-12.74,0-23.07-10.33-23.07-23.07h0c0-12.74,10.33-23.07,23.07-23.07h14.28"/><path class="b" d="M202.51,189.98s5.99-5.75,7.43-12.81c.46-2.26,2.61-3.75,4.86-3.26,7.57,1.64,22.45,3.05,29.85-8.66,1.13-1.78,3.42-2.43,5.3-1.47,5.31,2.73,15.89,6.39,25.84-.63"/><path class="b" d="M336.11,234.45c39.38-21.49,17.16-41.98,6.94-49.18-2.46-1.74-3.81-4.68-3.4-7.66,3.77-27.69-16.52-27.96-27.57-26.16-3.79,.62-7.42-1.57-8.83-5.13-7.58-19.18-24.24-14.64-32.99-10.58-3.29,1.52-7.2,.67-9.53-2.1-17.75-21.13-32.83-5.57-38.78,2.62-1.77,2.43-4.75,3.68-7.72,3.22-28.14-4.4-30.89,14.95-30.41,25.33,.16,3.42-1.82,6.57-5,7.85-6.81,2.75-16.94,9.77-14.29,26.83,3.92,25.18,47.92,20.66,56.78,20.24"/><path class="b" d="M304.1,177.65c0,9.81-7.95,17.77-17.77,17.77h-43.48"/></g><path class="b" d="M355.07,407.28s-20.58-29.84-19.51-86.32c0,0,73.54-30.48,67.67-129.54-3.16-53.44-47.39-78.82-87.45-90.87-46.22-13.9-96.28-9.36-138.34,14.31-27.35,15.39-47.46,31.73-52.59,68.8-.96,10.6-.54,18.54,.36,24.92,3.57,25.2-1.47,50.96-15.2,72.4-3.2,5-6.87,9.95-11.06,14.56-15.09,16.08,42.54,18.3,42.54,18.3"/></svg>