<?xml version="1.0" encoding="UTF-8"?><svg id="a" xmlns="http://www.w3.org/2000/svg" viewBox="0 0 500 500"><defs><style>.b{fill:#14a2ad;}.b,.c,.d{stroke:#14a2ad;}.b,.d{stroke-miterlimit:10;}.c{stroke-linecap:round;stroke-linejoin:round;}.c,.d{fill:none;stroke-width:8px;}</style></defs><path class="d" d="M230.23,128.63c-22.07,8.18-41.08,23.8-51.47,46.25-7.52,16.25-9.06,37.56,3.52,50.3,5.71,5.78,13.58,8.96,21.48,10.88,13.73,3.33,28.12,3.28,41.84,6.65,13.72,3.38,27.59,11.37,32.33,24.68,3.68,10.33,1.42,22.6,7.37,31.8,6.6,10.21,23.05,11.93,31.62,3.33,7.97-8.02,8.16-21.18,15.16-30.07,5.45-6.93,14.21-10.27,21.03-15.84,17.28-14.14,19.32-40.43,12.83-61.78-8.21-27-28.05-50.26-53.43-62.63-25.53-12.45-56.07-13.27-82.29-3.57Z"/><polygon class="b" points="321.26 173.34 292.83 173.34 292.83 144.9 262.69 144.9 262.69 173.34 234.26 173.34 234.26 203.49 262.69 203.49 262.69 231.91 292.83 231.91 292.83 203.49 321.26 203.49 321.26 173.34"/><g><path class="c" d="M271.15,331.97s-11.62,67.51-59.92,67.51-64.38,16.07-69.38-12.14c-2.55-14.39-5.94-20.98-8.64-23.98-1.85-2.05-1.77-5.18,.21-7.1l7-6.79-12.16-6.45c-2.76-1.47-4.07-4.71-3.06-7.67,1.34-3.92,2.87-10.63,3.44-21.51"/><path class="c" d="M355.07,407.28s-20.58-29.84-19.51-86.32c0,0,73.54-30.48,67.67-129.54-3.16-53.44-47.39-78.82-87.45-90.87-46.22-13.9-96.28-9.36-138.34,14.31-27.35,15.39-47.46,31.73-52.59,68.8-.96,10.6-.54,18.54,.36,24.92,3.57,25.2-1.47,50.96-15.2,72.4-3.2,5-6.87,9.95-11.06,14.56-15.09,16.08,42.54,18.3,42.54,18.3"/></g></svg>