<?xml version="1.0" encoding="UTF-8"?><svg xmlns="http://www.w3.org/2000/svg" viewBox="0 0 500 500"><defs><style>.c{fill:none;stroke:#14a2ad;stroke-linecap:round;stroke-linejoin:round;stroke-width:8px;}</style></defs><g id="a"><g><path class="c" d="M232.64,268.5c-.38-.14-.76-.27-1.13-.42,.37,.15,.75,.28,1.13,.42Z"/><path class="c" d="M229.5,267.26c-.23-.1-.45-.2-.68-.3,.23,.1,.45,.21,.68,.3Z"/><path class="c" d="M242.6,271.01c.46,.07,.92,.14,1.38,.2,.7,.08,1.4,.14,2.11,.19-.7-.06-1.41-.11-2.1-.19-.47-.06-.93-.13-1.39-.2Z"/><path class="c" d="M237.87,270.09c.18,.04,.37,.08,.55,.12-.42-.1-.83-.2-1.25-.31,.23,.06,.46,.14,.7,.19Z"/><path class="c" d="M235.82,269.53c-.56-.16-1.11-.33-1.67-.51,.55,.18,1.11,.35,1.67,.51Z"/><path class="c" d="M231.32,268c.06,.02,.11,.05,.17,.07h0c-.06-.02-.11-.05-.17-.07Z"/><path class="c" d="M303.11,299.7c-.06,.07-.13,.13-.2,.2-1.55,1.59-3.26,3.37-4.63,4.92-.07,.07-.13,.15-.19,.22-.13,.13-.23,.26-.33,.38-.05,.06-.11,.11-.14,.15-.02,.02-.05,.05-.06,.07-.05,.06-.09,.12-.13,.16-.09,.09-.18,.2-.25,.28-.19,.23-.37,.46-.53,.66-.13,.15-.25,.29-.34,.43l8.81,9.35-14.15,30.59-22.6,48.87,5.71-48.87,2.62-22.61,4.48-38.4c-2.44-1.02-4.92-1.92-7.46-2.7v.93c0,13.03-10.57,23.6-23.61,23.6s-23.6-10.57-23.6-23.6v-.7c-2.33,.74-4.63,1.59-6.87,2.53l4.22,36.31,2.87,24.64,5.88,50.47-23.33-50.47-13.4-28.99,11.15-11.86,2.3-2.44-5.89-3.18-4.1-2.21c-17.7,14.71-28.99,36.87-28.99,61.69v38.54h160.29v-38.54c0-24.13-10.66-45.74-27.54-60.44Z"/><path class="c" d="M250.11,307.94c13.04,0,23.61-10.57,23.61-23.6v-18.3c-7.04,3.54-15,5.55-23.41,5.55-1.43,0-2.83-.08-4.23-.19-.7-.06-1.41-.11-2.11-.19-.6-.07-1.2-.16-1.8-.26-.62-.1-1.24-.21-1.85-.33-.61-.12-1.22-.25-1.82-.39-.03,0-.06-.02-.09-.02-.18-.04-.37-.07-.55-.12-.24-.06-.46-.13-.7-.19-.15-.04-.3-.07-.45-.11-.3-.08-.6-.17-.9-.26-.56-.16-1.12-.33-1.67-.51-.32-.1-.63-.2-.95-.31-.19-.07-.38-.14-.56-.21-.38-.14-.76-.28-1.13-.42h0s-.01,0-.02,0h0c-.06-.03-.11-.06-.17-.08-.36-.14-.72-.28-1.08-.43-.2-.07-.4-.15-.59-.25-.05-.02-.1-.05-.15-.07-.23-.1-.45-.2-.68-.3-.23-.1-.46-.2-.68-.31-.55-.26-1.09-.53-1.63-.8v18.49c0,13.03,10.57,23.6,23.6,23.6Z"/><path class="c" d="M229.65,267.33c.19,.09,.39,.18,.59,.25,.36,.14,.71,.29,1.08,.43-.61-.24-1.22-.48-1.81-.74,.05,.02,.1,.05,.15,.07Z"/><path class="c" d="M228.83,266.96c-.78-.35-1.55-.72-2.31-1.1,.54,.27,1.08,.54,1.63,.8,.23,.11,.46,.2,.68,.31Z"/><path class="c" d="M250.31,271.59c-1.43,0-2.83-.08-4.23-.19,1.4,.11,2.8,.19,4.23,.19Z"/><path class="c" d="M231.48,268.08s.01,.01,.02,0h-.02Z"/><path class="c" d="M233.21,268.71c.31,.11,.63,.21,.95,.31-.51-.17-1.01-.34-1.51-.52,.19,.07,.37,.14,.56,.21Z"/><path class="c" d="M236.72,269.79c.15,.04,.3,.07,.45,.11-.45-.12-.9-.24-1.35-.37,.3,.09,.6,.18,.9,.26Z"/><path class="c" d="M238.42,270.21s.06,.02,.09,.02c.6,.14,1.21,.27,1.82,.39,.62,.12,1.23,.23,1.85,.33-.62-.1-1.24-.21-1.85-.33-.64-.12-1.27-.26-1.91-.41Z"/><path class="c" d="M242.18,270.95c.6,.1,1.19,.18,1.8,.26-.46-.06-.92-.13-1.38-.2-.14-.02-.28-.04-.42-.06Z"/><path class="c" d="M240.33,270.62c.61,.12,1.23,.23,1.85,.33,.14,.02,.28,.04,.42,.06-.76-.12-1.52-.25-2.27-.39Z"/><polygon class="c" points="209.34 303.84 207.04 306.28 195.89 318.13 209.29 347.12 232.62 397.59 226.74 347.12 223.87 322.48 219.65 286.17 219.12 281.62 218.8 278.93 189.89 293.36 195.99 296.64 199.34 298.45 203.44 300.66 209.34 303.84"/><path class="c" d="M274.09,347.12l-5.71,48.87,22.6-48.87,14.15-30.59-8.81-9.35c.09-.14,.21-.28,.34-.43,.15-.2,.34-.42,.53-.66,.07-.08,.15-.19,.25-.28,.04-.05,.08-.11,.13-.16,.01-.02,.04-.05,.06-.07,.04-.05,.09-.09,.14-.15,.09-.12,.2-.25,.33-.38,.06-.07,.12-.15,.19-.22,1.37-1.55,3.08-3.33,4.63-4.92,.07-.07,.14-.13,.2-.2,.12-.11,.22-.22,.34-.33,.13-.14,.26-.27,.39-.39,.37-.39,.73-.76,1.07-1.07,.07-.09,.14-.16,.22-.22,.07-.08,.14-.15,.2-.21,.07-.08,.15-.15,.21-.21s.12-.13,.18-.18l.35-.34c.12-.12,.21-.22,.3-.3,.07-.08,.13-.14,.2-.19,.06-.06,.12-.12,.16-.18,.09-.11,.19-.19,.25-.23l.08-.08c1.16-1.16,2.17-2.17,2.89-2.88s1.17-1.14,1.17-1.14l-28.91-14.44-.36,3.08-.67,5.71-4.48,38.4-2.62,22.61Z"/><path class="c" d="M305.83,188.57l7.24,4.04c-1.95-1.97-4.44-3.4-7.24-4.04Z"/><path class="c" d="M315.57,195.93c-.67-1.23-1.52-2.33-2.5-3.31l-7.24-4.04c-1.08-.25-2.19-.39-3.35-.39v28.29c0,.53-.02,1.05-.04,1.58h.04c8.25,0,14.94-6.69,14.94-14.94,0-2.6-.67-5.05-1.85-7.18Z"/><path class="c" d="M185.01,195.93c.67-1.23,1.52-2.33,2.5-3.31l7.24-4.04c1.08-.25,2.19-.39,3.35-.39v28.29c0,.53,.02,1.05,.04,1.58h-.04c-8.25,0-14.94-6.69-14.94-14.94,0-2.6,.67-5.05,1.85-7.18Z"/><polygon class="c" points="164.37 134.29 250.26 101.32 336.63 134.29 250.5 167.31 164.37 134.29"/><line class="c" x1="175.92" y1="141.88" x2="175.92" y2="186.26"/><g><path class="c" d="M302.48,181.72v37.7c0,.53-.02,1.06-.04,1.58-.59,19.72-12.12,36.68-28.72,45.04-7.05,3.54-15,5.56-23.42,5.56-1.43,0-2.83-.08-4.22-.19-.7-.06-1.4-.11-2.1-.2-.47-.05-.92-.12-1.39-.19-.76-.12-1.51-.25-2.27-.4-.64-.12-1.27-.26-1.91-.41-.41-.1-.83-.2-1.25-.3-.46-.12-.9-.25-1.34-.38-.56-.16-1.12-.32-1.67-.5-.5-.17-1.01-.34-1.51-.52-.38-.14-.76-.28-1.13-.42-.01,0-.02-.01-.04-.01-.05-.02-.11-.05-.16-.07-.61-.24-1.22-.48-1.82-.73-.22-.11-.44-.2-.67-.31-.78-.35-1.55-.71-2.32-1.1-16.85-8.65-28.37-26.19-28.37-46.43v-37.7h104.34Z"/><polygon class="c" points="304.83 146.83 304.83 181.72 196.17 181.72 196.17 146.83 250.5 167.32 304.83 146.83"/></g></g></g><g id="b"/></svg>