<?xml version="1.0" encoding="UTF-8"?><svg id="Laag_1" xmlns="http://www.w3.org/2000/svg" viewBox="0 0 500 500"><defs><style>.cls-1{fill:none;stroke:#eb91a1;stroke-linecap:round;stroke-linejoin:round;stroke-width:8px;}</style></defs><path class="cls-1" d="M175.15,138.3s60.48,6.5,39.02,66.33c-11.71,28.61,4.61,47.16,4.61,47.16,0,0,27.91-25.05,50.02-26.35,0,0-22.76-55.28,16.91-96.9,19.06-20,48.68-22.12,73.62-13.21,30.03,10.73,44.61,32.4,45.95,63.8,.75,17.53-2.19,35.47-10.97,50.85-13.01,22.76-12.36,40.32-12.36,40.32,0,0,1.95,62.43-75.44,95.59s-171.68,50.72-147.62-80.64"/><path class="cls-1" d="M344.55,180.7s12.58,1.57,12.58,14.54-12.58,14.54-12.58,14.54"/><path class="cls-1" d="M260.45,265.58s26.72-15.17,43.62-15.64c0,0-23.81-3.73-35.28-24.5"/><path class="cls-1" d="M218.77,251.79c-6.31,9.78-25.12,26.76,11.82,47.2,36.94,20.43,91.17-7.07,91.17-7.07"/><path class="cls-1" d="M208.36,310.77s6.98-12.36,8.51-21.31"/><path class="cls-1" d="M132.34,261.65s40.48-55.8,84.53-9.87"/><path class="cls-1" d="M139.42,247.65s-1.96-10.18-14.15-14-30.65,9.14-30.65,39.4,28.05,48.25,61.97,27.07"/></svg>