<?xml version="1.0" encoding="UTF-8"?><svg xmlns="http://www.w3.org/2000/svg" viewBox="0 0 500 500"><defs><style>.c{fill:none;stroke:#14a2ad;stroke-linecap:round;stroke-linejoin:round;stroke-width:8px;}</style></defs><g id="a"><g><g><g><path class="c" d="M300.61,210.82s.03,0,.04,0c8.04,0,14.55-6.52,14.55-14.55s-6.52-14.55-14.55-14.55v27.57c0,.52-.02,1.03-.04,1.54Z"/><path class="c" d="M198.97,181.72s-.03,0-.04,0c-8.04,0-14.55,6.52-14.55,14.55s6.52,14.55,14.55,14.55v-27.57c0-.52,.02-1.03,.04-1.54Z"/><path class="c" d="M249.81,260.12c8.21,0,15.95-1.96,22.81-5.41,16.18-8.15,27.41-24.67,27.99-43.89,.02-.51,.04-1.02,.04-1.54v-46.14c-12.79,6.37-49.03-17.53-49.03-17.53,0,0-33.26,26.2-52.65,15.24v48.42c0,19.73,11.24,36.82,27.66,45.24,6.95,3.57,14.83,5.6,23.18,5.6h0Z"/><path class="c" d="M328.1,383.96v-37.56c0-35.26-23.38-65.06-55.48-74.76v.9c0,12.7-10.3,23-23,23h0c-12.7,0-23-10.3-23-23v-.68c-31.72,9.93-54.73,39.55-54.73,74.54v37.56"/><path class="c" d="M249.81,260.12h0c-8.35,0-16.23-2.03-23.18-5.6v18.02c0,12.7,10.3,23,23,23h0c12.7,0,23-10.3,23-23v-17.84c-6.86,3.45-14.61,5.41-22.81,5.41Z"/></g><path class="c" d="M203.6,335.6v28.49"/><path class="c" d="M296.03,335.6v28.49"/><line class="c" x1="171.9" y1="347.91" x2="203.6" y2="347.91"/><line class="c" x1="296.36" y1="347.91" x2="328.05" y2="347.91"/></g><g><path class="c" d="M203.6,366.1h19.62c6.55,0,11.87,5.31,11.87,11.87,0,.06-.01,.1-.01,.16-.08,6.49-5.37,11.71-11.86,11.71h-51.32v-23.75"/><path class="c" d="M327.96,366.1v23.75h-51.31c-6.57,0-11.89-5.31-11.89-11.87,0-.16,.02-.31,.02-.47,.24-6.18,5.2-11.13,11.36-11.38,.17-.01,.33-.02,.5-.02h19.38"/><path class="c" d="M279.92,362.34l-3.78,3.78c-6.17,.25-11.12,5.21-11.36,11.38l-15.16,15.16-14.53-14.53c0-.06,.01-.1,.01-.16,0-6.57-5.32-11.87-11.87-11.87h-.17l-3.71-3.71c-6.37-6.37-6.37-16.69,0-23.06,6.37-6.37,16.69-6.37,23.06,0l7.2,7.22,7.25-7.26c6.37-6.37,16.69-6.37,23.06,0,6.37,6.37,6.37,16.69,0,23.06Z"/></g><path class="c" d="M315.25,196.27c13.17-6.19,16.29-16.48,4.27-61.83-12.02-45.35-68.27-20.09-68.27-20.09h.37s-59.49-25.26-71.51,20.09c-12.02,45.35-8.9,55.64,4.27,61.83"/></g></g><g id="b"/></svg>